G04*
G04 #@! TF.GenerationSoftware,Altium Limited,Altium Designer,23.7.1 (13)*
G04*
G04 Layer_Color=16711935*
%FSLAX44Y44*%
%MOMM*%
G71*
G04*
G04 #@! TF.SameCoordinates,153F72C1-2EA9-491F-B8CB-9A114FCA6393*
G04*
G04*
G04 #@! TF.FilePolarity,Positive*
G04*
G01*
G75*
%ADD11C,0.1270*%
%ADD12C,0.2000*%
%ADD52C,0.0000*%
%ADD53C,0.0254*%
D11*
X1089500Y952300D02*
G03*
X1089500Y952300I-29500J0D01*
G01*
X1159250Y1036521D02*
G03*
X1120750Y1036521I-19250J13479D01*
G01*
X1084250D02*
G03*
X1045750Y1036521I-19250J13479D01*
G01*
X1004250D02*
G03*
X965750Y1036521I-19250J13479D01*
G01*
X855000Y1055000D02*
G03*
X855000Y1055000I-25000J0D01*
G01*
X915000Y655000D02*
G03*
X915000Y655000I-25000J0D01*
G01*
X1014500Y955000D02*
G03*
X1014500Y955000I-29500J0D01*
G01*
X1120765Y1036500D02*
X1159235D01*
X1045765D02*
X1084235D01*
X965765D02*
X1004235D01*
X879600Y1032300D02*
X936800D01*
Y1083100D01*
X879600D02*
X936800D01*
X879600Y1032300D02*
Y1083100D01*
Y1032300D02*
X936800D01*
Y1083100D01*
X879600D02*
X936800D01*
X692350Y1069200D02*
X787650D01*
Y1020900D02*
Y1069200D01*
X692350Y1020900D02*
X787650D01*
X692350D02*
Y1069200D01*
X582350D02*
X677650D01*
Y1020900D02*
Y1069200D01*
X582350Y1020900D02*
X677650D01*
X582350D02*
Y1069200D01*
X1275400Y629600D02*
Y686800D01*
X1224600D02*
X1275400D01*
X1224600Y629600D02*
Y686800D01*
Y629600D02*
X1275400D01*
Y686800D01*
X1224600D02*
X1275400D01*
X1224600Y629600D02*
Y686800D01*
X1052750Y630800D02*
X1148050D01*
X1052750D02*
Y679100D01*
X1148050D01*
Y630800D02*
Y679100D01*
X754600Y688200D02*
Y745400D01*
Y688200D02*
X805400D01*
Y745400D01*
X754600D02*
X805400D01*
X754600Y688200D02*
Y745400D01*
Y688200D02*
X805400D01*
Y745400D01*
X689600Y688200D02*
Y745400D01*
Y688200D02*
X740400D01*
Y745400D01*
X689600D02*
X740400D01*
X689600Y688200D02*
Y745400D01*
Y688200D02*
X740400D01*
Y745400D01*
X838250Y1017950D02*
X901750D01*
X838250Y922050D02*
X901750D01*
X838250D02*
Y1017950D01*
X901750Y922050D02*
Y1017950D01*
X936950Y679200D02*
X1032250D01*
Y630900D02*
Y679200D01*
X936950Y630900D02*
X1032250D01*
X936950D02*
Y679200D01*
D12*
X1061000Y918300D02*
G03*
X1061000Y918300I-1000J0D01*
G01*
X1099000Y1048450D02*
G03*
X1099000Y1048450I-1000J0D01*
G01*
X1024000D02*
G03*
X1024000Y1048450I-1000J0D01*
G01*
X944000D02*
G03*
X944000Y1048450I-1000J0D01*
G01*
X906000Y1025800D02*
G03*
X906000Y1025800I-1000J0D01*
G01*
X831000Y1022500D02*
G03*
X831000Y1022500I-1000J0D01*
G01*
X702900Y1045000D02*
G03*
X702900Y1045000I-1000J0D01*
G01*
X592900D02*
G03*
X592900Y1045000I-1000J0D01*
G01*
X1282900Y655000D02*
G03*
X1282900Y655000I-1000J0D01*
G01*
X1139500D02*
G03*
X1139500Y655000I-1000J0D01*
G01*
X749100Y720000D02*
G03*
X749100Y720000I-1000J0D01*
G01*
X684100D02*
G03*
X684100Y720000I-1000J0D01*
G01*
X820650Y1008100D02*
G03*
X820650Y1008100I-1000J0D01*
G01*
X947500Y655000D02*
G03*
X947500Y655000I-1000J0D01*
G01*
X858500D02*
G03*
X858500Y655000I-1000J0D01*
G01*
X986000Y989000D02*
G03*
X986000Y989000I-1000J0D01*
G01*
D52*
X867582Y904676D02*
G03*
X873678Y904676I3048J0D01*
G01*
X835070Y704524D02*
Y904676D01*
X867582D01*
X873678D01*
X906190D01*
Y704524D02*
Y904676D01*
X835070Y704524D02*
X906190D01*
Y886388D02*
X914318D01*
Y875212D02*
Y886388D01*
X906190Y875212D02*
X914318D01*
X906190D02*
Y886388D01*
Y860988D02*
X914318D01*
Y849812D02*
Y860988D01*
X906190Y849812D02*
X914318D01*
X906190D02*
Y860988D01*
Y835588D02*
X914318D01*
Y824412D02*
Y835588D01*
X906190Y824412D02*
X914318D01*
X906190D02*
Y835588D01*
Y810188D02*
X914318D01*
Y799012D02*
Y810188D01*
X906190Y799012D02*
X914318D01*
X906190D02*
Y810188D01*
Y784788D02*
X914318D01*
Y773612D02*
Y784788D01*
X906190Y773612D02*
X914318D01*
X906190D02*
Y784788D01*
Y759388D02*
X914318D01*
Y748212D02*
Y759388D01*
X906190Y748212D02*
X914318D01*
X906190D02*
Y759388D01*
Y733988D02*
X914318D01*
Y722812D02*
Y733988D01*
X906190Y722812D02*
X914318D01*
X906190D02*
Y733988D01*
X826942Y722812D02*
X835070D01*
X826942D02*
Y733988D01*
X835070D01*
Y722812D02*
Y733988D01*
X826942Y748212D02*
X835070D01*
X826942D02*
Y759388D01*
X835070D01*
Y748212D02*
Y759388D01*
X826942Y773612D02*
X835070D01*
X826942D02*
Y784788D01*
X835070D01*
Y773612D02*
Y784788D01*
X826942Y799012D02*
X835070D01*
X826942D02*
Y810188D01*
X835070D01*
Y799012D02*
Y810188D01*
X826942Y824412D02*
X835070D01*
X826942D02*
Y835588D01*
X835070D01*
Y824412D02*
Y835588D01*
X826942Y849812D02*
X835070D01*
X826942D02*
Y860988D01*
X835070D01*
Y849812D02*
Y860988D01*
X826942Y875212D02*
X835070D01*
X826942D02*
Y886388D01*
X835070D01*
Y875212D02*
Y886388D01*
D53*
X1232502Y1018998D02*
Y1051002D01*
X1327498D01*
Y1018998D02*
Y1051002D01*
X1232502Y1018998D02*
X1327498D01*
Y1035000D02*
X1358740D01*
X1201260D02*
X1232502D01*
Y1068998D02*
Y1101002D01*
X1327498D01*
Y1068998D02*
Y1101002D01*
X1232502Y1068998D02*
X1327498D01*
Y1085000D02*
X1358740D01*
X1201260D02*
X1232502D01*
X1237498Y955000D02*
X1268740D01*
X1111260D02*
X1142502D01*
Y971002D02*
X1237498D01*
X1142502Y938998D02*
Y971002D01*
Y938998D02*
X1237498D01*
Y971002D01*
X1200000Y720380D02*
Y751622D01*
Y846618D02*
Y877860D01*
X1216002Y751622D02*
Y846618D01*
X1183998D02*
X1216002D01*
X1183998Y751622D02*
Y846618D01*
Y751622D02*
X1216002D01*
X1260000Y720380D02*
Y751622D01*
Y846618D02*
Y877860D01*
X1276002Y751622D02*
Y846618D01*
X1243998D02*
X1276002D01*
X1243998Y751622D02*
Y846618D01*
Y751622D02*
X1276002D01*
X600000Y771260D02*
Y802502D01*
Y897498D02*
Y928740D01*
X616002Y802502D02*
Y897498D01*
X583998D02*
X616002D01*
X583998Y802502D02*
Y897498D01*
Y802502D02*
X616002D01*
X780000Y771260D02*
Y802502D01*
Y897498D02*
Y928740D01*
X796002Y802502D02*
Y897498D01*
X763998D02*
X796002D01*
X763998Y802502D02*
Y897498D01*
Y802502D02*
X796002D01*
X735000Y902498D02*
Y933740D01*
Y776260D02*
Y807502D01*
X718998D02*
Y902498D01*
Y807502D02*
X751002D01*
Y902498D01*
X718998D02*
X751002D01*
X975000Y721260D02*
Y752502D01*
Y847498D02*
Y878740D01*
X991002Y752502D02*
Y847498D01*
X958998D02*
X991002D01*
X958998Y752502D02*
Y847498D01*
Y752502D02*
X991002D01*
X1030000Y852498D02*
Y883740D01*
Y726260D02*
Y757502D01*
X1013998D02*
Y852498D01*
Y757502D02*
X1046002D01*
Y852498D01*
X1013998D02*
X1046002D01*
X1140000Y851698D02*
Y882940D01*
Y725460D02*
Y756702D01*
X1123998D02*
Y851698D01*
Y756702D02*
X1156002D01*
Y851698D01*
X1123998D02*
X1156002D01*
X1085000Y721260D02*
Y752502D01*
Y847498D02*
Y878740D01*
X1101002Y752502D02*
Y847498D01*
X1068998D02*
X1101002D01*
X1068998Y752502D02*
Y847498D01*
Y752502D02*
X1101002D01*
X690000Y901698D02*
Y932940D01*
Y775460D02*
Y806702D01*
X673998D02*
Y901698D01*
Y806702D02*
X706002D01*
Y901698D01*
X673998D02*
X706002D01*
X645000Y770380D02*
Y801622D01*
Y896618D02*
Y927860D01*
X661002Y801622D02*
Y896618D01*
X628998D02*
X661002D01*
X628998Y801622D02*
Y896618D01*
Y801622D02*
X661002D01*
M02*
