G04*
G04 #@! TF.GenerationSoftware,Altium Limited,Altium Designer,23.7.1 (13)*
G04*
G04 Layer_Physical_Order=1*
G04 Layer_Color=255*
%FSLAX44Y44*%
%MOMM*%
G71*
G04*
G04 #@! TF.SameCoordinates,153F72C1-2EA9-491F-B8CB-9A114FCA6393*
G04*
G04*
G04 #@! TF.FilePolarity,Positive*
G04*
G01*
G75*
%ADD14C,1.5240*%
%ADD15R,1.5240X1.5240*%
%ADD31R,1.5240X1.5240*%
%ADD33C,0.3810*%
%ADD34C,0.5000*%
%ADD35C,3.5000*%
%ADD36C,1.6764*%
%ADD37R,1.6764X1.6764*%
%ADD38C,1.4000*%
%ADD39R,1.4000X1.4000*%
%ADD40R,1.4000X1.4000*%
%ADD41C,1.3700*%
%ADD42R,1.3700X1.3700*%
%ADD43R,1.1000X1.1000*%
%ADD44C,1.1000*%
%ADD45R,1.2180X1.2180*%
%ADD46C,1.2180*%
%ADD47R,1.3700X1.3700*%
%ADD48R,1.1300X1.1300*%
%ADD49C,1.1300*%
%ADD50R,1.1000X1.1000*%
G36*
X1375000Y625000D02*
X580000D01*
X579885Y1094300D01*
X581155Y1095000D01*
X1000333D01*
X1000766Y1093749D01*
X1000766Y1093730D01*
X967686Y1060650D01*
X953950D01*
Y1044008D01*
X953890Y1043555D01*
Y1036740D01*
X910501Y993350D01*
X908298D01*
X905589Y992624D01*
X903161Y991222D01*
X901178Y989239D01*
X899776Y986811D01*
X899050Y984102D01*
Y981298D01*
X899776Y978589D01*
X901178Y976161D01*
X903161Y974178D01*
X905589Y972776D01*
X908298Y972050D01*
X911102D01*
X913811Y972776D01*
X916239Y974178D01*
X918222Y976161D01*
X919624Y978589D01*
X920350Y981298D01*
Y983501D01*
X965780Y1028930D01*
X966887Y1030373D01*
X967582Y1032052D01*
X967820Y1033855D01*
Y1036650D01*
X977950D01*
X978035Y1035415D01*
Y1022885D01*
X950075Y994925D01*
X948969Y993482D01*
X948273Y991803D01*
X948035Y990000D01*
Y972300D01*
X948273Y970497D01*
X948969Y968818D01*
X950075Y967375D01*
X973121Y944330D01*
X973000Y943880D01*
Y940720D01*
X973818Y937668D01*
X975398Y934932D01*
X977632Y932698D01*
X980368Y931118D01*
X983420Y930300D01*
X986580D01*
X989632Y931118D01*
X992368Y932698D01*
X994602Y934932D01*
X994835Y935335D01*
X1048000D01*
Y927600D01*
X1072000D01*
Y951600D01*
X1048000D01*
Y949265D01*
X994835D01*
X994602Y949668D01*
X992368Y951902D01*
X989632Y953482D01*
X986580Y954300D01*
X983904D01*
X983793Y954430D01*
X984380Y955700D01*
X997000D01*
Y958035D01*
X1050165D01*
X1050398Y957632D01*
X1052632Y955398D01*
X1055368Y953818D01*
X1058420Y953000D01*
X1061580D01*
X1064632Y953818D01*
X1067368Y955398D01*
X1069602Y957632D01*
X1071182Y960368D01*
X1072000Y963420D01*
Y966580D01*
X1071182Y969632D01*
X1069602Y972368D01*
X1067368Y974602D01*
X1064632Y976182D01*
X1062455Y976765D01*
X1062622Y978035D01*
X1077115D01*
X1098035Y957115D01*
Y912885D01*
X1097115Y911965D01*
X995000D01*
X993197Y911727D01*
X991518Y911031D01*
X990075Y909925D01*
X970075Y889925D01*
X968969Y888482D01*
X968273Y886803D01*
X968035Y885000D01*
Y866431D01*
X967251Y865978D01*
X964902Y863629D01*
X963240Y860751D01*
X962380Y857542D01*
Y854219D01*
X963240Y851009D01*
X964902Y848131D01*
X967251Y845781D01*
X970129Y844120D01*
X973338Y843260D01*
X976662D01*
X979871Y844120D01*
X982749Y845781D01*
X985098Y848131D01*
X986760Y851009D01*
X987620Y854219D01*
Y857542D01*
X986760Y860751D01*
X985098Y863629D01*
X982749Y865978D01*
X981965Y866431D01*
Y882115D01*
X997885Y898035D01*
X1100000D01*
X1101803Y898273D01*
X1103482Y898969D01*
X1104925Y900075D01*
X1109925Y905075D01*
X1111031Y906518D01*
X1111727Y908197D01*
X1111965Y910000D01*
Y960000D01*
X1111965Y960000D01*
X1111727Y961803D01*
X1111031Y963482D01*
X1109925Y964925D01*
X1084925Y989925D01*
X1083482Y991031D01*
X1081803Y991727D01*
X1080000Y991965D01*
X1002300D01*
X1000498Y991727D01*
X998818Y991031D01*
X997375Y989925D01*
X987151Y979700D01*
X973000D01*
Y965809D01*
X971827Y965323D01*
X961965Y975185D01*
Y987115D01*
X989925Y1015075D01*
X991031Y1016518D01*
X991727Y1018197D01*
X991965Y1020000D01*
Y1026581D01*
X993235Y1027012D01*
X993550Y1026600D01*
X1005075Y1015075D01*
X1006518Y1013969D01*
X1008197Y1013273D01*
X1010000Y1013035D01*
X1116065D01*
X1117868Y1013273D01*
X1119547Y1013969D01*
X1120990Y1015075D01*
X1139780Y1033865D01*
X1140887Y1035308D01*
X1141360Y1036450D01*
X1141580D01*
X1144632Y1037268D01*
X1147368Y1038848D01*
X1149602Y1041082D01*
X1149642Y1041087D01*
X1151682Y1039048D01*
X1152085Y1038815D01*
Y876935D01*
X1142771Y867620D01*
X1127380D01*
Y842380D01*
X1152620D01*
Y857771D01*
X1163975Y869125D01*
X1165081Y870568D01*
X1165777Y872247D01*
X1166015Y874050D01*
Y1038815D01*
X1166418Y1039048D01*
X1168652Y1041282D01*
X1170232Y1044018D01*
X1171050Y1047070D01*
Y1050230D01*
X1170232Y1053282D01*
X1168652Y1056018D01*
X1166418Y1058252D01*
X1163682Y1059832D01*
X1160630Y1060650D01*
X1157470D01*
X1154418Y1059832D01*
X1151682Y1058252D01*
X1149448Y1056018D01*
X1149408Y1056013D01*
X1147368Y1058052D01*
X1144632Y1059632D01*
X1141580Y1060450D01*
X1138420D01*
X1135368Y1059632D01*
X1134050Y1058871D01*
X1132950Y1059506D01*
Y1060650D01*
X1118799D01*
X1111970Y1067480D01*
X1110527Y1068587D01*
X1108848Y1069282D01*
X1107045Y1069520D01*
X1078290D01*
X1078014Y1069483D01*
X1077421Y1070686D01*
X1079770Y1073035D01*
X1181315D01*
X1216580Y1037771D01*
Y1022380D01*
X1241820D01*
Y1047620D01*
X1226429D01*
X1197187Y1076862D01*
X1197673Y1078035D01*
X1216580D01*
Y1072380D01*
X1241820D01*
Y1095000D01*
X1330341D01*
X1330681Y1093730D01*
X1329642Y1093130D01*
X1327750Y1091238D01*
X1326412Y1088922D01*
X1325720Y1086338D01*
Y1086270D01*
X1335880D01*
X1346040D01*
Y1086338D01*
X1345348Y1088922D01*
X1344010Y1091238D01*
X1342118Y1093130D01*
X1341079Y1093730D01*
X1341420Y1095000D01*
X1375000D01*
Y625000D01*
D02*
G37*
G36*
X1067708Y1080672D02*
X1047686Y1060650D01*
X1033950D01*
Y1036965D01*
X1025585D01*
X1015929Y1046620D01*
X1016050Y1047070D01*
Y1050230D01*
X1015232Y1053282D01*
X1013652Y1056018D01*
X1011418Y1058252D01*
X1008682Y1059832D01*
X1005630Y1060650D01*
X1002470D01*
X999418Y1059832D01*
X996682Y1058252D01*
X994448Y1056018D01*
X994408Y1056013D01*
X992368Y1058052D01*
X989632Y1059632D01*
X988284Y1059993D01*
X987955Y1061220D01*
X1008580Y1081845D01*
X1067222D01*
X1067708Y1080672D01*
D02*
G37*
G36*
X1108950Y1050801D02*
Y1036650D01*
X1121206D01*
X1121692Y1035477D01*
X1113180Y1026965D01*
X1074688D01*
X1074202Y1028138D01*
X1082714Y1036650D01*
X1085630D01*
X1088682Y1037468D01*
X1091418Y1039048D01*
X1093652Y1041282D01*
X1095232Y1044018D01*
X1096050Y1047070D01*
Y1050230D01*
X1095232Y1053282D01*
X1094534Y1054491D01*
X1095169Y1055590D01*
X1104160D01*
X1108950Y1050801D01*
D02*
G37*
G36*
X1057545Y976765D02*
X1055368Y976182D01*
X1052632Y974602D01*
X1050398Y972368D01*
X1050165Y971965D01*
X1000773D01*
X1000287Y973138D01*
X1005185Y978035D01*
X1057378D01*
X1057545Y976765D01*
D02*
G37*
%LPC*%
G36*
X1346040Y1083730D02*
X1337150D01*
Y1074840D01*
X1337218D01*
X1339802Y1075532D01*
X1342118Y1076870D01*
X1344010Y1078762D01*
X1345348Y1081078D01*
X1346040Y1083662D01*
Y1083730D01*
D02*
G37*
G36*
X1334610D02*
X1325720D01*
Y1083662D01*
X1326412Y1081078D01*
X1327750Y1078762D01*
X1329642Y1076870D01*
X1331958Y1075532D01*
X1334542Y1074840D01*
X1334610D01*
Y1083730D01*
D02*
G37*
G36*
X906560Y1082250D02*
X903440D01*
X900426Y1081442D01*
X897724Y1079882D01*
X895518Y1077676D01*
X893958Y1074974D01*
X893150Y1071960D01*
Y1068840D01*
X893958Y1065826D01*
X895518Y1063124D01*
X897724Y1060918D01*
X900426Y1059358D01*
X903440Y1058550D01*
X906560D01*
X909574Y1059358D01*
X912276Y1060918D01*
X914482Y1063124D01*
X916042Y1065826D01*
X916850Y1068840D01*
Y1071960D01*
X916042Y1074974D01*
X914482Y1077676D01*
X912276Y1079882D01*
X909574Y1081442D01*
X906560Y1082250D01*
D02*
G37*
G36*
X831382Y1078000D02*
X828618D01*
X825947Y1077284D01*
X823553Y1075902D01*
X821598Y1073947D01*
X820216Y1071553D01*
X819500Y1068882D01*
Y1066118D01*
X820216Y1063447D01*
X821598Y1061053D01*
X823553Y1059098D01*
X825947Y1057716D01*
X828618Y1057000D01*
X831382D01*
X834053Y1057716D01*
X836447Y1059098D01*
X838402Y1061053D01*
X839784Y1063447D01*
X840500Y1066118D01*
Y1068882D01*
X839784Y1071553D01*
X838402Y1073947D01*
X836447Y1075902D01*
X834053Y1077284D01*
X831382Y1078000D01*
D02*
G37*
G36*
X723230Y1053630D02*
X715870D01*
Y1046270D01*
X723230D01*
Y1053630D01*
D02*
G37*
G36*
X713330D02*
X705970D01*
Y1046270D01*
X713330D01*
Y1053630D01*
D02*
G37*
G36*
X613230D02*
X605870D01*
Y1046270D01*
X613230D01*
Y1053630D01*
D02*
G37*
G36*
X603330D02*
X595970D01*
Y1046270D01*
X603330D01*
Y1053630D01*
D02*
G37*
G36*
X838040Y1050540D02*
X831270D01*
Y1043770D01*
X838040D01*
Y1050540D01*
D02*
G37*
G36*
X828730D02*
X821960D01*
Y1043770D01*
X828730D01*
Y1050540D01*
D02*
G37*
G36*
X723230Y1043730D02*
X715870D01*
Y1036370D01*
X723230D01*
Y1043730D01*
D02*
G37*
G36*
X713330D02*
X705970D01*
Y1036370D01*
X713330D01*
Y1043730D01*
D02*
G37*
G36*
X613230D02*
X605870D01*
Y1036370D01*
X613230D01*
Y1043730D01*
D02*
G37*
G36*
X603330D02*
X595970D01*
Y1036370D01*
X603330D01*
Y1043730D01*
D02*
G37*
G36*
X1337218Y1045160D02*
X1337150D01*
Y1036270D01*
X1346040D01*
Y1036338D01*
X1345348Y1038922D01*
X1344010Y1041238D01*
X1342118Y1043130D01*
X1339802Y1044468D01*
X1337218Y1045160D01*
D02*
G37*
G36*
X1334610D02*
X1334542D01*
X1331958Y1044468D01*
X1329642Y1043130D01*
X1327750Y1041238D01*
X1326412Y1038922D01*
X1325720Y1036338D01*
Y1036270D01*
X1334610D01*
Y1045160D01*
D02*
G37*
G36*
X838040Y1041230D02*
X831270D01*
Y1034460D01*
X838040D01*
Y1041230D01*
D02*
G37*
G36*
X828730D02*
X821960D01*
Y1034460D01*
X828730D01*
Y1041230D01*
D02*
G37*
G36*
X766860Y1056090D02*
X763940D01*
X761119Y1055334D01*
X758591Y1053874D01*
X756526Y1051809D01*
X755066Y1049281D01*
X754310Y1046460D01*
Y1043540D01*
X755066Y1040719D01*
X756526Y1038191D01*
X758591Y1036126D01*
X761119Y1034666D01*
X763940Y1033910D01*
X766860D01*
X769681Y1034666D01*
X772209Y1036126D01*
X774274Y1038191D01*
X775734Y1040719D01*
X776490Y1043540D01*
Y1046460D01*
X775734Y1049281D01*
X774274Y1051809D01*
X772209Y1053874D01*
X769681Y1055334D01*
X766860Y1056090D01*
D02*
G37*
G36*
X656860D02*
X653940D01*
X651119Y1055334D01*
X648591Y1053874D01*
X646526Y1051809D01*
X645066Y1049281D01*
X644310Y1046460D01*
Y1043540D01*
X645066Y1040719D01*
X646526Y1038191D01*
X648591Y1036126D01*
X651119Y1034666D01*
X653940Y1033910D01*
X656860D01*
X659681Y1034666D01*
X662209Y1036126D01*
X664274Y1038191D01*
X665734Y1040719D01*
X666490Y1043540D01*
Y1046460D01*
X665734Y1049281D01*
X664274Y1051809D01*
X662209Y1053874D01*
X659681Y1055334D01*
X656860Y1056090D01*
D02*
G37*
G36*
X1346040Y1033730D02*
X1337150D01*
Y1024840D01*
X1337218D01*
X1339802Y1025532D01*
X1342118Y1026870D01*
X1344010Y1028762D01*
X1345348Y1031078D01*
X1346040Y1033662D01*
Y1033730D01*
D02*
G37*
G36*
X1334610D02*
X1325720D01*
Y1033662D01*
X1326412Y1031078D01*
X1327750Y1028762D01*
X1329642Y1026870D01*
X1331958Y1025532D01*
X1334542Y1024840D01*
X1334610D01*
Y1033730D01*
D02*
G37*
G36*
X910970Y1016239D02*
Y1009370D01*
X917839D01*
X917332Y1011261D01*
X916254Y1013129D01*
X914729Y1014654D01*
X912861Y1015732D01*
X910970Y1016239D01*
D02*
G37*
G36*
X908430D02*
X906539Y1015732D01*
X904671Y1014654D01*
X903146Y1013129D01*
X902068Y1011261D01*
X901561Y1009370D01*
X908430D01*
Y1016239D01*
D02*
G37*
G36*
X917839Y1006830D02*
X910970D01*
Y999961D01*
X912861Y1000468D01*
X914729Y1001546D01*
X916254Y1003071D01*
X917332Y1004939D01*
X917839Y1006830D01*
D02*
G37*
G36*
X908430D02*
X901561D01*
X902068Y1004939D01*
X903146Y1003071D01*
X904671Y1001546D01*
X906539Y1000468D01*
X908430Y999961D01*
Y1006830D01*
D02*
G37*
G36*
X840950Y1018750D02*
X819650D01*
Y997450D01*
X840950D01*
Y1018750D01*
D02*
G37*
G36*
X916850Y1056850D02*
X893150D01*
Y1042999D01*
X839815Y989665D01*
X838397D01*
X836839Y991222D01*
X834411Y992624D01*
X831702Y993350D01*
X828898D01*
X826189Y992624D01*
X823761Y991222D01*
X821778Y989239D01*
X820376Y986811D01*
X819650Y984102D01*
Y981298D01*
X820376Y978589D01*
X821778Y976161D01*
X823761Y974178D01*
X826189Y972776D01*
X828898Y972050D01*
X831702D01*
X834411Y972776D01*
X836839Y974178D01*
X838397Y975735D01*
X842700D01*
X844503Y975973D01*
X846182Y976668D01*
X847625Y977775D01*
X902999Y1033150D01*
X916850D01*
Y1056850D01*
D02*
G37*
G36*
X1250960Y965160D02*
X1242070D01*
Y956270D01*
X1250960D01*
Y965160D01*
D02*
G37*
G36*
X1239530D02*
X1230640D01*
Y956270D01*
X1239530D01*
Y965160D01*
D02*
G37*
G36*
X1250960Y953730D02*
X1242070D01*
Y944840D01*
X1250960D01*
Y953730D01*
D02*
G37*
G36*
X1239530D02*
X1230640D01*
Y944840D01*
X1239530D01*
Y953730D01*
D02*
G37*
G36*
X1135781Y967620D02*
X1132458D01*
X1129249Y966760D01*
X1126371Y965098D01*
X1124022Y962749D01*
X1122360Y959871D01*
X1121500Y956662D01*
Y953338D01*
X1122360Y950129D01*
X1124022Y947251D01*
X1126371Y944902D01*
X1129249Y943240D01*
X1132458Y942380D01*
X1135781D01*
X1138991Y943240D01*
X1141869Y944902D01*
X1144219Y947251D01*
X1145880Y950129D01*
X1146740Y953338D01*
Y956662D01*
X1145880Y959871D01*
X1144219Y962749D01*
X1141869Y965098D01*
X1138991Y966760D01*
X1135781Y967620D01*
D02*
G37*
G36*
X631460Y1056090D02*
X628540D01*
X625719Y1055334D01*
X623191Y1053874D01*
X621126Y1051809D01*
X619666Y1049281D01*
X618910Y1046460D01*
Y1043540D01*
X619666Y1040719D01*
X621126Y1038191D01*
X622435Y1036881D01*
Y978133D01*
X594651Y950349D01*
X593449Y948782D01*
X592693Y946958D01*
X592435Y945000D01*
Y916085D01*
X592251Y915978D01*
X589902Y913629D01*
X588240Y910751D01*
X587380Y907542D01*
Y904219D01*
X588240Y901009D01*
X589902Y898131D01*
X592251Y895781D01*
X595129Y894120D01*
X598339Y893260D01*
X601661D01*
X604871Y894120D01*
X607749Y895781D01*
X610098Y898131D01*
X611760Y901009D01*
X612620Y904219D01*
Y907542D01*
X611760Y910751D01*
X610098Y913629D01*
X607749Y915978D01*
X607565Y916085D01*
Y941867D01*
X635349Y969651D01*
X636551Y971218D01*
X637307Y973042D01*
X637436Y974021D01*
X637565Y975000D01*
X637565Y975000D01*
Y1036881D01*
X638874Y1038191D01*
X640334Y1040719D01*
X641090Y1043540D01*
Y1046460D01*
X640334Y1049281D01*
X638874Y1051809D01*
X636809Y1053874D01*
X634281Y1055334D01*
X631460Y1056090D01*
D02*
G37*
G36*
X702620Y917620D02*
X677380D01*
Y898078D01*
X671867Y892565D01*
X668133D01*
X657565Y903133D01*
X657620Y903338D01*
Y906662D01*
X656760Y909871D01*
X655098Y912749D01*
X652749Y915098D01*
X649871Y916760D01*
X646662Y917620D01*
X643338D01*
X640129Y916760D01*
X637251Y915098D01*
X634902Y912749D01*
X633240Y909871D01*
X632380Y906662D01*
Y903338D01*
X633240Y900129D01*
X634902Y897251D01*
X637251Y894902D01*
X640129Y893240D01*
X643338Y892380D01*
X646662D01*
X646867Y892435D01*
X659651Y879651D01*
X661218Y878449D01*
X663042Y877693D01*
X665000Y877435D01*
X675000D01*
X676958Y877693D01*
X678782Y878449D01*
X680349Y879651D01*
X693078Y892380D01*
X702620D01*
Y917620D01*
D02*
G37*
G36*
X741460Y1056090D02*
X738540D01*
X735719Y1055334D01*
X733191Y1053874D01*
X731126Y1051809D01*
X729666Y1049281D01*
X728910Y1046460D01*
Y1043540D01*
X729666Y1040719D01*
X731126Y1038191D01*
X733035Y1036281D01*
Y1010000D01*
X733273Y1008197D01*
X733969Y1006518D01*
X735075Y1005075D01*
X800330Y939820D01*
X801773Y938714D01*
X803452Y938018D01*
X805255Y937780D01*
X820127D01*
X820762Y936681D01*
X820376Y936011D01*
X819650Y933302D01*
Y930498D01*
X820376Y927789D01*
X821778Y925361D01*
X823761Y923378D01*
X826189Y921976D01*
X828898Y921250D01*
X831702D01*
X834411Y921976D01*
X836839Y923378D01*
X838822Y925361D01*
X840224Y927789D01*
X840950Y930498D01*
Y933302D01*
X840224Y936011D01*
X839837Y936681D01*
X840472Y937780D01*
X893970D01*
X899050Y932701D01*
Y930498D01*
X899776Y927789D01*
X901178Y925361D01*
X903161Y923378D01*
X903409Y923235D01*
X903069Y921965D01*
X901603D01*
X899801Y921727D01*
X898121Y921031D01*
X896679Y919925D01*
X864519Y887765D01*
X845912D01*
Y894182D01*
X819148D01*
Y888365D01*
X808213D01*
X792565Y904013D01*
X792620Y904219D01*
Y907542D01*
X791760Y910751D01*
X790098Y913629D01*
X787749Y915978D01*
X784871Y917640D01*
X781662Y918500D01*
X778338D01*
X775129Y917640D01*
X772251Y915978D01*
X769902Y913629D01*
X768240Y910751D01*
X767380Y907542D01*
Y904219D01*
X768240Y901009D01*
X769902Y898131D01*
X772251Y895781D01*
X775129Y894120D01*
X778338Y893260D01*
X781662D01*
X781867Y893315D01*
X799731Y875451D01*
X799731Y875451D01*
X801298Y874249D01*
X803122Y873493D01*
X805080Y873235D01*
X819148D01*
Y867418D01*
X824128D01*
X824457Y866191D01*
X824313Y866108D01*
X821822Y863617D01*
X820060Y860565D01*
X819148Y857162D01*
Y854846D01*
X779771Y815469D01*
X778569Y813902D01*
X778252Y813139D01*
X777007Y812891D01*
X742565Y847333D01*
Y893180D01*
X747620D01*
Y918420D01*
X722380D01*
Y893180D01*
X727435D01*
Y844200D01*
X727693Y842242D01*
X728449Y840418D01*
X729651Y838851D01*
X767380Y801122D01*
Y786580D01*
X792620D01*
Y803828D01*
X792685Y804320D01*
Y806987D01*
X818078Y832380D01*
X818742Y831996D01*
X819148Y831654D01*
Y828238D01*
X820060Y824835D01*
X821822Y821783D01*
X824313Y819292D01*
X827365Y817530D01*
X830522Y816684D01*
X830686Y815835D01*
X830640Y815401D01*
X828314Y814778D01*
X825824Y813340D01*
X823790Y811306D01*
X822352Y808816D01*
X821608Y806038D01*
Y805870D01*
X843452D01*
Y806038D01*
X842708Y808816D01*
X841270Y811306D01*
X839236Y813340D01*
X836746Y814778D01*
X834420Y815401D01*
X834374Y815835D01*
X834538Y816684D01*
X837695Y817530D01*
X840747Y819292D01*
X843238Y821783D01*
X845000Y824835D01*
X845912Y828238D01*
Y831762D01*
X845000Y835165D01*
X843238Y838217D01*
X840747Y840708D01*
X838567Y841967D01*
Y843433D01*
X840747Y844692D01*
X843238Y847183D01*
X845000Y850235D01*
X845912Y853638D01*
Y857162D01*
X845000Y860565D01*
X843238Y863617D01*
X840747Y866108D01*
X840603Y866191D01*
X840932Y867418D01*
X845912D01*
Y873835D01*
X867403D01*
X869206Y874073D01*
X870886Y874769D01*
X872328Y875875D01*
X904488Y908035D01*
X922380D01*
X924183Y908273D01*
X925862Y908969D01*
X927305Y910075D01*
X929537Y912307D01*
X930643Y913750D01*
X931339Y915429D01*
X931576Y917232D01*
Y942388D01*
X931339Y944191D01*
X930643Y945870D01*
X929537Y947313D01*
X929536Y947313D01*
X920350Y956499D01*
Y958702D01*
X919624Y961411D01*
X918222Y963839D01*
X916239Y965822D01*
X913811Y967224D01*
X911102Y967950D01*
X908298D01*
X905589Y967224D01*
X903161Y965822D01*
X901178Y963839D01*
X899776Y961411D01*
X899050Y958702D01*
Y955898D01*
X899776Y953189D01*
X900387Y952131D01*
X899503Y951122D01*
X898658Y951472D01*
X896855Y951710D01*
X840640D01*
X840005Y952809D01*
X840224Y953189D01*
X840950Y955898D01*
Y958702D01*
X840224Y961411D01*
X838822Y963839D01*
X836839Y965822D01*
X834411Y967224D01*
X831702Y967950D01*
X828898D01*
X826189Y967224D01*
X823761Y965822D01*
X821778Y963839D01*
X820376Y961411D01*
X819650Y958702D01*
Y955898D01*
X820376Y953189D01*
X820595Y952809D01*
X819960Y951710D01*
X808140D01*
X746965Y1012885D01*
Y1036281D01*
X748874Y1038191D01*
X750334Y1040719D01*
X751090Y1043540D01*
Y1046460D01*
X750334Y1049281D01*
X748874Y1051809D01*
X746809Y1053874D01*
X744281Y1055334D01*
X741460Y1056090D01*
D02*
G37*
G36*
X911762Y894182D02*
X908238D01*
X904835Y893270D01*
X901783Y891508D01*
X899292Y889017D01*
X897530Y885965D01*
X896618Y882562D01*
Y879038D01*
X897530Y875635D01*
X899292Y872583D01*
X901783Y870092D01*
X903963Y868833D01*
Y867367D01*
X901783Y866108D01*
X899292Y863617D01*
X897530Y860565D01*
X896618Y857162D01*
Y853638D01*
X897530Y850235D01*
X899292Y847183D01*
X901783Y844692D01*
X903963Y843433D01*
Y841967D01*
X901783Y840708D01*
X899292Y838217D01*
X897530Y835165D01*
X896618Y831762D01*
Y828238D01*
X897530Y824835D01*
X899292Y821783D01*
X901783Y819292D01*
X903963Y818033D01*
Y816567D01*
X901783Y815308D01*
X899292Y812817D01*
X898569Y811565D01*
X894600D01*
X892797Y811327D01*
X891118Y810631D01*
X889675Y809525D01*
X865075Y784925D01*
X863969Y783482D01*
X863273Y781803D01*
X863035Y780000D01*
Y687500D01*
X863273Y685697D01*
X863969Y684018D01*
X865075Y682575D01*
X883437Y664213D01*
X882951Y663040D01*
X878770D01*
Y655000D01*
X877500D01*
Y653730D01*
X869460D01*
Y649560D01*
X847590D01*
X779150Y717999D01*
Y731850D01*
X755450D01*
Y708150D01*
X769301D01*
X839780Y637670D01*
X841223Y636563D01*
X842902Y635868D01*
X844705Y635630D01*
X890095D01*
X891898Y635868D01*
X893577Y636563D01*
X895020Y637670D01*
X901849Y644500D01*
X903882D01*
X906553Y645216D01*
X908947Y646598D01*
X910902Y648553D01*
X912284Y650947D01*
X913000Y653618D01*
Y656382D01*
X912284Y659053D01*
X910902Y661447D01*
X908947Y663402D01*
X906553Y664784D01*
X903882Y665500D01*
X901849D01*
X876965Y690385D01*
Y777115D01*
X897397Y797548D01*
X898677Y797448D01*
X899292Y796383D01*
X901783Y793892D01*
X903963Y792633D01*
Y791167D01*
X901783Y789908D01*
X899292Y787417D01*
X897530Y784365D01*
X896618Y780962D01*
Y777438D01*
X897530Y774035D01*
X899292Y770983D01*
X901783Y768492D01*
X903963Y767233D01*
Y765767D01*
X901783Y764508D01*
X899292Y762017D01*
X897530Y758965D01*
X896618Y755562D01*
Y752038D01*
X897530Y748635D01*
X899292Y745583D01*
X901783Y743092D01*
X903963Y741833D01*
Y740367D01*
X901783Y739108D01*
X899292Y736617D01*
X897530Y733565D01*
X896618Y730162D01*
Y726638D01*
X897530Y723235D01*
X899292Y720183D01*
X901783Y717692D01*
X903035Y716969D01*
Y695000D01*
X903273Y693197D01*
X903969Y691518D01*
X905075Y690075D01*
X945075Y650075D01*
X946518Y648969D01*
X948110Y648309D01*
Y643910D01*
X970290D01*
Y666090D01*
X948759D01*
X916965Y697885D01*
Y716969D01*
X918217Y717692D01*
X920708Y720183D01*
X922470Y723235D01*
X923382Y726638D01*
Y730162D01*
X922470Y733565D01*
X920708Y736617D01*
X918217Y739108D01*
X916037Y740367D01*
Y741833D01*
X918217Y743092D01*
X920708Y745583D01*
X922470Y748635D01*
X923382Y752038D01*
Y755562D01*
X922470Y758965D01*
X920708Y762017D01*
X918217Y764508D01*
X916037Y765767D01*
Y767233D01*
X918217Y768492D01*
X920708Y770983D01*
X921431Y772235D01*
X953400D01*
X955203Y772473D01*
X956882Y773168D01*
X958325Y774275D01*
X1027229Y843180D01*
X1042620D01*
Y848915D01*
X1074449D01*
X1074902Y848131D01*
X1077251Y845781D01*
X1080129Y844120D01*
X1083338Y843260D01*
X1086662D01*
X1089871Y844120D01*
X1092749Y845781D01*
X1095098Y848131D01*
X1096760Y851009D01*
X1097620Y854219D01*
Y857542D01*
X1096760Y860751D01*
X1095098Y863629D01*
X1092749Y865978D01*
X1089871Y867640D01*
X1086662Y868500D01*
X1083338D01*
X1080129Y867640D01*
X1077251Y865978D01*
X1074902Y863629D01*
X1074449Y862845D01*
X1042620D01*
Y868420D01*
X1017380D01*
Y853029D01*
X950515Y786165D01*
X921431D01*
X920708Y787417D01*
X918217Y789908D01*
X916037Y791167D01*
Y792633D01*
X918217Y793892D01*
X920708Y796383D01*
X922470Y799435D01*
X923382Y802838D01*
Y806362D01*
X922470Y809765D01*
X920708Y812817D01*
X918217Y815308D01*
X916037Y816567D01*
Y818033D01*
X918217Y819292D01*
X920708Y821783D01*
X922470Y824835D01*
X923382Y828238D01*
Y831762D01*
X922470Y835165D01*
X920708Y838217D01*
X918217Y840708D01*
X916037Y841967D01*
Y843433D01*
X918217Y844692D01*
X920708Y847183D01*
X922470Y850235D01*
X923382Y853638D01*
Y857162D01*
X922470Y860565D01*
X920708Y863617D01*
X918217Y866108D01*
X916037Y867367D01*
Y868833D01*
X918217Y870092D01*
X920708Y872583D01*
X922470Y875635D01*
X923382Y879038D01*
Y882562D01*
X922470Y885965D01*
X920708Y889017D01*
X918217Y891508D01*
X915165Y893270D01*
X911762Y894182D01*
D02*
G37*
G36*
X1261662Y867620D02*
X1258338D01*
X1255129Y866760D01*
X1252251Y865098D01*
X1249902Y862749D01*
X1248240Y859871D01*
X1247380Y856662D01*
Y853338D01*
X1248240Y850129D01*
X1249902Y847251D01*
X1252251Y844902D01*
X1255129Y843240D01*
X1258338Y842380D01*
X1261662D01*
X1264871Y843240D01*
X1267749Y844902D01*
X1270098Y847251D01*
X1271760Y850129D01*
X1272620Y853338D01*
Y856662D01*
X1271760Y859871D01*
X1270098Y862749D01*
X1267749Y865098D01*
X1264871Y866760D01*
X1261662Y867620D01*
D02*
G37*
G36*
X1201662D02*
X1198338D01*
X1195129Y866760D01*
X1192251Y865098D01*
X1189902Y862749D01*
X1188240Y859871D01*
X1187380Y856662D01*
Y853338D01*
X1188240Y850129D01*
X1189902Y847251D01*
X1192251Y844902D01*
X1195129Y843240D01*
X1198338Y842380D01*
X1201662D01*
X1204871Y843240D01*
X1207749Y844902D01*
X1210098Y847251D01*
X1211760Y850129D01*
X1212620Y853338D01*
Y856662D01*
X1211760Y859871D01*
X1210098Y862749D01*
X1207749Y865098D01*
X1204871Y866760D01*
X1201662Y867620D01*
D02*
G37*
G36*
X612620Y811820D02*
X587380D01*
Y786580D01*
X612620D01*
Y811820D01*
D02*
G37*
G36*
X657620Y810940D02*
X632380D01*
Y785700D01*
X657620D01*
Y810940D01*
D02*
G37*
G36*
X1272620Y760940D02*
X1247380D01*
Y755285D01*
X1212620D01*
Y760940D01*
X1187380D01*
Y735700D01*
X1212620D01*
Y741355D01*
X1241527D01*
X1242013Y740182D01*
X1232375Y730545D01*
X1231268Y729102D01*
X1230573Y727422D01*
X1230335Y725620D01*
Y664662D01*
X1230024Y664482D01*
X1227818Y662276D01*
X1226257Y659574D01*
X1225450Y656560D01*
Y653440D01*
X1226257Y650426D01*
X1227818Y647724D01*
X1230024Y645518D01*
X1232726Y643958D01*
X1235740Y643150D01*
X1238860D01*
X1241874Y643958D01*
X1244576Y645518D01*
X1246782Y647724D01*
X1248342Y650426D01*
X1249150Y653440D01*
Y656560D01*
X1248342Y659574D01*
X1246782Y662276D01*
X1244576Y664482D01*
X1244265Y664662D01*
Y722735D01*
X1257229Y735700D01*
X1272620D01*
Y760940D01*
D02*
G37*
G36*
X987620Y761820D02*
X962380D01*
Y736580D01*
X987620D01*
Y761820D01*
D02*
G37*
G36*
X1141662Y760940D02*
X1138338D01*
X1135129Y760080D01*
X1132251Y758419D01*
X1129902Y756069D01*
X1128240Y753191D01*
X1127380Y749982D01*
Y746658D01*
X1128240Y743449D01*
X1129902Y740571D01*
X1132251Y738222D01*
X1135129Y736560D01*
X1138338Y735700D01*
X1141662D01*
X1144871Y736560D01*
X1147749Y738222D01*
X1150098Y740571D01*
X1151760Y743449D01*
X1152620Y746658D01*
Y749982D01*
X1151760Y753191D01*
X1150098Y756069D01*
X1147749Y758419D01*
X1144871Y760080D01*
X1141662Y760940D01*
D02*
G37*
G36*
X793970Y729381D02*
Y721270D01*
X802081D01*
X801450Y723624D01*
X800214Y725766D01*
X798466Y727514D01*
X796324Y728750D01*
X793970Y729381D01*
D02*
G37*
G36*
X791430Y729381D02*
X789076Y728750D01*
X786934Y727514D01*
X785186Y725766D01*
X783950Y723624D01*
X783319Y721270D01*
X791430D01*
Y729381D01*
D02*
G37*
G36*
X843452Y803330D02*
X821608D01*
Y803162D01*
X822352Y800384D01*
X823790Y797894D01*
X825824Y795860D01*
X828314Y794422D01*
X830640Y793799D01*
X830686Y793365D01*
X830522Y792516D01*
X827365Y791670D01*
X824313Y789908D01*
X821822Y787417D01*
X820060Y784365D01*
X819148Y780962D01*
Y777438D01*
X820060Y774035D01*
X821822Y770983D01*
X824313Y768492D01*
X826493Y767233D01*
Y765767D01*
X824313Y764508D01*
X821822Y762017D01*
X820060Y758965D01*
X819148Y755562D01*
Y752038D01*
X820060Y748635D01*
X821822Y745583D01*
X824313Y743092D01*
X826493Y741833D01*
Y740367D01*
X824313Y739108D01*
X821822Y736617D01*
X820060Y733565D01*
X819148Y730162D01*
Y726638D01*
X820060Y723235D01*
X821822Y720183D01*
X824313Y717692D01*
X827365Y715930D01*
X830768Y715018D01*
X834292D01*
X837695Y715930D01*
X840747Y717692D01*
X843238Y720183D01*
X845000Y723235D01*
X845912Y726638D01*
Y730162D01*
X845000Y733565D01*
X843238Y736617D01*
X840747Y739108D01*
X838567Y740367D01*
Y741833D01*
X840747Y743092D01*
X843238Y745583D01*
X845000Y748635D01*
X845912Y752038D01*
Y755562D01*
X845000Y758965D01*
X843238Y762017D01*
X840747Y764508D01*
X838567Y765767D01*
Y767233D01*
X840747Y768492D01*
X843238Y770983D01*
X845000Y774035D01*
X845912Y777438D01*
Y780962D01*
X845000Y784365D01*
X843238Y787417D01*
X840747Y789908D01*
X837695Y791670D01*
X834538Y792516D01*
X834374Y793365D01*
X834420Y793799D01*
X836746Y794422D01*
X839236Y795860D01*
X841270Y797894D01*
X842708Y800384D01*
X843452Y803162D01*
Y803330D01*
D02*
G37*
G36*
X791430Y718730D02*
X783319D01*
X783950Y716376D01*
X785186Y714234D01*
X786934Y712486D01*
X789076Y711250D01*
X791430Y710619D01*
Y718730D01*
D02*
G37*
G36*
X802081D02*
X793970D01*
Y710619D01*
X796324Y711250D01*
X798466Y712486D01*
X800214Y714234D01*
X801450Y716376D01*
X802081Y718730D01*
D02*
G37*
G36*
X736662Y811740D02*
X733338D01*
X730129Y810880D01*
X727251Y809219D01*
X724902Y806869D01*
X723240Y803991D01*
X722380Y800781D01*
Y797458D01*
X723240Y794249D01*
X724902Y791371D01*
X727251Y789022D01*
X728035Y788569D01*
Y732861D01*
X727024Y731850D01*
X726140D01*
X723126Y731042D01*
X720424Y729482D01*
X718218Y727276D01*
X716657Y724574D01*
X715850Y721560D01*
Y718440D01*
X716657Y715426D01*
X718218Y712724D01*
X720424Y710518D01*
X723126Y708958D01*
X726140Y708150D01*
X729260D01*
X732274Y708958D01*
X734976Y710518D01*
X737182Y712724D01*
X738742Y715426D01*
X739550Y718440D01*
Y721560D01*
X738891Y724018D01*
X739925Y725051D01*
X741031Y726494D01*
X741727Y728174D01*
X741965Y729976D01*
Y788569D01*
X742749Y789022D01*
X745098Y791371D01*
X746760Y794249D01*
X747620Y797458D01*
Y800781D01*
X746760Y803991D01*
X745098Y806869D01*
X742749Y809219D01*
X739871Y810880D01*
X736662Y811740D01*
D02*
G37*
G36*
X691662Y810940D02*
X688338D01*
X685129Y810080D01*
X682251Y808419D01*
X679902Y806069D01*
X678240Y803191D01*
X677380Y799982D01*
Y796658D01*
X678240Y793449D01*
X679902Y790571D01*
X682251Y788222D01*
X683035Y787769D01*
Y732300D01*
X683273Y730497D01*
X683969Y728818D01*
X685075Y727375D01*
X690450Y722001D01*
Y708150D01*
X714150D01*
Y731850D01*
X700299D01*
X696965Y735185D01*
Y787769D01*
X697749Y788222D01*
X700098Y790571D01*
X701760Y793449D01*
X702620Y796658D01*
Y799982D01*
X701760Y803191D01*
X700098Y806069D01*
X697749Y808419D01*
X694871Y810080D01*
X691662Y810940D01*
D02*
G37*
G36*
X1031662Y761740D02*
X1028338D01*
X1025129Y760880D01*
X1022251Y759219D01*
X1019902Y756869D01*
X1018240Y753991D01*
X1017380Y750781D01*
Y747458D01*
X1018240Y744249D01*
X1019902Y741371D01*
X1022251Y739022D01*
X1025129Y737360D01*
X1028338Y736500D01*
X1031662D01*
X1032536Y736734D01*
X1048035Y721235D01*
Y700400D01*
X1048273Y698597D01*
X1048969Y696918D01*
X1050075Y695475D01*
X1078763Y666788D01*
X1078105Y665649D01*
X1076460Y666090D01*
X1073540D01*
X1070719Y665334D01*
X1068191Y663874D01*
X1066126Y661809D01*
X1064666Y659281D01*
X1063910Y656460D01*
Y653540D01*
X1064666Y650719D01*
X1066126Y648191D01*
X1068191Y646126D01*
X1070719Y644666D01*
X1073540Y643910D01*
X1076460D01*
X1079281Y644666D01*
X1081809Y646126D01*
X1083874Y648191D01*
X1085334Y650719D01*
X1086090Y653540D01*
Y656460D01*
X1085649Y658105D01*
X1086788Y658763D01*
X1089310Y656241D01*
Y653540D01*
X1090066Y650719D01*
X1091526Y648191D01*
X1093591Y646126D01*
X1096119Y644666D01*
X1098940Y643910D01*
X1101860D01*
X1104681Y644666D01*
X1107209Y646126D01*
X1109274Y648191D01*
X1110734Y650719D01*
X1111490Y653540D01*
Y656460D01*
X1110734Y659281D01*
X1109274Y661809D01*
X1107209Y663874D01*
X1104681Y665334D01*
X1101860Y666090D01*
X1099159D01*
X1061965Y703285D01*
Y724120D01*
X1061965Y724120D01*
X1061727Y725923D01*
X1061031Y727602D01*
X1059925Y729045D01*
X1042386Y746584D01*
X1042620Y747458D01*
Y750781D01*
X1041760Y753991D01*
X1040098Y756869D01*
X1037749Y759219D01*
X1034871Y760880D01*
X1031662Y761740D01*
D02*
G37*
G36*
X1134430Y663630D02*
X1127070D01*
Y656270D01*
X1134430D01*
Y663630D01*
D02*
G37*
G36*
X876230Y663040D02*
X869460D01*
Y656270D01*
X876230D01*
Y663040D01*
D02*
G37*
G36*
X1124530Y663630D02*
X1117170D01*
Y656270D01*
X1124530D01*
Y663630D01*
D02*
G37*
G36*
X1134430Y653730D02*
X1127070D01*
Y646370D01*
X1134430D01*
Y653730D01*
D02*
G37*
G36*
X1124530D02*
X1117170D01*
Y646370D01*
X1124530D01*
Y653730D01*
D02*
G37*
G36*
X1011460Y666090D02*
X1008540D01*
X1005719Y665334D01*
X1003191Y663874D01*
X1001126Y661809D01*
X999666Y659281D01*
X998910Y656460D01*
Y653540D01*
X999666Y650719D01*
X1001126Y648191D01*
X1003191Y646126D01*
X1005719Y644666D01*
X1008540Y643910D01*
X1011460D01*
X1014281Y644666D01*
X1016809Y646126D01*
X1018874Y648191D01*
X1020334Y650719D01*
X1021090Y653540D01*
Y656460D01*
X1020334Y659281D01*
X1018874Y661809D01*
X1016809Y663874D01*
X1014281Y665334D01*
X1011460Y666090D01*
D02*
G37*
G36*
X1274550Y666850D02*
X1250850D01*
Y643150D01*
X1274550D01*
Y666850D01*
D02*
G37*
G36*
X1097620Y761820D02*
X1072380D01*
Y736580D01*
X1078035D01*
Y725000D01*
X1078273Y723197D01*
X1078969Y721518D01*
X1080075Y720075D01*
X1090075Y710075D01*
X1091518Y708969D01*
X1093197Y708273D01*
X1095000Y708035D01*
X1112115D01*
X1143035Y677115D01*
Y647885D01*
X1137115Y641965D01*
X998285D01*
X992766Y647483D01*
X993474Y648191D01*
X994934Y650719D01*
X995690Y653540D01*
Y656460D01*
X994934Y659281D01*
X993474Y661809D01*
X991409Y663874D01*
X988881Y665334D01*
X986060Y666090D01*
X983140D01*
X980319Y665334D01*
X977791Y663874D01*
X975726Y661809D01*
X974266Y659281D01*
X973510Y656460D01*
Y653540D01*
X974266Y650719D01*
X975726Y648191D01*
X977635Y646281D01*
Y645800D01*
X977873Y643997D01*
X978568Y642318D01*
X979675Y640875D01*
X990475Y630075D01*
X991918Y628969D01*
X993597Y628273D01*
X995400Y628035D01*
X1140000D01*
X1141803Y628273D01*
X1143482Y628969D01*
X1144925Y630075D01*
X1154925Y640075D01*
X1156031Y641518D01*
X1156727Y643197D01*
X1156965Y645000D01*
Y680000D01*
X1156727Y681803D01*
X1156031Y683482D01*
X1154925Y684925D01*
X1119925Y719925D01*
X1118482Y721031D01*
X1116803Y721727D01*
X1115000Y721965D01*
X1097885D01*
X1091965Y727885D01*
Y736580D01*
X1097620D01*
Y761820D01*
D02*
G37*
%LPD*%
D14*
X1335880Y1035000D02*
D03*
Y1085000D02*
D03*
X1134120Y955000D02*
D03*
X1200000Y855000D02*
D03*
X1260000D02*
D03*
X600000Y905880D02*
D03*
X780000D02*
D03*
X735000Y799120D02*
D03*
X975000Y855880D02*
D03*
X1030000Y749120D02*
D03*
X1140000Y748320D02*
D03*
X1085000Y855880D02*
D03*
X690000Y798320D02*
D03*
X645000Y905000D02*
D03*
D15*
X1229200Y1035000D02*
D03*
Y1085000D02*
D03*
X1240800Y955000D02*
D03*
D31*
X1200000Y748320D02*
D03*
X1260000D02*
D03*
X600000Y799200D02*
D03*
X780000D02*
D03*
X735000Y905800D02*
D03*
X975000Y749200D02*
D03*
X1030000Y855800D02*
D03*
X1140000Y855000D02*
D03*
X1085000Y749200D02*
D03*
X690000Y905000D02*
D03*
X645000Y798320D02*
D03*
D33*
X971045Y1054160D02*
X1005695Y1088810D01*
X1191659Y1085000D02*
X1229200D01*
X1184200Y1080000D02*
X1229200Y1035000D01*
X1076885Y1080000D02*
X1184200D01*
X1051045Y1054160D02*
X1076885Y1080000D01*
X1187849Y1088810D02*
X1191659Y1085000D01*
X1005695Y1088810D02*
X1187849D01*
X1051045Y1053745D02*
Y1054160D01*
X1045950Y1048650D02*
X1051045Y1053745D01*
X1107045Y1062555D02*
X1120950Y1048650D01*
X1078290Y1062555D02*
X1107045D01*
X971045Y1053745D02*
Y1054160D01*
X965950Y1048650D02*
X971045Y1053745D01*
X1100000Y905000D02*
X1105000Y910000D01*
X975000Y885000D02*
X995000Y905000D01*
X1100000D01*
X975000Y855880D02*
Y885000D01*
X1105000Y910000D02*
Y960000D01*
X1002300Y985000D02*
X1080000D01*
X1105000Y960000D01*
X985000Y967700D02*
X1002300Y985000D01*
X955000Y972300D02*
X985000Y942300D01*
X901603Y915000D02*
X922380D01*
X924612Y917232D02*
Y942388D01*
X922380Y915000D02*
X924612Y917232D01*
X867403Y880800D02*
X901603Y915000D01*
X909700Y957300D02*
X924612Y942388D01*
X955000Y972300D02*
Y990000D01*
X985000Y942300D02*
X1057300D01*
X984600Y645800D02*
Y655000D01*
X959200D02*
X960000D01*
X950000D02*
X959200D01*
X985000Y967700D02*
X987700Y965000D01*
X1060000D01*
X1057300Y942300D02*
X1060000Y939600D01*
X735000Y729976D02*
Y799120D01*
X727700Y722676D02*
X735000Y729976D01*
X727700Y720000D02*
Y722676D01*
X690000Y732300D02*
Y798320D01*
Y732300D02*
X702300Y720000D01*
X1200000Y748320D02*
X1260000D01*
X1237300Y655000D02*
Y725620D01*
X1260000Y748320D01*
X1030000Y855800D02*
X1030080Y855880D01*
X1085000D01*
X953400Y779200D02*
X1030000Y855800D01*
X910000Y779200D02*
X953400D01*
X1140000Y855000D02*
X1159050Y874050D01*
Y1048650D01*
X985000Y1020000D02*
Y1048035D01*
Y1048450D01*
Y1048035D02*
X998475Y1034560D01*
Y1031525D02*
Y1034560D01*
Y1031525D02*
X1010000Y1020000D01*
X1140000Y1045693D02*
Y1048450D01*
X1134855Y1040548D02*
X1140000Y1045693D01*
X1134855Y1038790D02*
Y1040548D01*
X1116065Y1020000D02*
X1134855Y1038790D01*
X1010000Y1020000D02*
X1116065D01*
X1022700Y1030000D02*
X1066215D01*
X1004050Y1048650D02*
X1022700Y1030000D01*
X1066215D02*
X1084050Y1047835D01*
Y1048650D01*
X1065000Y1048450D02*
Y1049265D01*
X1078290Y1062555D01*
X955000Y990000D02*
X985000Y1020000D01*
X960855Y1043555D02*
X965950Y1048650D01*
X960855Y1033855D02*
Y1043555D01*
X909700Y982700D02*
X960855Y1033855D01*
X842700Y982700D02*
X905000Y1045000D01*
X830300Y982700D02*
X842700D01*
X740000Y1010000D02*
Y1045000D01*
X1085000Y725000D02*
Y749200D01*
Y725000D02*
X1095000Y715000D01*
X1115000D01*
X1150000Y680000D01*
X1030000Y749120D02*
X1055000Y724120D01*
X910000Y695000D02*
Y728400D01*
Y695000D02*
X950000Y655000D01*
X870000Y687500D02*
Y780000D01*
Y687500D02*
X902500Y655000D01*
X870000Y780000D02*
X894600Y804600D01*
X910000D01*
X767300Y720000D02*
X844705Y642595D01*
X890095D01*
X902500Y655000D01*
X1140000Y635000D02*
X1150000Y645000D01*
Y680000D01*
X995400Y635000D02*
X1140000D01*
X984600Y645800D02*
X995400Y635000D01*
X1055000Y700400D02*
Y724120D01*
Y700400D02*
X1100400Y655000D01*
X832530Y880800D02*
X867403D01*
X805255Y944745D02*
X896855D01*
X740000Y1010000D02*
X805255Y944745D01*
X896855D02*
X909700Y931900D01*
D34*
X630000Y975000D02*
Y1045000D01*
X600000Y905880D02*
Y945000D01*
X630000Y975000D01*
X675000Y885000D02*
X690000Y900000D01*
X645000Y905000D02*
X665000Y885000D01*
X675000D01*
X735000Y844200D02*
Y900800D01*
Y844200D02*
X780000Y799200D01*
X785120Y804320D02*
Y810120D01*
X830400Y855400D01*
X832530D01*
X780000Y799200D02*
X785120Y804320D01*
X805080Y880800D02*
X832530D01*
X780000Y905880D02*
X805080Y880800D01*
D35*
X555000Y645000D02*
D03*
Y1100000D02*
D03*
X1400000Y640000D02*
D03*
X1402500Y1102500D02*
D03*
D36*
X910000Y728400D02*
D03*
Y753800D02*
D03*
Y779200D02*
D03*
Y804600D02*
D03*
Y830000D02*
D03*
Y855400D02*
D03*
Y880800D02*
D03*
X832530Y728400D02*
D03*
Y753800D02*
D03*
Y779200D02*
D03*
Y804600D02*
D03*
Y830000D02*
D03*
Y855400D02*
D03*
D37*
Y880800D02*
D03*
D38*
X1060000Y965000D02*
D03*
X1159050Y1048650D02*
D03*
X1140000Y1048450D02*
D03*
X1084050Y1048650D02*
D03*
X1065000Y1048450D02*
D03*
X1004050Y1048650D02*
D03*
X985000Y1048450D02*
D03*
Y942300D02*
D03*
D39*
X1060000Y939600D02*
D03*
X985000Y967700D02*
D03*
D40*
X1120950Y1048650D02*
D03*
X1045950D02*
D03*
X965950D02*
D03*
D41*
X905000Y1070400D02*
D03*
X1237300Y655000D02*
D03*
X792700Y720000D02*
D03*
X727700D02*
D03*
D42*
X905000Y1045000D02*
D03*
D43*
X830000Y1042500D02*
D03*
D44*
Y1067500D02*
D03*
X902500Y655000D02*
D03*
D45*
X714600Y1045000D02*
D03*
X604600D02*
D03*
X1125800Y655000D02*
D03*
X959200D02*
D03*
D46*
X740000Y1045000D02*
D03*
X765400D02*
D03*
X630000D02*
D03*
X655400D02*
D03*
X1100400Y655000D02*
D03*
X1075000D02*
D03*
X984600D02*
D03*
X1010000D02*
D03*
D47*
X1262700D02*
D03*
X767300Y720000D02*
D03*
X702300D02*
D03*
D48*
X830300Y1008100D02*
D03*
D49*
Y982700D02*
D03*
Y957300D02*
D03*
Y931900D02*
D03*
X909700D02*
D03*
Y957300D02*
D03*
Y982700D02*
D03*
Y1008100D02*
D03*
D50*
X877500Y655000D02*
D03*
M02*
