G04*
G04 #@! TF.GenerationSoftware,Altium Limited,Altium Designer,23.7.1 (13)*
G04*
G04 Layer_Color=65535*
%FSLAX44Y44*%
%MOMM*%
G71*
G04*
G04 #@! TF.SameCoordinates,153F72C1-2EA9-491F-B8CB-9A114FCA6393*
G04*
G04*
G04 #@! TF.FilePolarity,Positive*
G04*
G01*
G75*
%ADD10C,0.1524*%
%ADD11C,0.1270*%
%ADD12C,0.2000*%
%ADD13C,0.2540*%
G36*
X1403615Y949156D02*
X1404668D01*
Y948980D01*
X1404844D01*
Y948804D01*
X1405019D01*
Y945819D01*
X1404493D01*
Y948278D01*
X1404317D01*
Y948453D01*
X1403966D01*
Y946346D01*
X1403790D01*
Y945995D01*
X1403615D01*
Y945819D01*
X1402561D01*
Y945643D01*
X1402210D01*
Y945819D01*
X1401859D01*
Y946346D01*
X1401683D01*
Y948629D01*
X1401859D01*
Y949156D01*
X1403263D01*
Y949331D01*
X1403615D01*
Y949156D01*
D02*
G37*
G36*
X1404141Y945117D02*
X1404317D01*
Y944590D01*
X1404141D01*
Y944414D01*
X1402385D01*
Y942483D01*
X1404141D01*
Y941780D01*
X1401683D01*
Y944590D01*
X1401859D01*
Y944941D01*
X1402034D01*
Y945117D01*
X1402385D01*
Y945292D01*
X1404141D01*
Y945117D01*
D02*
G37*
G36*
Y941078D02*
X1404317D01*
Y940551D01*
X1404141D01*
Y940375D01*
X1401859D01*
Y940551D01*
X1401683D01*
Y940726D01*
Y940902D01*
X1401859D01*
Y941253D01*
X1404141D01*
Y941078D01*
D02*
G37*
G36*
X1401332Y940375D02*
X1400805D01*
Y940726D01*
Y940902D01*
Y941253D01*
X1401332D01*
Y940375D01*
D02*
G37*
G36*
X1402385Y938795D02*
X1404141D01*
Y938444D01*
X1404317D01*
Y938268D01*
X1404141D01*
Y937917D01*
X1402034D01*
Y938092D01*
X1401859D01*
Y938444D01*
X1401683D01*
Y940024D01*
X1402385D01*
Y938795D01*
D02*
G37*
G36*
X1404141Y934229D02*
X1403790D01*
Y934053D01*
X1402034D01*
Y934229D01*
X1401859D01*
Y934580D01*
X1401683D01*
Y937039D01*
X1401859D01*
Y937214D01*
X1402034D01*
Y937390D01*
X1402912D01*
Y937214D01*
X1403088D01*
Y936863D01*
X1403263D01*
Y935458D01*
X1403088D01*
Y934931D01*
X1403615D01*
Y937390D01*
X1404141D01*
Y934229D01*
D02*
G37*
G36*
Y930541D02*
X1403966D01*
Y930365D01*
X1403615D01*
Y930190D01*
X1402034D01*
Y930365D01*
X1401859D01*
Y930717D01*
X1401683D01*
Y933175D01*
X1401859D01*
Y933526D01*
X1402912D01*
Y933351D01*
X1403088D01*
Y933000D01*
X1403263D01*
Y931595D01*
X1403088D01*
Y931244D01*
X1403263D01*
Y931068D01*
X1403615D01*
Y933526D01*
X1404141D01*
Y930541D01*
D02*
G37*
G36*
Y929663D02*
X1404317D01*
Y929136D01*
X1404141D01*
Y928961D01*
X1402385D01*
Y927205D01*
X1404141D01*
Y926853D01*
X1404317D01*
Y926678D01*
X1404141D01*
Y926326D01*
X1401683D01*
Y929136D01*
X1401859D01*
Y929663D01*
X1402210D01*
Y929839D01*
X1404141D01*
Y929663D01*
D02*
G37*
G36*
Y925624D02*
X1404317D01*
Y925273D01*
X1404141D01*
Y924922D01*
X1401859D01*
Y925800D01*
X1404141D01*
Y925624D01*
D02*
G37*
G36*
X1401332Y925273D02*
Y925097D01*
Y924922D01*
X1400805D01*
Y925800D01*
X1401332D01*
Y925273D01*
D02*
G37*
G36*
X1404493Y924395D02*
X1404668D01*
Y924219D01*
X1404844D01*
Y924044D01*
X1405019D01*
Y921234D01*
X1404844D01*
Y921058D01*
X1404493D01*
Y923517D01*
X1404317D01*
Y923692D01*
X1403966D01*
Y921585D01*
X1403790D01*
Y921234D01*
X1403615D01*
Y921058D01*
X1401859D01*
Y921585D01*
X1401683D01*
Y923868D01*
X1401859D01*
Y924395D01*
X1402210D01*
Y924570D01*
X1404493D01*
Y924395D01*
D02*
G37*
G36*
X1395185Y948804D02*
X1395361D01*
Y921058D01*
X1395185D01*
Y919653D01*
X1395010D01*
Y918775D01*
X1394834D01*
Y918248D01*
X1394659D01*
Y917897D01*
X1394483D01*
Y917546D01*
X1394307D01*
Y917195D01*
X1394132D01*
Y916844D01*
X1393956D01*
Y916668D01*
X1393780D01*
Y916492D01*
X1393605D01*
Y916141D01*
X1393429D01*
Y915965D01*
X1393078D01*
Y915790D01*
X1392902D01*
Y915614D01*
X1392551D01*
Y915439D01*
X1392200D01*
Y915263D01*
X1391849D01*
Y915088D01*
X1391322D01*
Y914912D01*
X1389917D01*
Y914736D01*
X1376922D01*
Y914912D01*
X1375693D01*
Y915088D01*
X1374990D01*
Y915263D01*
X1374639D01*
Y915439D01*
X1374288D01*
Y915614D01*
X1373937D01*
Y915790D01*
X1373761D01*
Y915965D01*
X1373585D01*
Y916141D01*
X1373410D01*
Y916317D01*
X1373234D01*
Y916492D01*
X1373059D01*
Y916668D01*
X1372883D01*
Y917019D01*
X1372707D01*
Y917195D01*
X1372532D01*
Y917546D01*
X1372356D01*
Y918073D01*
X1372180D01*
Y918424D01*
X1372005D01*
Y919127D01*
X1371829D01*
Y920180D01*
X1371654D01*
Y948804D01*
X1377098D01*
Y921409D01*
X1377273D01*
Y921058D01*
X1377449D01*
Y920707D01*
X1377976D01*
Y920531D01*
X1388863D01*
Y920707D01*
X1389390D01*
Y920883D01*
X1389566D01*
Y921234D01*
X1389741D01*
Y948804D01*
X1389917D01*
Y948980D01*
X1395185D01*
Y948804D01*
D02*
G37*
G36*
X1404141Y920356D02*
X1404317D01*
Y919829D01*
X1404141D01*
Y919653D01*
X1402385D01*
Y917897D01*
X1404141D01*
Y917722D01*
X1404317D01*
Y917370D01*
X1404141D01*
Y917019D01*
X1401683D01*
Y919653D01*
Y919829D01*
Y920005D01*
X1401859D01*
Y920356D01*
X1402034D01*
Y920531D01*
X1404141D01*
Y920356D01*
D02*
G37*
G36*
X1401507Y916492D02*
X1401683D01*
Y915965D01*
X1401507D01*
Y912629D01*
X1401683D01*
Y912453D01*
X1402210D01*
Y916492D01*
X1402912D01*
Y912629D01*
Y912453D01*
X1403439D01*
Y912629D01*
X1403615D01*
Y916492D01*
X1404141D01*
Y911926D01*
X1403966D01*
Y911575D01*
X1401156D01*
Y911926D01*
X1400980D01*
Y916492D01*
X1401332D01*
Y916668D01*
X1401507D01*
Y916492D01*
D02*
G37*
G36*
X1404141Y908590D02*
X1404317D01*
Y908239D01*
X1404141D01*
Y908063D01*
X1402385D01*
Y906131D01*
X1404141D01*
Y905429D01*
X1402034D01*
Y905253D01*
X1401859D01*
Y905429D01*
X1401683D01*
Y907009D01*
Y907185D01*
Y908239D01*
X1401859D01*
Y908590D01*
X1402034D01*
Y908765D01*
X1402385D01*
Y908941D01*
X1404141D01*
Y908590D01*
D02*
G37*
G36*
X1403790Y904726D02*
X1403966D01*
Y904551D01*
X1404141D01*
Y901741D01*
X1403966D01*
Y901566D01*
X1403790D01*
Y901390D01*
X1402034D01*
Y901566D01*
X1401859D01*
Y901917D01*
X1401683D01*
Y904375D01*
X1401859D01*
Y904726D01*
X1402034D01*
Y904902D01*
X1403790D01*
Y904726D01*
D02*
G37*
G36*
X1404141Y900512D02*
X1404317D01*
Y900336D01*
X1404141D01*
Y899985D01*
X1401859D01*
Y900863D01*
X1404141D01*
Y900512D01*
D02*
G37*
G36*
X1401332Y899985D02*
X1400805D01*
Y900336D01*
Y900512D01*
Y900863D01*
X1401332D01*
Y899985D01*
D02*
G37*
G36*
X1402385Y899283D02*
X1404141D01*
Y898405D01*
X1402385D01*
Y898053D01*
X1401683D01*
Y898405D01*
X1400980D01*
Y899283D01*
X1401683D01*
Y899634D01*
X1402034D01*
Y899809D01*
X1402385D01*
Y899283D01*
D02*
G37*
G36*
X1403966Y897527D02*
X1404141D01*
Y896824D01*
X1404317D01*
Y895946D01*
X1404141D01*
Y894541D01*
X1403790D01*
Y894366D01*
X1403088D01*
Y894541D01*
X1402912D01*
Y894892D01*
X1402737D01*
Y896473D01*
X1402912D01*
Y896648D01*
X1402737D01*
Y897000D01*
X1402561D01*
Y896824D01*
X1402385D01*
Y894541D01*
X1401683D01*
Y897175D01*
X1401859D01*
Y897527D01*
X1402034D01*
Y897702D01*
X1403966D01*
Y897527D01*
D02*
G37*
G36*
X1404141Y891205D02*
X1403966D01*
Y891029D01*
X1403790D01*
Y890853D01*
X1402210D01*
Y891029D01*
X1402034D01*
Y891205D01*
X1401859D01*
Y891556D01*
X1401683D01*
Y894014D01*
X1402385D01*
Y892434D01*
Y892258D01*
Y891731D01*
X1403615D01*
Y894014D01*
X1404141D01*
Y891205D01*
D02*
G37*
G36*
Y889975D02*
X1404317D01*
Y889800D01*
X1404141D01*
Y889624D01*
X1401859D01*
Y890502D01*
X1404141D01*
Y889975D01*
D02*
G37*
G36*
X1401332Y889624D02*
X1400805D01*
Y890327D01*
X1400980D01*
Y890502D01*
X1401332D01*
Y889624D01*
D02*
G37*
G36*
X1404141Y888922D02*
X1404317D01*
Y888395D01*
X1404141D01*
Y888219D01*
X1402385D01*
Y886463D01*
X1404141D01*
Y886112D01*
X1404317D01*
Y885936D01*
X1404141D01*
Y885585D01*
X1401683D01*
Y885761D01*
Y885936D01*
Y888570D01*
X1401859D01*
Y888922D01*
X1402210D01*
Y889097D01*
X1404141D01*
Y888922D01*
D02*
G37*
G36*
X1403790Y884883D02*
X1403966D01*
Y884707D01*
X1404141D01*
Y881897D01*
X1403966D01*
Y881722D01*
X1401859D01*
Y882424D01*
X1403439D01*
Y882600D01*
X1403615D01*
Y884180D01*
X1401859D01*
Y885058D01*
X1403790D01*
Y884883D01*
D02*
G37*
G36*
X1377098Y899809D02*
X1395888D01*
Y893839D01*
X1377800D01*
Y880141D01*
X1372356D01*
Y895946D01*
X1372005D01*
Y896122D01*
X1371478D01*
Y896297D01*
X1370951D01*
Y896473D01*
X1370600D01*
Y896824D01*
X1370776D01*
Y897351D01*
X1370951D01*
Y897878D01*
X1371127D01*
Y898053D01*
X1371302D01*
Y898405D01*
X1371478D01*
Y898580D01*
X1371654D01*
Y898931D01*
X1371829D01*
Y899107D01*
X1372005D01*
Y899283D01*
X1372180D01*
Y899458D01*
X1372356D01*
Y899634D01*
X1372532D01*
Y899809D01*
X1372707D01*
Y899985D01*
X1372883D01*
Y900161D01*
X1373059D01*
Y900336D01*
X1373234D01*
Y900512D01*
X1373585D01*
Y900687D01*
X1373761D01*
Y900863D01*
X1374112D01*
Y901039D01*
X1374463D01*
Y901214D01*
X1374815D01*
Y901390D01*
X1375341D01*
Y901566D01*
X1376395D01*
Y901741D01*
X1377098D01*
Y899809D01*
D02*
G37*
G36*
X1404141Y880317D02*
X1402385D01*
Y879263D01*
X1404141D01*
Y878385D01*
X1402385D01*
Y877331D01*
X1404141D01*
Y876629D01*
X1402210D01*
Y876453D01*
X1401859D01*
Y876629D01*
X1401683D01*
Y880492D01*
X1401859D01*
Y881019D01*
X1402034D01*
Y881195D01*
X1404141D01*
Y880317D01*
D02*
G37*
G36*
Y875751D02*
X1404317D01*
Y875400D01*
X1404141D01*
Y875224D01*
X1402385D01*
Y874346D01*
Y874171D01*
X1404141D01*
Y873292D01*
X1402385D01*
Y872239D01*
X1404141D01*
Y872063D01*
X1404317D01*
Y871536D01*
X1404141D01*
Y871361D01*
X1401683D01*
Y875400D01*
X1401859D01*
Y875751D01*
X1402034D01*
Y875927D01*
X1402385D01*
Y876102D01*
X1404141D01*
Y875751D01*
D02*
G37*
G36*
X1403615Y870834D02*
X1403966D01*
Y870658D01*
X1404141D01*
Y867673D01*
X1403966D01*
Y867497D01*
X1402034D01*
Y867673D01*
X1401859D01*
Y868024D01*
X1401683D01*
Y870307D01*
X1401859D01*
Y870658D01*
X1402034D01*
Y870834D01*
X1402385D01*
Y871010D01*
X1403615D01*
Y870834D01*
D02*
G37*
G36*
X1404141Y864161D02*
X1403966D01*
Y863985D01*
X1402034D01*
Y864161D01*
X1401859D01*
Y864512D01*
X1401683D01*
Y866971D01*
X1402385D01*
Y864688D01*
X1403439D01*
Y864863D01*
X1403615D01*
Y865039D01*
Y865214D01*
Y866971D01*
X1404141D01*
Y864161D01*
D02*
G37*
G36*
Y860473D02*
X1403966D01*
Y860297D01*
X1403790D01*
Y860122D01*
X1402034D01*
Y860297D01*
X1401859D01*
Y860649D01*
X1401683D01*
Y863107D01*
X1401859D01*
Y863458D01*
X1402912D01*
Y863283D01*
X1403088D01*
Y862932D01*
X1403263D01*
Y861351D01*
X1403088D01*
Y861176D01*
X1403263D01*
Y861000D01*
X1403615D01*
Y863458D01*
X1404141D01*
Y860473D01*
D02*
G37*
G36*
X1402034Y859595D02*
X1404141D01*
Y859419D01*
X1404317D01*
Y859068D01*
X1404141D01*
Y858893D01*
X1400805D01*
Y859244D01*
Y859419D01*
Y859595D01*
X1400980D01*
Y859771D01*
X1402034D01*
Y859595D01*
D02*
G37*
G36*
X1402737Y858190D02*
X1403088D01*
Y857839D01*
X1403263D01*
Y855907D01*
X1403615D01*
Y858190D01*
X1404141D01*
Y855205D01*
X1403966D01*
Y855029D01*
X1402034D01*
Y855205D01*
X1401859D01*
Y855556D01*
X1401683D01*
Y858015D01*
X1401859D01*
Y858190D01*
X1402034D01*
Y858366D01*
X1402737D01*
Y858190D01*
D02*
G37*
G36*
X1401507Y852922D02*
X1404141D01*
Y852571D01*
X1404317D01*
Y852219D01*
X1404141D01*
Y852044D01*
X1401683D01*
Y851868D01*
X1401507D01*
Y849937D01*
X1400980D01*
Y855029D01*
X1401507D01*
Y852922D01*
D02*
G37*
G36*
X1403790Y847127D02*
X1403966D01*
Y846951D01*
X1404141D01*
Y844141D01*
X1403966D01*
Y843966D01*
X1403790D01*
Y843790D01*
X1402210D01*
Y843966D01*
X1401859D01*
Y844317D01*
X1401683D01*
Y846424D01*
X1400805D01*
Y847302D01*
X1403790D01*
Y847127D01*
D02*
G37*
G36*
X1395185Y875575D02*
X1395361D01*
Y868902D01*
X1395185D01*
Y867673D01*
X1395010D01*
Y866795D01*
X1394834D01*
Y866268D01*
X1394659D01*
Y865917D01*
X1394483D01*
Y865390D01*
X1394307D01*
Y865039D01*
X1394132D01*
Y864688D01*
X1393956D01*
Y864512D01*
X1393780D01*
Y864336D01*
X1393605D01*
Y863985D01*
X1393429D01*
Y863810D01*
X1393254D01*
Y863634D01*
X1393078D01*
Y863458D01*
X1392902D01*
Y863283D01*
X1392727D01*
Y863107D01*
X1392551D01*
Y862932D01*
X1392376D01*
Y862756D01*
X1392200D01*
Y862580D01*
X1392024D01*
Y862405D01*
X1391849D01*
Y862229D01*
X1391497D01*
Y862054D01*
X1391322D01*
Y861878D01*
X1391146D01*
Y861702D01*
X1390971D01*
Y861527D01*
X1390795D01*
Y861351D01*
X1390620D01*
Y861176D01*
X1390444D01*
Y861000D01*
X1390093D01*
Y860824D01*
X1389917D01*
Y860649D01*
X1389741D01*
Y860473D01*
X1389566D01*
Y860297D01*
X1389390D01*
Y860122D01*
X1389215D01*
Y859946D01*
X1388863D01*
Y859771D01*
X1388688D01*
Y859595D01*
X1388512D01*
Y859419D01*
X1388337D01*
Y859244D01*
X1388161D01*
Y859068D01*
X1387810D01*
Y858893D01*
X1387634D01*
Y858717D01*
X1387458D01*
Y858541D01*
X1387283D01*
Y858366D01*
X1387107D01*
Y858190D01*
X1386932D01*
Y858015D01*
X1386581D01*
Y857663D01*
X1386229D01*
Y857488D01*
X1386054D01*
Y857312D01*
X1385878D01*
Y857137D01*
X1385702D01*
Y856961D01*
X1385527D01*
Y856785D01*
X1385351D01*
Y856610D01*
X1385000D01*
Y856434D01*
X1384824D01*
Y856258D01*
X1384649D01*
Y856083D01*
X1384473D01*
Y855907D01*
X1384298D01*
Y855732D01*
X1383946D01*
Y855556D01*
X1383771D01*
Y855380D01*
X1383595D01*
Y855205D01*
X1383419D01*
Y855029D01*
X1383244D01*
Y854854D01*
X1383068D01*
Y854678D01*
X1382893D01*
Y854502D01*
X1382542D01*
Y854327D01*
X1382366D01*
Y854151D01*
X1382190D01*
Y853976D01*
X1382015D01*
Y853800D01*
X1381839D01*
Y853624D01*
X1381488D01*
Y853449D01*
X1381312D01*
Y853273D01*
X1381137D01*
Y853098D01*
X1380961D01*
Y852922D01*
X1380785D01*
Y852746D01*
X1380610D01*
Y852571D01*
X1380434D01*
Y852395D01*
X1380083D01*
Y852219D01*
X1379907D01*
Y852044D01*
X1379732D01*
Y851868D01*
X1379556D01*
Y851693D01*
X1379380D01*
Y851517D01*
X1379029D01*
Y851341D01*
X1378854D01*
Y851166D01*
X1378678D01*
Y850990D01*
X1378503D01*
Y850815D01*
X1378327D01*
Y850639D01*
X1378151D01*
Y850463D01*
X1377976D01*
Y850112D01*
X1377800D01*
Y849937D01*
X1377624D01*
Y849585D01*
X1377449D01*
Y849058D01*
X1377273D01*
Y848532D01*
X1377098D01*
Y847654D01*
X1395185D01*
Y847478D01*
X1395361D01*
Y842034D01*
X1384649D01*
Y841859D01*
X1383595D01*
Y842034D01*
X1383419D01*
Y841859D01*
X1383068D01*
Y842034D01*
X1382717D01*
Y841859D01*
X1381312D01*
Y842034D01*
X1371654D01*
Y849410D01*
X1371829D01*
Y850463D01*
X1372005D01*
Y850990D01*
X1372180D01*
Y851517D01*
X1372356D01*
Y851868D01*
X1372532D01*
Y852219D01*
X1372707D01*
Y852571D01*
X1372883D01*
Y852746D01*
X1373059D01*
Y853098D01*
X1373234D01*
Y853273D01*
X1373410D01*
Y853449D01*
X1373585D01*
Y853800D01*
X1373761D01*
Y853976D01*
X1373937D01*
Y854151D01*
X1374112D01*
Y854327D01*
X1374288D01*
Y854502D01*
X1374463D01*
Y854678D01*
X1374639D01*
Y854854D01*
X1374815D01*
Y855029D01*
X1374990D01*
Y855205D01*
X1375341D01*
Y855556D01*
X1375693D01*
Y855732D01*
X1375868D01*
Y855907D01*
X1376044D01*
Y856083D01*
X1376219D01*
Y856258D01*
X1376395D01*
Y856434D01*
X1376746D01*
Y856610D01*
X1376922D01*
Y856785D01*
X1377098D01*
Y856961D01*
X1377273D01*
Y857137D01*
X1377449D01*
Y857312D01*
X1377624D01*
Y857488D01*
X1377800D01*
Y857663D01*
X1378151D01*
Y857839D01*
X1378327D01*
Y858015D01*
X1378503D01*
Y858190D01*
X1378678D01*
Y858366D01*
X1378854D01*
Y858541D01*
X1379029D01*
Y858717D01*
X1379380D01*
Y859068D01*
X1379732D01*
Y859244D01*
X1379907D01*
Y859419D01*
X1380083D01*
Y859595D01*
X1380259D01*
Y859771D01*
X1380434D01*
Y859946D01*
X1380785D01*
Y860122D01*
X1380961D01*
Y860297D01*
X1381137D01*
Y860473D01*
X1381312D01*
Y860649D01*
X1381488D01*
Y860824D01*
X1381663D01*
Y861000D01*
X1381839D01*
Y861176D01*
X1382190D01*
Y861351D01*
X1382366D01*
Y861527D01*
X1382542D01*
Y861702D01*
X1382717D01*
Y861878D01*
X1382893D01*
Y862054D01*
X1383068D01*
Y862229D01*
X1383419D01*
Y862405D01*
X1383595D01*
Y862580D01*
X1383771D01*
Y862756D01*
X1383946D01*
Y862932D01*
X1384122D01*
Y863107D01*
X1384298D01*
Y863283D01*
X1384473D01*
Y863458D01*
X1384824D01*
Y863634D01*
X1385000D01*
Y863810D01*
X1385176D01*
Y863985D01*
X1385351D01*
Y864161D01*
X1385527D01*
Y864336D01*
X1385702D01*
Y864512D01*
X1386054D01*
Y864688D01*
X1386229D01*
Y864863D01*
X1386405D01*
Y865039D01*
X1386581D01*
Y865214D01*
X1386756D01*
Y865390D01*
X1386932D01*
Y865566D01*
X1387107D01*
Y865741D01*
X1387458D01*
Y866093D01*
X1387810D01*
Y866268D01*
X1387985D01*
Y866444D01*
X1388161D01*
Y866619D01*
X1388337D01*
Y866795D01*
X1388512D01*
Y866971D01*
X1388688D01*
Y867146D01*
X1388863D01*
Y867322D01*
X1389039D01*
Y867673D01*
X1389215D01*
Y867849D01*
X1389390D01*
Y868200D01*
X1389566D01*
Y868727D01*
X1389741D01*
Y870132D01*
X1371654D01*
Y875751D01*
X1395185D01*
Y875575D01*
D02*
G37*
G36*
X1404141Y842912D02*
X1404317D01*
Y842561D01*
X1404141D01*
Y842385D01*
X1402385D01*
Y840629D01*
X1404141D01*
Y840454D01*
X1404317D01*
Y839927D01*
X1404141D01*
Y839751D01*
X1401683D01*
Y842737D01*
X1401859D01*
Y843088D01*
X1402210D01*
Y843263D01*
X1404141D01*
Y842912D01*
D02*
G37*
G36*
X1403615Y839224D02*
X1403966D01*
Y839049D01*
X1404141D01*
Y838522D01*
X1404317D01*
Y837644D01*
X1404141D01*
Y836239D01*
X1403966D01*
Y836063D01*
X1402912D01*
Y836415D01*
X1402737D01*
Y838522D01*
X1402385D01*
Y836063D01*
X1401683D01*
Y838873D01*
X1401859D01*
Y839049D01*
X1402034D01*
Y839224D01*
X1402385D01*
Y839400D01*
X1403615D01*
Y839224D01*
D02*
G37*
G36*
X1404141Y830620D02*
X1403966D01*
Y830444D01*
X1403615D01*
Y830268D01*
X1402210D01*
Y830444D01*
X1402034D01*
Y830620D01*
X1401859D01*
Y830971D01*
X1401683D01*
Y833429D01*
X1402385D01*
Y831146D01*
X1403439D01*
Y831322D01*
X1403615D01*
Y833429D01*
X1404141D01*
Y830620D01*
D02*
G37*
G36*
Y829390D02*
X1404317D01*
Y829215D01*
X1404141D01*
Y829039D01*
X1401859D01*
Y829741D01*
X1404141D01*
Y829390D01*
D02*
G37*
G36*
X1401156Y829741D02*
X1401332D01*
Y829390D01*
Y829215D01*
Y829039D01*
X1401156D01*
Y828863D01*
X1400980D01*
Y829039D01*
X1400805D01*
Y829741D01*
X1400980D01*
Y829917D01*
X1401156D01*
Y829741D01*
D02*
G37*
G36*
X1404141Y828161D02*
X1404317D01*
Y827810D01*
X1404141D01*
Y827634D01*
X1402385D01*
Y825702D01*
X1403263D01*
Y825878D01*
X1404141D01*
Y825527D01*
X1404317D01*
Y825000D01*
X1402210D01*
Y824824D01*
X1401683D01*
Y827810D01*
X1401859D01*
Y828161D01*
X1402034D01*
Y828337D01*
X1402385D01*
Y828512D01*
X1404141D01*
Y828161D01*
D02*
G37*
G36*
X1403966Y824298D02*
X1404141D01*
Y821312D01*
X1403966D01*
Y821137D01*
X1403790D01*
Y820961D01*
X1402210D01*
Y821137D01*
X1401859D01*
Y821663D01*
X1401683D01*
Y823946D01*
X1401859D01*
Y824298D01*
X1402034D01*
Y824473D01*
X1403966D01*
Y824298D01*
D02*
G37*
G36*
X1402385Y819380D02*
X1402561D01*
Y819205D01*
X1403088D01*
Y819380D01*
X1404141D01*
Y819029D01*
X1404317D01*
Y818678D01*
X1404141D01*
Y818503D01*
X1402034D01*
Y818678D01*
X1401859D01*
Y819029D01*
X1401683D01*
Y820610D01*
X1402385D01*
Y819380D01*
D02*
G37*
G36*
Y817624D02*
X1404141D01*
Y817098D01*
X1404317D01*
Y816922D01*
X1404141D01*
Y816746D01*
X1403263D01*
Y816922D01*
X1402561D01*
Y816746D01*
X1402385D01*
Y816395D01*
X1401683D01*
Y816922D01*
X1401507D01*
Y816746D01*
X1401332D01*
Y816922D01*
X1400980D01*
Y817624D01*
X1401683D01*
Y818151D01*
X1402385D01*
Y817624D01*
D02*
G37*
G36*
X1404141Y814639D02*
Y814463D01*
Y813234D01*
X1403790D01*
Y813059D01*
X1402034D01*
Y813234D01*
X1401859D01*
Y813585D01*
X1401683D01*
Y816044D01*
X1401859D01*
Y816220D01*
X1402210D01*
Y816044D01*
X1402385D01*
Y813937D01*
X1403615D01*
Y816220D01*
X1404141D01*
Y814639D01*
D02*
G37*
G36*
X1385000Y809898D02*
X1381137D01*
Y812356D01*
Y812532D01*
Y825000D01*
X1385000D01*
Y809898D01*
D02*
G37*
G36*
X1402561Y812532D02*
X1403088D01*
Y812005D01*
X1403263D01*
Y810424D01*
X1403088D01*
Y810249D01*
X1403615D01*
Y812532D01*
X1404141D01*
Y812180D01*
X1404317D01*
Y811829D01*
X1404141D01*
Y809546D01*
X1403966D01*
Y809371D01*
X1402034D01*
Y809546D01*
X1401859D01*
Y809898D01*
X1401683D01*
Y812356D01*
X1401859D01*
Y812532D01*
X1402210D01*
Y812707D01*
X1402561D01*
Y812532D01*
D02*
G37*
G36*
X1404141Y808493D02*
X1404317D01*
Y808141D01*
X1404141D01*
Y807966D01*
X1400805D01*
Y808844D01*
X1404141D01*
Y808493D01*
D02*
G37*
G36*
X1394834Y807439D02*
X1394659D01*
Y806561D01*
X1394483D01*
Y805859D01*
X1394307D01*
Y805332D01*
X1394132D01*
Y804981D01*
X1393956D01*
Y804629D01*
X1393780D01*
Y804278D01*
X1393605D01*
Y804102D01*
X1393429D01*
Y803927D01*
X1393254D01*
Y803751D01*
X1393078D01*
Y803576D01*
X1392902D01*
Y803400D01*
X1392727D01*
Y803224D01*
X1392551D01*
Y803049D01*
X1392200D01*
Y802873D01*
X1392024D01*
Y802698D01*
X1391497D01*
Y802522D01*
X1390971D01*
Y802346D01*
X1390444D01*
Y802171D01*
X1375693D01*
Y802346D01*
X1374990D01*
Y802522D01*
X1374463D01*
Y802698D01*
X1374112D01*
Y802873D01*
X1373761D01*
Y803049D01*
X1373585D01*
Y803224D01*
X1373234D01*
Y803400D01*
X1373059D01*
Y803576D01*
X1372883D01*
Y803751D01*
X1372707D01*
Y803927D01*
X1372532D01*
Y804278D01*
X1372356D01*
Y804629D01*
X1372180D01*
Y804805D01*
X1372005D01*
Y805156D01*
X1371829D01*
Y805683D01*
X1371654D01*
Y806210D01*
X1371478D01*
Y806912D01*
X1371302D01*
Y808844D01*
X1371127D01*
Y836063D01*
X1371302D01*
Y836239D01*
X1376746D01*
Y808668D01*
X1376922D01*
Y808317D01*
X1377098D01*
Y808141D01*
X1377449D01*
Y807966D01*
X1388688D01*
Y808141D01*
X1389039D01*
Y808317D01*
X1389215D01*
Y808668D01*
X1389390D01*
Y836239D01*
X1394834D01*
Y807439D01*
D02*
G37*
G36*
X1404141Y802873D02*
X1403966D01*
Y802698D01*
X1403790D01*
Y802522D01*
X1401332D01*
Y802698D01*
X1401156D01*
Y802873D01*
X1400980D01*
Y807615D01*
X1401507D01*
Y803576D01*
X1401683D01*
Y803400D01*
X1402210D01*
Y807439D01*
X1402912D01*
Y803400D01*
X1403439D01*
Y803576D01*
X1403615D01*
Y806737D01*
Y806912D01*
Y807615D01*
X1404141D01*
Y802873D01*
D02*
G37*
%LPC*%
G36*
X1403088Y948453D02*
X1402385D01*
Y946522D01*
X1403088D01*
Y946697D01*
X1403263D01*
Y948278D01*
X1403088D01*
Y948453D01*
D02*
G37*
G36*
X1402737Y936512D02*
X1402385D01*
Y934931D01*
X1402737D01*
Y936512D01*
D02*
G37*
G36*
Y932648D02*
X1402385D01*
Y931068D01*
X1402737D01*
Y932648D01*
D02*
G37*
G36*
X1403088Y923692D02*
X1402385D01*
Y921761D01*
X1403088D01*
Y921936D01*
X1403263D01*
Y923517D01*
X1403088D01*
Y923692D01*
D02*
G37*
G36*
X1403615Y904024D02*
X1402385D01*
Y902268D01*
X1403615D01*
Y904024D01*
D02*
G37*
G36*
Y896824D02*
X1403088D01*
Y895419D01*
X1403263D01*
Y895244D01*
X1403615D01*
Y896824D01*
D02*
G37*
G36*
Y870132D02*
X1402385D01*
Y868200D01*
X1403439D01*
Y868375D01*
X1403615D01*
Y870132D01*
D02*
G37*
G36*
X1402737Y862580D02*
X1402385D01*
Y861000D01*
X1402737D01*
Y861176D01*
X1402912D01*
Y862405D01*
X1402737D01*
Y862580D01*
D02*
G37*
G36*
Y857488D02*
X1402385D01*
Y855907D01*
X1402737D01*
Y856785D01*
X1402912D01*
Y857312D01*
X1402737D01*
Y857488D01*
D02*
G37*
G36*
X1403615Y846424D02*
X1402385D01*
Y844668D01*
X1403615D01*
Y846424D01*
D02*
G37*
G36*
X1403439Y838522D02*
X1403263D01*
Y838346D01*
X1403088D01*
Y836941D01*
X1403615D01*
Y838346D01*
X1403439D01*
Y838522D01*
D02*
G37*
G36*
X1403615Y823595D02*
X1402385D01*
Y821839D01*
X1403615D01*
Y823595D01*
D02*
G37*
G36*
X1402737Y811829D02*
X1402385D01*
Y810073D01*
X1402737D01*
Y810424D01*
X1402912D01*
Y810600D01*
X1402737D01*
Y810776D01*
X1402912D01*
Y811478D01*
X1402737D01*
Y811829D01*
D02*
G37*
%LPD*%
D10*
X867582Y904676D02*
G03*
X873678Y904676I3048J0D01*
G01*
X1206340Y1017728D02*
Y1026364D01*
Y1043636D01*
X1357470Y1017728D02*
Y1052272D01*
X1206340Y1017728D02*
X1357470Y1017728D01*
X1206340Y1043636D02*
Y1052272D01*
Y1052272D02*
X1357470Y1052272D01*
X1206340Y1067728D02*
Y1076364D01*
Y1093636D01*
X1357470Y1067728D02*
Y1102272D01*
X1206340Y1067728D02*
X1357470Y1067728D01*
X1206340Y1093636D02*
Y1102272D01*
Y1102272D02*
X1357470Y1102272D01*
X818560Y704524D02*
X923970D01*
X818560D02*
Y731956D01*
Y904676D02*
X867582D01*
X818560Y731956D02*
Y904676D01*
X923970Y704524D02*
Y733226D01*
X873678Y904676D02*
X923970D01*
Y733226D02*
Y904676D01*
X867582D02*
X873678D01*
X1112530Y937728D02*
X1263660Y937728D01*
Y937728D02*
Y946364D01*
X1112530Y972272D02*
X1263660Y972272D01*
X1112530Y937728D02*
Y972272D01*
X1263660Y946364D02*
Y963636D01*
Y972272D01*
X1182728Y876590D02*
X1182728Y725460D01*
X1182728D02*
X1191364D01*
X1217272Y876590D02*
X1217272Y725460D01*
X1182728Y876590D02*
X1217272D01*
X1191364Y725460D02*
X1208636D01*
X1217272D01*
X1242728Y876590D02*
X1242728Y725460D01*
X1242728D02*
X1251364D01*
X1277272Y876590D02*
X1277272Y725460D01*
X1242728Y876590D02*
X1277272D01*
X1251364Y725460D02*
X1268636D01*
X1277272D01*
X582728Y927470D02*
X582728Y776340D01*
X582728D02*
X591364D01*
X617272Y927470D02*
X617272Y776340D01*
X582728Y927470D02*
X617272D01*
X591364Y776340D02*
X608636D01*
X617272D01*
X762728Y927470D02*
X762728Y776340D01*
X762728D02*
X771364D01*
X797272Y927470D02*
X797272Y776340D01*
X762728Y927470D02*
X797272D01*
X771364Y776340D02*
X788636D01*
X797272D01*
X752272Y928660D02*
X752272Y777530D01*
X743636Y928660D02*
X752272D01*
X717728D02*
X717728Y777530D01*
X752272D01*
X726364Y928660D02*
X743636D01*
X717728D02*
X726364D01*
X957728Y877470D02*
X957728Y726340D01*
X957728D02*
X966364D01*
X992272Y877470D02*
X992272Y726340D01*
X957728Y877470D02*
X992272D01*
X966364Y726340D02*
X983636D01*
X992272D01*
X1047272Y878660D02*
X1047272Y727530D01*
X1038636Y878660D02*
X1047272D01*
X1012728D02*
X1012728Y727530D01*
X1047272D01*
X1021364Y878660D02*
X1038636D01*
X1012728D02*
X1021364D01*
X1157272Y877860D02*
X1157272Y726730D01*
X1148636Y877860D02*
X1157272D01*
X1122728D02*
X1122728Y726730D01*
X1157272D01*
X1131364Y877860D02*
X1148636D01*
X1122728D02*
X1131364D01*
X1067728Y877470D02*
X1067728Y726340D01*
X1067728D02*
X1076364D01*
X1102272Y877470D02*
X1102272Y726340D01*
X1067728Y877470D02*
X1102272D01*
X1076364Y726340D02*
X1093636D01*
X1102272D01*
X707272Y927860D02*
X707272Y776730D01*
X698636Y927860D02*
X707272D01*
X672728D02*
X672728Y776730D01*
X707272D01*
X681364Y927860D02*
X698636D01*
X672728D02*
X681364D01*
X627728Y926590D02*
X627728Y775460D01*
X627728D02*
X636364D01*
X662272Y926590D02*
X662272Y775460D01*
X627728Y926590D02*
X662272D01*
X636364Y775460D02*
X653636D01*
X662272D01*
D11*
X1089500Y952300D02*
G03*
X1089500Y952300I-29500J0D01*
G01*
X1161988Y1063890D02*
G03*
X1118410Y1063890I-21789J-8803D01*
G01*
X1086988D02*
G03*
X1043410Y1063890I-21789J-8803D01*
G01*
X1006988D02*
G03*
X963410Y1063890I-21789J-8803D01*
G01*
X855000Y1055000D02*
G03*
X855000Y1055000I-25000J0D01*
G01*
X915000Y655000D02*
G03*
X915000Y655000I-25000J0D01*
G01*
X1014500Y955000D02*
G03*
X1014500Y955000I-29500J0D01*
G01*
X1120765Y1036500D02*
X1159235D01*
X1120765D02*
X1159235D01*
X1045765D02*
X1084235D01*
X1045765D02*
X1084235D01*
X965765D02*
X1004235D01*
X965765D02*
X1004235D01*
X879600Y1032300D02*
Y1083100D01*
X936800Y1032300D02*
Y1083100D01*
X879600Y1032300D02*
X936800D01*
X879600Y1083100D02*
X936800D01*
X692350Y1069200D02*
X787650D01*
Y1020900D02*
Y1069200D01*
X692350Y1020900D02*
Y1069200D01*
Y1020900D02*
X787650D01*
X582350Y1069200D02*
X677650D01*
Y1020900D02*
Y1069200D01*
X582350Y1020900D02*
Y1069200D01*
Y1020900D02*
X677650D01*
X1224600Y629600D02*
X1275400D01*
X1224600Y686800D02*
X1275400D01*
Y629600D02*
Y686800D01*
X1224600Y629600D02*
Y686800D01*
X1052750Y630800D02*
X1148050D01*
X1052750D02*
Y679100D01*
X1148050Y630800D02*
Y679100D01*
X1052750D02*
X1148050D01*
X754600Y745400D02*
X805400D01*
X754600Y688200D02*
X805400D01*
X754600D02*
Y745400D01*
X805400Y688200D02*
Y745400D01*
X689600D02*
X740400D01*
X689600Y688200D02*
X740400D01*
X689600D02*
Y745400D01*
X740400Y688200D02*
Y745400D01*
X838250Y1017950D02*
X901750D01*
X838250Y922050D02*
X901750D01*
X936950Y679200D02*
X1032250D01*
Y630900D02*
Y679200D01*
X936950Y630900D02*
Y679200D01*
Y630900D02*
X1032250D01*
D12*
X1099000Y1048450D02*
G03*
X1099000Y1048450I-1000J0D01*
G01*
X1024000D02*
G03*
X1024000Y1048450I-1000J0D01*
G01*
X944000D02*
G03*
X944000Y1048450I-1000J0D01*
G01*
X906000Y1025800D02*
G03*
X906000Y1025800I-1000J0D01*
G01*
X831000Y1022500D02*
G03*
X831000Y1022500I-1000J0D01*
G01*
X688500Y1045000D02*
G03*
X688500Y1045000I-1000J0D01*
G01*
X578500D02*
G03*
X578500Y1045000I-1000J0D01*
G01*
X1282900Y655000D02*
G03*
X1282900Y655000I-1000J0D01*
G01*
X1153900D02*
G03*
X1153900Y655000I-1000J0D01*
G01*
X749100Y720000D02*
G03*
X749100Y720000I-1000J0D01*
G01*
X684100D02*
G03*
X684100Y720000I-1000J0D01*
G01*
X820650Y1008100D02*
G03*
X820650Y1008100I-1000J0D01*
G01*
X933100Y655000D02*
G03*
X933100Y655000I-1000J0D01*
G01*
X858500D02*
G03*
X858500Y655000I-1000J0D01*
G01*
D13*
X1225956Y1107383D02*
Y1122617D01*
X1233574D01*
X1236113Y1120078D01*
Y1115000D01*
X1233574Y1112461D01*
X1225956D01*
X1231034D02*
X1236113Y1107383D01*
X1241191D02*
X1246270D01*
X1243730D01*
Y1122617D01*
X1241191Y1120078D01*
X1261505Y1107383D02*
Y1122617D01*
X1253887Y1115000D01*
X1264044D01*
X1255956Y992383D02*
Y1007617D01*
X1263574D01*
X1266113Y1005078D01*
Y1000000D01*
X1263574Y997461D01*
X1255956D01*
X1261034D02*
X1266113Y992383D01*
X1271191D02*
X1276270D01*
X1273730D01*
Y1007617D01*
X1271191Y1005078D01*
X1283887D02*
X1286426Y1007617D01*
X1291505D01*
X1294044Y1005078D01*
Y1002539D01*
X1291505Y1000000D01*
X1288965D01*
X1291505D01*
X1294044Y997461D01*
Y994922D01*
X1291505Y992383D01*
X1286426D01*
X1283887Y994922D01*
X1177618Y675313D02*
X1167461D01*
X1162383Y670235D01*
X1167461Y665157D01*
X1177618D01*
X1162383Y660078D02*
X1177618D01*
Y652461D01*
X1175078Y649922D01*
X1170000D01*
X1167461Y652461D01*
Y660078D01*
Y655000D02*
X1162383Y649922D01*
Y637226D02*
X1177618D01*
X1170000Y644843D01*
Y634687D01*
X938887Y702617D02*
Y692461D01*
X943965Y687383D01*
X949043Y692461D01*
Y702617D01*
X954122Y687383D02*
Y702617D01*
X961739D01*
X964278Y700078D01*
Y695000D01*
X961739Y692461D01*
X954122D01*
X959200D02*
X964278Y687383D01*
X969357Y700078D02*
X971896Y702617D01*
X976974D01*
X979513Y700078D01*
Y697539D01*
X976974Y695000D01*
X974435D01*
X976974D01*
X979513Y692461D01*
Y689922D01*
X976974Y687383D01*
X971896D01*
X969357Y689922D01*
X719687Y1107617D02*
Y1097461D01*
X724765Y1092383D01*
X729843Y1097461D01*
Y1107617D01*
X734922Y1092383D02*
Y1107617D01*
X742539D01*
X745078Y1105078D01*
Y1100000D01*
X742539Y1097461D01*
X734922D01*
X740000D02*
X745078Y1092383D01*
X760313D02*
X750157D01*
X760313Y1102539D01*
Y1105078D01*
X757774Y1107617D01*
X752696D01*
X750157Y1105078D01*
X607226Y1107617D02*
Y1097461D01*
X612304Y1092383D01*
X617383Y1097461D01*
Y1107617D01*
X622461Y1092383D02*
Y1107617D01*
X630078D01*
X632618Y1105078D01*
Y1100000D01*
X630078Y1097461D01*
X622461D01*
X627539D02*
X632618Y1092383D01*
X637696D02*
X642774D01*
X640235D01*
Y1107617D01*
X637696Y1105078D01*
X859803Y841118D02*
Y830921D01*
X861843Y828882D01*
X865921D01*
X867961Y830921D01*
Y841118D01*
X880197Y828882D02*
X872039D01*
X880197Y837039D01*
Y839079D01*
X878157Y841118D01*
X874079D01*
X872039Y839079D01*
X799843Y1002617D02*
Y989922D01*
X802383Y987383D01*
X807461D01*
X810000Y989922D01*
Y1002617D01*
X815078Y987383D02*
X820157D01*
X817618D01*
Y1002617D01*
X815078Y1000078D01*
X1147617Y785956D02*
X1132383D01*
Y793574D01*
X1134922Y796113D01*
X1140000D01*
X1142539Y793574D01*
Y785956D01*
Y791034D02*
X1147617Y796113D01*
Y801191D02*
Y806270D01*
Y803730D01*
X1132383D01*
X1134922Y801191D01*
X1147617Y824044D02*
Y813887D01*
X1137461Y824044D01*
X1134922D01*
X1132383Y821505D01*
Y816426D01*
X1134922Y813887D01*
X1183495Y887383D02*
Y902617D01*
X1191113D01*
X1193652Y900078D01*
Y895000D01*
X1191113Y892461D01*
X1183495D01*
X1188574D02*
X1193652Y887383D01*
X1198730D02*
X1203809D01*
X1201270D01*
Y902617D01*
X1198730Y900078D01*
X1211426Y887383D02*
X1216505D01*
X1213966D01*
Y902617D01*
X1211426Y900078D01*
X1175956Y982383D02*
Y997617D01*
X1183574D01*
X1186113Y995078D01*
Y990000D01*
X1183574Y987461D01*
X1175956D01*
X1181034D02*
X1186113Y982383D01*
X1191191D02*
X1196270D01*
X1193730D01*
Y997617D01*
X1191191Y995078D01*
X1203887D02*
X1206426Y997617D01*
X1211505D01*
X1214044Y995078D01*
Y984922D01*
X1211505Y982383D01*
X1206426D01*
X1203887Y984922D01*
Y995078D01*
X1017304Y792383D02*
Y807617D01*
X1024922D01*
X1027461Y805078D01*
Y800000D01*
X1024922Y797461D01*
X1017304D01*
X1022383D02*
X1027461Y792383D01*
X1032539Y794922D02*
X1035078Y792383D01*
X1040157D01*
X1042696Y794922D01*
Y805078D01*
X1040157Y807617D01*
X1035078D01*
X1032539Y805078D01*
Y802539D01*
X1035078Y800000D01*
X1042696D01*
X757304Y937383D02*
Y952617D01*
X764922D01*
X767461Y950078D01*
Y945000D01*
X764922Y942461D01*
X757304D01*
X762383D02*
X767461Y937383D01*
X772539Y950078D02*
X775078Y952617D01*
X780157D01*
X782696Y950078D01*
Y947539D01*
X780157Y945000D01*
X782696Y942461D01*
Y939922D01*
X780157Y937383D01*
X775078D01*
X772539Y939922D01*
Y942461D01*
X775078Y945000D01*
X772539Y947539D01*
Y950078D01*
X775078Y945000D02*
X780157D01*
X1072304Y792383D02*
Y807617D01*
X1079922D01*
X1082461Y805078D01*
Y800000D01*
X1079922Y797461D01*
X1072304D01*
X1077383D02*
X1082461Y792383D01*
X1087539Y807617D02*
X1097696D01*
Y805078D01*
X1087539Y794922D01*
Y792383D01*
X1247304Y887383D02*
Y902617D01*
X1254922D01*
X1257461Y900078D01*
Y895000D01*
X1254922Y892461D01*
X1247304D01*
X1252383D02*
X1257461Y887383D01*
X1272696Y902617D02*
X1267617Y900078D01*
X1262539Y895000D01*
Y889922D01*
X1265078Y887383D01*
X1270157D01*
X1272696Y889922D01*
Y892461D01*
X1270157Y895000D01*
X1262539D01*
X717304Y937383D02*
Y952617D01*
X724922D01*
X727461Y950078D01*
Y945000D01*
X724922Y942461D01*
X717304D01*
X722383D02*
X727461Y937383D01*
X742696Y952617D02*
X732539D01*
Y945000D01*
X737617Y947539D01*
X740157D01*
X742696Y945000D01*
Y939922D01*
X740157Y937383D01*
X735078D01*
X732539Y939922D01*
X677304Y937383D02*
Y952617D01*
X684922D01*
X687461Y950078D01*
Y945000D01*
X684922Y942461D01*
X677304D01*
X682383D02*
X687461Y937383D01*
X700157D02*
Y952617D01*
X692539Y945000D01*
X702696D01*
X932304Y887383D02*
Y902617D01*
X939922D01*
X942461Y900078D01*
Y895000D01*
X939922Y892461D01*
X932304D01*
X937383D02*
X942461Y887383D01*
X947539Y900078D02*
X950078Y902617D01*
X955157D01*
X957696Y900078D01*
Y897539D01*
X955157Y895000D01*
X952617D01*
X955157D01*
X957696Y892461D01*
Y889922D01*
X955157Y887383D01*
X950078D01*
X947539Y889922D01*
X632304Y937383D02*
Y952617D01*
X639922D01*
X642461Y950078D01*
Y945000D01*
X639922Y942461D01*
X632304D01*
X637383D02*
X642461Y937383D01*
X657696D02*
X647539D01*
X657696Y947539D01*
Y950078D01*
X655157Y952617D01*
X650078D01*
X647539Y950078D01*
X564843Y937383D02*
Y952617D01*
X572461D01*
X575000Y950078D01*
Y945000D01*
X572461Y942461D01*
X564843D01*
X569922D02*
X575000Y937383D01*
X580078D02*
X585157D01*
X582618D01*
Y952617D01*
X580078Y950078D01*
X1137461Y1094922D02*
Y1105078D01*
X1134922Y1107617D01*
X1129843D01*
X1127304Y1105078D01*
Y1094922D01*
X1129843Y1092383D01*
X1134922D01*
X1132383Y1097461D02*
X1137461Y1092383D01*
X1134922D02*
X1137461Y1094922D01*
X1142539Y1105078D02*
X1145078Y1107617D01*
X1150157D01*
X1152696Y1105078D01*
Y1102539D01*
X1150157Y1100000D01*
X1147617D01*
X1150157D01*
X1152696Y1097461D01*
Y1094922D01*
X1150157Y1092383D01*
X1145078D01*
X1142539Y1094922D01*
X1057461D02*
Y1105078D01*
X1054922Y1107617D01*
X1049843D01*
X1047304Y1105078D01*
Y1094922D01*
X1049843Y1092383D01*
X1054922D01*
X1052383Y1097461D02*
X1057461Y1092383D01*
X1054922D02*
X1057461Y1094922D01*
X1072696Y1092383D02*
X1062539D01*
X1072696Y1102539D01*
Y1105078D01*
X1070157Y1107617D01*
X1065078D01*
X1062539Y1105078D01*
X975000Y1094922D02*
Y1105078D01*
X972461Y1107617D01*
X967383D01*
X964843Y1105078D01*
Y1094922D01*
X967383Y1092383D01*
X972461D01*
X969922Y1097461D02*
X975000Y1092383D01*
X972461D02*
X975000Y1094922D01*
X980078Y1092383D02*
X985157D01*
X982618D01*
Y1107617D01*
X980078Y1105078D01*
X1262461Y707617D02*
X1257383D01*
X1259922D01*
Y694922D01*
X1257383Y692383D01*
X1254843D01*
X1252304Y694922D01*
X1275157Y692383D02*
Y707617D01*
X1267539Y700000D01*
X1277696D01*
X777461Y677617D02*
X772383D01*
X774922D01*
Y664922D01*
X772383Y662383D01*
X769843D01*
X767304Y664922D01*
X782539Y675078D02*
X785078Y677617D01*
X790157D01*
X792696Y675078D01*
Y672539D01*
X790157Y670000D01*
X787617D01*
X790157D01*
X792696Y667461D01*
Y664922D01*
X790157Y662383D01*
X785078D01*
X782539Y664922D01*
X867461Y1107617D02*
X862383D01*
X864922D01*
Y1094922D01*
X862383Y1092383D01*
X859843D01*
X857304Y1094922D01*
X882696Y1092383D02*
X872539D01*
X882696Y1102539D01*
Y1105078D01*
X880157Y1107617D01*
X875078D01*
X872539Y1105078D01*
X715000Y677617D02*
X709922D01*
X712461D01*
Y664922D01*
X709922Y662383D01*
X707383D01*
X704843Y664922D01*
X720078Y662383D02*
X725157D01*
X722618D01*
Y677617D01*
X720078Y675078D01*
X1002304Y1012617D02*
Y997383D01*
X1009922D01*
X1012461Y999922D01*
Y1010078D01*
X1009922Y1012617D01*
X1002304D01*
X1027696Y997383D02*
X1017539D01*
X1027696Y1007539D01*
Y1010078D01*
X1025157Y1012617D01*
X1020078D01*
X1017539Y1010078D01*
X939843Y927617D02*
Y912383D01*
X947461D01*
X950000Y914922D01*
Y925078D01*
X947461Y927617D01*
X939843D01*
X955078Y912383D02*
X960157D01*
X957618D01*
Y927617D01*
X955078Y925078D01*
X842461Y685078D02*
X839922Y687617D01*
X834843D01*
X832304Y685078D01*
Y674922D01*
X834843Y672383D01*
X839922D01*
X842461Y674922D01*
X857696Y672383D02*
X847539D01*
X857696Y682539D01*
Y685078D01*
X855157Y687617D01*
X850078D01*
X847539Y685078D01*
X805000Y1105078D02*
X802461Y1107617D01*
X797383D01*
X794843Y1105078D01*
Y1094922D01*
X797383Y1092383D01*
X802461D01*
X805000Y1094922D01*
X810078Y1092383D02*
X815157D01*
X812618D01*
Y1107617D01*
X810078Y1105078D01*
M02*
