G04*
G04 #@! TF.GenerationSoftware,Altium Limited,Altium Designer,23.7.1 (13)*
G04*
G04 Layer_Physical_Order=2*
G04 Layer_Color=16711680*
%FSLAX44Y44*%
%MOMM*%
G71*
G04*
G04 #@! TF.SameCoordinates,153F72C1-2EA9-491F-B8CB-9A114FCA6393*
G04*
G04*
G04 #@! TF.FilePolarity,Positive*
G04*
G01*
G75*
%ADD14C,1.5240*%
%ADD15R,1.5240X1.5240*%
%ADD31R,1.5240X1.5240*%
%ADD33C,0.3810*%
%ADD35C,3.5000*%
%ADD36C,1.6764*%
%ADD37R,1.6764X1.6764*%
%ADD38C,1.4000*%
%ADD39R,1.4000X1.4000*%
%ADD40R,1.4000X1.4000*%
%ADD41C,1.3700*%
%ADD42R,1.3700X1.3700*%
%ADD43R,1.1000X1.1000*%
%ADD44C,1.1000*%
%ADD45R,1.2180X1.2180*%
%ADD46C,1.2180*%
%ADD47R,1.3700X1.3700*%
%ADD48R,1.1300X1.1300*%
%ADD49C,1.1300*%
%ADD50R,1.1000X1.1000*%
G36*
X1379960Y1098026D02*
X1380000Y1097825D01*
Y650511D01*
X1378365Y646563D01*
X1377500Y642216D01*
Y637784D01*
X1378365Y633437D01*
X1380000Y629489D01*
Y620000D01*
X580000D01*
Y1100000D01*
X1379960D01*
Y1098026D01*
D02*
G37*
%LPC*%
G36*
X1337542Y1097620D02*
X1334218D01*
X1331009Y1096760D01*
X1328131Y1095098D01*
X1325782Y1092749D01*
X1324120Y1089871D01*
X1323260Y1086662D01*
Y1083338D01*
X1324120Y1080129D01*
X1325782Y1077251D01*
X1328131Y1074902D01*
X1331009Y1073240D01*
X1334218Y1072380D01*
X1337542D01*
X1340751Y1073240D01*
X1343629Y1074902D01*
X1345979Y1077251D01*
X1347640Y1080129D01*
X1348500Y1083338D01*
Y1086662D01*
X1347640Y1089871D01*
X1345979Y1092749D01*
X1343629Y1095098D01*
X1340751Y1096760D01*
X1337542Y1097620D01*
D02*
G37*
G36*
X1241820D02*
X1216580D01*
Y1072380D01*
X1241820D01*
Y1097620D01*
D02*
G37*
G36*
X906270Y1079781D02*
Y1071670D01*
X914381D01*
X913750Y1074024D01*
X912514Y1076166D01*
X910766Y1077914D01*
X908624Y1079150D01*
X906270Y1079781D01*
D02*
G37*
G36*
X903730Y1079781D02*
X901376Y1079150D01*
X899234Y1077914D01*
X897486Y1076166D01*
X896250Y1074024D01*
X895619Y1071670D01*
X903730D01*
Y1079781D01*
D02*
G37*
G36*
X831270Y1075483D02*
Y1068770D01*
X837983D01*
X837492Y1070603D01*
X836434Y1072437D01*
X834937Y1073934D01*
X833103Y1074992D01*
X831270Y1075483D01*
D02*
G37*
G36*
X828730D02*
X826897Y1074992D01*
X825063Y1073934D01*
X823566Y1072437D01*
X822508Y1070603D01*
X822017Y1068770D01*
X828730D01*
Y1075483D01*
D02*
G37*
G36*
X903730Y1069130D02*
X895619D01*
X896250Y1066776D01*
X897486Y1064634D01*
X899234Y1062886D01*
X901376Y1061650D01*
X903730Y1061019D01*
Y1069130D01*
D02*
G37*
G36*
X914381D02*
X906270D01*
Y1061019D01*
X908624Y1061650D01*
X910766Y1062886D01*
X912514Y1064634D01*
X913750Y1066776D01*
X914381Y1069130D01*
D02*
G37*
G36*
X837983Y1066230D02*
X831270D01*
Y1059517D01*
X833103Y1060008D01*
X834937Y1061066D01*
X836434Y1062563D01*
X837492Y1064397D01*
X837983Y1066230D01*
D02*
G37*
G36*
X828730D02*
X822017D01*
X822508Y1064397D01*
X823566Y1062563D01*
X825063Y1061066D01*
X826897Y1060008D01*
X828730Y1059517D01*
Y1066230D01*
D02*
G37*
G36*
X1160630Y1060650D02*
X1157470D01*
X1154418Y1059832D01*
X1151682Y1058252D01*
X1149448Y1056018D01*
X1149408Y1056013D01*
X1147368Y1058052D01*
X1144632Y1059632D01*
X1141580Y1060450D01*
X1138420D01*
X1135368Y1059632D01*
X1134050Y1058871D01*
X1132950Y1059506D01*
Y1060650D01*
X1108950D01*
Y1036650D01*
X1113985D01*
Y968170D01*
X1114223Y966367D01*
X1114919Y964688D01*
X1116025Y963245D01*
X1121734Y957536D01*
X1121500Y956662D01*
Y953338D01*
X1122360Y950129D01*
X1124022Y947251D01*
X1126371Y944902D01*
X1129249Y943240D01*
X1132458Y942380D01*
X1135781D01*
X1138991Y943240D01*
X1141869Y944902D01*
X1144219Y947251D01*
X1145880Y950129D01*
X1146740Y953338D01*
Y956662D01*
X1145880Y959871D01*
X1144219Y962749D01*
X1141869Y965098D01*
X1138991Y966760D01*
X1135781Y967620D01*
X1132458D01*
X1131584Y967386D01*
X1127915Y971055D01*
Y1036650D01*
X1132950D01*
Y1037394D01*
X1134050Y1038029D01*
X1135368Y1037268D01*
X1138420Y1036450D01*
X1141580D01*
X1144632Y1037268D01*
X1147368Y1038848D01*
X1149602Y1041082D01*
X1149642Y1041087D01*
X1151682Y1039048D01*
X1154418Y1037468D01*
X1157470Y1036650D01*
X1160630D01*
X1163682Y1037468D01*
X1166418Y1039048D01*
X1168652Y1041282D01*
X1170232Y1044018D01*
X1171050Y1047070D01*
Y1050230D01*
X1170232Y1053282D01*
X1168652Y1056018D01*
X1166418Y1058252D01*
X1163682Y1059832D01*
X1160630Y1060650D01*
D02*
G37*
G36*
X1085630D02*
X1082470D01*
X1079418Y1059832D01*
X1076682Y1058252D01*
X1074448Y1056018D01*
X1074408Y1056013D01*
X1072368Y1058052D01*
X1069632Y1059632D01*
X1066580Y1060450D01*
X1063420D01*
X1060368Y1059632D01*
X1059050Y1058871D01*
X1057950Y1059506D01*
Y1060650D01*
X1033950D01*
Y1055615D01*
X1023715D01*
X1021912Y1055377D01*
X1020232Y1054681D01*
X1018790Y1053575D01*
X1016820Y1051605D01*
X1015593Y1051934D01*
X1015232Y1053282D01*
X1013652Y1056018D01*
X1011418Y1058252D01*
X1008682Y1059832D01*
X1005630Y1060650D01*
X1002470D01*
X999418Y1059832D01*
X996682Y1058252D01*
X994448Y1056018D01*
X994408Y1056013D01*
X992368Y1058052D01*
X989632Y1059632D01*
X986580Y1060450D01*
X983420D01*
X980368Y1059632D01*
X979050Y1058871D01*
X977950Y1059506D01*
Y1060650D01*
X953950D01*
Y1036650D01*
X977950D01*
Y1037394D01*
X979050Y1038029D01*
X980368Y1037268D01*
X983420Y1036450D01*
X986580D01*
X989632Y1037268D01*
X992368Y1038848D01*
X994602Y1041082D01*
X994642Y1041087D01*
X996682Y1039048D01*
X999418Y1037468D01*
X1000766Y1037107D01*
X1001095Y1035880D01*
X992835Y1027620D01*
X895655D01*
X893852Y1027382D01*
X892173Y1026686D01*
X890730Y1025580D01*
X880215Y1015065D01*
X840950D01*
Y1018750D01*
X819650D01*
Y997450D01*
X840950D01*
Y1001135D01*
X883100D01*
X884902Y1001373D01*
X886582Y1002068D01*
X888025Y1003175D01*
X898219Y1013369D01*
X898988Y1013297D01*
X899380Y1012756D01*
X899731Y1012043D01*
X899050Y1009502D01*
Y1006698D01*
X899776Y1003989D01*
X901178Y1001561D01*
X903161Y999578D01*
X905589Y998176D01*
X908298Y997450D01*
X911102D01*
X913811Y998176D01*
X916239Y999578D01*
X918222Y1001561D01*
X919624Y1003989D01*
X920350Y1006698D01*
Y1009502D01*
X919624Y1012211D01*
X919405Y1012590D01*
X920040Y1013690D01*
X995720D01*
X997522Y1013928D01*
X999202Y1014623D01*
X1000644Y1015730D01*
X1026600Y1041685D01*
X1033950D01*
Y1036650D01*
X1057950D01*
Y1037394D01*
X1059050Y1038029D01*
X1060368Y1037268D01*
X1063420Y1036450D01*
X1066580D01*
X1069632Y1037268D01*
X1072368Y1038848D01*
X1074602Y1041082D01*
X1074642Y1041087D01*
X1076682Y1039048D01*
X1077085Y1038815D01*
Y900950D01*
X1077323Y899147D01*
X1078018Y897468D01*
X1079125Y896025D01*
X1103035Y872115D01*
Y838320D01*
X1103273Y836517D01*
X1103969Y834838D01*
X1105075Y833395D01*
X1187380Y751091D01*
Y735700D01*
X1212620D01*
Y760940D01*
X1197229D01*
X1116965Y841205D01*
Y875000D01*
X1116965Y875000D01*
X1116727Y876803D01*
X1116031Y878482D01*
X1114925Y879925D01*
X1091015Y903835D01*
Y1038815D01*
X1091418Y1039048D01*
X1093652Y1041282D01*
X1095232Y1044018D01*
X1096050Y1047070D01*
Y1050230D01*
X1095232Y1053282D01*
X1093652Y1056018D01*
X1091418Y1058252D01*
X1088682Y1059832D01*
X1085630Y1060650D01*
D02*
G37*
G36*
X766670Y1053594D02*
Y1046270D01*
X773994D01*
X773442Y1048331D01*
X772306Y1050299D01*
X770699Y1051906D01*
X768731Y1053042D01*
X766670Y1053594D01*
D02*
G37*
G36*
X764130D02*
X762069Y1053042D01*
X760101Y1051906D01*
X758494Y1050299D01*
X757358Y1048331D01*
X756806Y1046270D01*
X764130D01*
Y1053594D01*
D02*
G37*
G36*
X656670D02*
Y1046270D01*
X663994D01*
X663442Y1048331D01*
X662306Y1050299D01*
X660699Y1051906D01*
X658731Y1053042D01*
X656670Y1053594D01*
D02*
G37*
G36*
X654130D02*
X652069Y1053042D01*
X650101Y1051906D01*
X648494Y1050299D01*
X647358Y1048331D01*
X646806Y1046270D01*
X654130D01*
Y1053594D01*
D02*
G37*
G36*
X773994Y1043730D02*
X766670D01*
Y1036406D01*
X768731Y1036958D01*
X770699Y1038094D01*
X772306Y1039701D01*
X773442Y1041669D01*
X773994Y1043730D01*
D02*
G37*
G36*
X764130D02*
X756806D01*
X757358Y1041669D01*
X758494Y1039701D01*
X760101Y1038094D01*
X762069Y1036958D01*
X764130Y1036406D01*
Y1043730D01*
D02*
G37*
G36*
X663994D02*
X656670D01*
Y1036406D01*
X658731Y1036958D01*
X660699Y1038094D01*
X662306Y1039701D01*
X663442Y1041669D01*
X663994Y1043730D01*
D02*
G37*
G36*
X654130D02*
X646806D01*
X647358Y1041669D01*
X648494Y1039701D01*
X650101Y1038094D01*
X652069Y1036958D01*
X654130Y1036406D01*
Y1043730D01*
D02*
G37*
G36*
X741460Y1056090D02*
X738540D01*
X735719Y1055334D01*
X733191Y1053874D01*
X731126Y1051809D01*
X729666Y1049281D01*
X728910Y1046460D01*
Y1043540D01*
X729666Y1040719D01*
X731126Y1038191D01*
X733191Y1036126D01*
X735719Y1034666D01*
X738540Y1033910D01*
X741460D01*
X744281Y1034666D01*
X746809Y1036126D01*
X748874Y1038191D01*
X750334Y1040719D01*
X751090Y1043540D01*
Y1046460D01*
X750334Y1049281D01*
X748874Y1051809D01*
X746809Y1053874D01*
X744281Y1055334D01*
X741460Y1056090D01*
D02*
G37*
G36*
X725690D02*
X703510D01*
Y1033910D01*
X725690D01*
Y1056090D01*
D02*
G37*
G36*
X631460D02*
X628540D01*
X625719Y1055334D01*
X623191Y1053874D01*
X621126Y1051809D01*
X619666Y1049281D01*
X618910Y1046460D01*
Y1043540D01*
X619666Y1040719D01*
X621126Y1038191D01*
X623191Y1036126D01*
X625719Y1034666D01*
X628540Y1033910D01*
X631460D01*
X634281Y1034666D01*
X636809Y1036126D01*
X638874Y1038191D01*
X640334Y1040719D01*
X641090Y1043540D01*
Y1046460D01*
X640334Y1049281D01*
X638874Y1051809D01*
X636809Y1053874D01*
X634281Y1055334D01*
X631460Y1056090D01*
D02*
G37*
G36*
X615690D02*
X593510D01*
Y1033910D01*
X615690D01*
Y1056090D01*
D02*
G37*
G36*
X916850Y1056850D02*
X893150D01*
Y1033150D01*
X916850D01*
Y1056850D01*
D02*
G37*
G36*
X840500Y1053000D02*
X819500D01*
Y1032000D01*
X840500D01*
Y1053000D01*
D02*
G37*
G36*
X1337542Y1047620D02*
X1334218D01*
X1331009Y1046760D01*
X1328131Y1045098D01*
X1325782Y1042749D01*
X1324120Y1039871D01*
X1323260Y1036662D01*
Y1033338D01*
X1324120Y1030129D01*
X1325782Y1027251D01*
X1328131Y1024902D01*
X1331009Y1023240D01*
X1334218Y1022380D01*
X1337542D01*
X1340751Y1023240D01*
X1343629Y1024902D01*
X1345979Y1027251D01*
X1347640Y1030129D01*
X1348500Y1033338D01*
Y1036662D01*
X1347640Y1039871D01*
X1345979Y1042749D01*
X1343629Y1045098D01*
X1340751Y1046760D01*
X1337542Y1047620D01*
D02*
G37*
G36*
X1241820D02*
X1216580D01*
Y1022380D01*
X1241820D01*
Y1047620D01*
D02*
G37*
G36*
X911102Y993350D02*
X908298D01*
X905589Y992624D01*
X903161Y991222D01*
X901178Y989239D01*
X899776Y986811D01*
X899050Y984102D01*
Y981298D01*
X899776Y978589D01*
X901178Y976161D01*
X903161Y974178D01*
X905589Y972776D01*
X908298Y972050D01*
X911102D01*
X913811Y972776D01*
X916239Y974178D01*
X918222Y976161D01*
X919624Y978589D01*
X920350Y981298D01*
Y984102D01*
X919624Y986811D01*
X918222Y989239D01*
X916239Y991222D01*
X913811Y992624D01*
X911102Y993350D01*
D02*
G37*
G36*
X831702D02*
X828898D01*
X826189Y992624D01*
X823761Y991222D01*
X821778Y989239D01*
X820376Y986811D01*
X819650Y984102D01*
Y981298D01*
X820376Y978589D01*
X821778Y976161D01*
X823761Y974178D01*
X826189Y972776D01*
X828898Y972050D01*
X831101D01*
X834685Y968465D01*
X834028Y967327D01*
X831702Y967950D01*
X828898D01*
X826189Y967224D01*
X823761Y965822D01*
X822203Y964265D01*
X676759D01*
X674956Y964027D01*
X673276Y963332D01*
X671834Y962225D01*
X613890Y904281D01*
X612620Y904807D01*
Y907542D01*
X611760Y910751D01*
X610098Y913629D01*
X607749Y915978D01*
X604871Y917640D01*
X601661Y918500D01*
X598339D01*
X595129Y917640D01*
X592251Y915978D01*
X589902Y913629D01*
X588240Y910751D01*
X587380Y907542D01*
Y904219D01*
X588240Y901009D01*
X589902Y898131D01*
X592251Y895781D01*
X595129Y894120D01*
X598339Y893260D01*
X601073D01*
X601599Y891990D01*
X595075Y885466D01*
X593969Y884024D01*
X593273Y882344D01*
X593035Y880541D01*
Y811820D01*
X587380D01*
Y786580D01*
X612620D01*
Y811820D01*
X606965D01*
Y877657D01*
X631538Y902230D01*
X632765Y901902D01*
X633240Y900129D01*
X634902Y897251D01*
X637251Y894902D01*
X640129Y893240D01*
X643338Y892380D01*
X646662D01*
X649871Y893240D01*
X652749Y894902D01*
X655098Y897251D01*
X656760Y900129D01*
X657620Y903338D01*
Y906662D01*
X656760Y909871D01*
X655098Y912749D01*
X652749Y915098D01*
X649871Y916760D01*
X648098Y917235D01*
X647770Y918462D01*
X679643Y950335D01*
X822203D01*
X823761Y948778D01*
X826189Y947376D01*
X828898Y946650D01*
X831702D01*
X834411Y947376D01*
X836839Y948778D01*
X838822Y950761D01*
X840224Y953189D01*
X840950Y955898D01*
Y958702D01*
X840327Y961028D01*
X841466Y961685D01*
X862663Y940488D01*
Y794173D01*
X862900Y792370D01*
X863596Y790690D01*
X864703Y789248D01*
X896992Y756958D01*
X896618Y755562D01*
Y752038D01*
X897530Y748635D01*
X899292Y745583D01*
X901783Y743092D01*
X903963Y741833D01*
Y740367D01*
X901783Y739108D01*
X899292Y736617D01*
X897530Y733565D01*
X896618Y730162D01*
Y726638D01*
X897530Y723235D01*
X899292Y720183D01*
X901783Y717692D01*
X904835Y715930D01*
X908238Y715018D01*
X911762D01*
X915165Y715930D01*
X918217Y717692D01*
X920708Y720183D01*
X922470Y723235D01*
X923382Y726638D01*
Y730162D01*
X923008Y731558D01*
X944925Y753475D01*
X946031Y754918D01*
X946727Y756597D01*
X946965Y758400D01*
Y894415D01*
X982970Y930421D01*
X983420Y930300D01*
X986580D01*
X989632Y931118D01*
X992368Y932698D01*
X994602Y934932D01*
X996182Y937668D01*
X997000Y940720D01*
Y943880D01*
X996182Y946932D01*
X994602Y949668D01*
X992368Y951902D01*
X989632Y953482D01*
X986580Y954300D01*
X983420D01*
X980368Y953482D01*
X977632Y951902D01*
X975398Y949668D01*
X973818Y946932D01*
X973000Y943880D01*
Y940720D01*
X973121Y940270D01*
X935075Y902225D01*
X933969Y900782D01*
X933273Y899102D01*
X933035Y897300D01*
Y761285D01*
X924652Y752901D01*
X923382Y753427D01*
Y755562D01*
X922470Y758965D01*
X920708Y762017D01*
X918217Y764508D01*
X916037Y765767D01*
Y767233D01*
X918217Y768492D01*
X920708Y770983D01*
X922470Y774035D01*
X923382Y777438D01*
Y780962D01*
X922470Y784365D01*
X920708Y787417D01*
X918217Y789908D01*
X916037Y791167D01*
Y792633D01*
X918217Y793892D01*
X920708Y796383D01*
X922470Y799435D01*
X923382Y802838D01*
Y806362D01*
X922470Y809765D01*
X920708Y812817D01*
X918217Y815308D01*
X916037Y816567D01*
Y818033D01*
X918217Y819292D01*
X920708Y821783D01*
X922470Y824835D01*
X923382Y828238D01*
Y831762D01*
X922470Y835165D01*
X920708Y838217D01*
X918217Y840708D01*
X916037Y841967D01*
Y843433D01*
X918217Y844692D01*
X920708Y847183D01*
X922470Y850235D01*
X923382Y853638D01*
Y857162D01*
X922470Y860565D01*
X920708Y863617D01*
X918217Y866108D01*
X916037Y867367D01*
Y868833D01*
X918217Y870092D01*
X920708Y872583D01*
X922470Y875635D01*
X923382Y879038D01*
Y882562D01*
X922470Y885965D01*
X920708Y889017D01*
X918217Y891508D01*
X915165Y893270D01*
X911762Y894182D01*
X908238D01*
X904835Y893270D01*
X901783Y891508D01*
X899292Y889017D01*
X897530Y885965D01*
X896618Y882562D01*
Y879038D01*
X897530Y875635D01*
X899292Y872583D01*
X901783Y870092D01*
X903963Y868833D01*
Y867367D01*
X901783Y866108D01*
X899292Y863617D01*
X897530Y860565D01*
X896618Y857162D01*
Y853638D01*
X897530Y850235D01*
X899292Y847183D01*
X901783Y844692D01*
X903963Y843433D01*
Y841967D01*
X901783Y840708D01*
X899292Y838217D01*
X897530Y835165D01*
X896618Y831762D01*
Y828238D01*
X897530Y824835D01*
X899292Y821783D01*
X901783Y819292D01*
X903963Y818033D01*
Y816567D01*
X901783Y815308D01*
X899292Y812817D01*
X897530Y809765D01*
X896618Y806362D01*
Y802838D01*
X897530Y799435D01*
X899292Y796383D01*
X901783Y793892D01*
X903963Y792633D01*
Y791167D01*
X901783Y789908D01*
X899292Y787417D01*
X897530Y784365D01*
X896618Y780962D01*
Y778827D01*
X895348Y778301D01*
X876592Y797058D01*
Y943373D01*
X876355Y945175D01*
X875659Y946855D01*
X874552Y948297D01*
X840950Y981899D01*
Y984102D01*
X840224Y986811D01*
X838822Y989239D01*
X836839Y991222D01*
X834411Y992624D01*
X831702Y993350D01*
D02*
G37*
G36*
X997000Y979700D02*
X973000D01*
Y955700D01*
X997000D01*
Y979700D01*
D02*
G37*
G36*
X1061580Y977000D02*
X1058420D01*
X1055368Y976182D01*
X1052632Y974602D01*
X1050398Y972368D01*
X1048818Y969632D01*
X1048000Y966580D01*
Y963420D01*
X1048818Y960368D01*
X1050398Y957632D01*
X1052632Y955398D01*
X1055368Y953818D01*
X1058420Y953000D01*
X1061580D01*
X1064632Y953818D01*
X1067368Y955398D01*
X1069602Y957632D01*
X1071182Y960368D01*
X1072000Y963420D01*
Y966580D01*
X1071182Y969632D01*
X1069602Y972368D01*
X1067368Y974602D01*
X1064632Y976182D01*
X1061580Y977000D01*
D02*
G37*
G36*
X911102Y967950D02*
X908298D01*
X905589Y967224D01*
X903161Y965822D01*
X901178Y963839D01*
X899776Y961411D01*
X899050Y958702D01*
Y955898D01*
X899776Y953189D01*
X901178Y950761D01*
X903161Y948778D01*
X905589Y947376D01*
X908298Y946650D01*
X911102D01*
X913811Y947376D01*
X916239Y948778D01*
X918222Y950761D01*
X919624Y953189D01*
X920350Y955898D01*
Y958702D01*
X919624Y961411D01*
X918222Y963839D01*
X916239Y965822D01*
X913811Y967224D01*
X911102Y967950D01*
D02*
G37*
G36*
X1253420Y967620D02*
X1228180D01*
Y942380D01*
X1253420D01*
Y967620D01*
D02*
G37*
G36*
X831570Y940039D02*
Y933170D01*
X838439D01*
X837932Y935061D01*
X836854Y936929D01*
X835329Y938454D01*
X833461Y939532D01*
X831570Y940039D01*
D02*
G37*
G36*
X829030D02*
X827139Y939532D01*
X825271Y938454D01*
X823746Y936929D01*
X822668Y935061D01*
X822161Y933170D01*
X829030D01*
Y940039D01*
D02*
G37*
G36*
X1072000Y951600D02*
X1048000D01*
Y927600D01*
X1072000D01*
Y951600D01*
D02*
G37*
G36*
X838439Y930630D02*
X831570D01*
Y923761D01*
X833461Y924268D01*
X835329Y925346D01*
X836854Y926871D01*
X837932Y928739D01*
X838439Y930630D01*
D02*
G37*
G36*
X829030D02*
X822161D01*
X822668Y928739D01*
X823746Y926871D01*
X825271Y925346D01*
X827139Y924268D01*
X829030Y923761D01*
Y930630D01*
D02*
G37*
G36*
X911102Y942550D02*
X908298D01*
X905589Y941824D01*
X903161Y940422D01*
X901178Y938439D01*
X899776Y936011D01*
X899050Y933302D01*
Y930498D01*
X899776Y927789D01*
X901178Y925361D01*
X903161Y923378D01*
X905589Y921976D01*
X908298Y921250D01*
X911102D01*
X913811Y921976D01*
X916239Y923378D01*
X918222Y925361D01*
X919624Y927789D01*
X920350Y930498D01*
Y933302D01*
X919624Y936011D01*
X918222Y938439D01*
X916239Y940422D01*
X913811Y941824D01*
X911102Y942550D01*
D02*
G37*
G36*
X781662Y918500D02*
X778338D01*
X775129Y917640D01*
X772251Y915978D01*
X769902Y913629D01*
X768240Y910751D01*
X767380Y907542D01*
Y904219D01*
X768240Y901009D01*
X769902Y898131D01*
X772251Y895781D01*
X775129Y894120D01*
X778338Y893260D01*
X781662D01*
X784871Y894120D01*
X787749Y895781D01*
X790098Y898131D01*
X791760Y901009D01*
X792620Y904219D01*
Y907542D01*
X791760Y910751D01*
X790098Y913629D01*
X787749Y915978D01*
X784871Y917640D01*
X781662Y918500D01*
D02*
G37*
G36*
X747620Y918420D02*
X722380D01*
Y893180D01*
X747620D01*
Y918420D01*
D02*
G37*
G36*
X1201338Y865160D02*
X1201270D01*
Y856270D01*
X1210160D01*
Y856338D01*
X1209468Y858922D01*
X1208130Y861238D01*
X1206238Y863130D01*
X1203922Y864468D01*
X1201338Y865160D01*
D02*
G37*
G36*
X1198730D02*
X1198662D01*
X1196078Y864468D01*
X1193762Y863130D01*
X1191870Y861238D01*
X1190532Y858922D01*
X1189840Y856338D01*
Y856270D01*
X1198730D01*
Y865160D01*
D02*
G37*
G36*
X1261338D02*
X1261270D01*
Y856270D01*
X1270160D01*
Y856338D01*
X1269468Y858922D01*
X1268130Y861238D01*
X1266238Y863130D01*
X1263922Y864468D01*
X1261338Y865160D01*
D02*
G37*
G36*
X1258730D02*
X1258662D01*
X1256078Y864468D01*
X1253762Y863130D01*
X1251870Y861238D01*
X1250532Y858922D01*
X1249840Y856338D01*
Y856270D01*
X1258730D01*
Y865160D01*
D02*
G37*
G36*
X1270160Y853730D02*
X1261270D01*
Y844840D01*
X1261338D01*
X1263922Y845532D01*
X1266238Y846870D01*
X1268130Y848762D01*
X1269468Y851078D01*
X1270160Y853662D01*
Y853730D01*
D02*
G37*
G36*
X1258730D02*
X1249840D01*
Y853662D01*
X1250532Y851078D01*
X1251870Y848762D01*
X1253762Y846870D01*
X1256078Y845532D01*
X1258662Y844840D01*
X1258730D01*
Y853730D01*
D02*
G37*
G36*
X1210160Y853730D02*
X1201270D01*
Y844840D01*
X1201338D01*
X1203922Y845532D01*
X1206238Y846870D01*
X1208130Y848762D01*
X1209468Y851078D01*
X1210160Y853662D01*
Y853730D01*
D02*
G37*
G36*
X1198730D02*
X1189840D01*
Y853662D01*
X1190532Y851078D01*
X1191870Y848762D01*
X1193762Y846870D01*
X1196078Y845532D01*
X1198662Y844840D01*
X1198730D01*
Y853730D01*
D02*
G37*
G36*
X1086662Y868500D02*
X1083338D01*
X1080129Y867640D01*
X1077251Y865978D01*
X1074902Y863629D01*
X1073240Y860751D01*
X1072380Y857542D01*
Y854219D01*
X1073240Y851009D01*
X1074902Y848131D01*
X1077251Y845781D01*
X1080129Y844120D01*
X1083338Y843260D01*
X1086662D01*
X1089871Y844120D01*
X1092749Y845781D01*
X1095098Y848131D01*
X1096760Y851009D01*
X1097620Y854219D01*
Y857542D01*
X1096760Y860751D01*
X1095098Y863629D01*
X1092749Y865978D01*
X1089871Y867640D01*
X1086662Y868500D01*
D02*
G37*
G36*
X976662D02*
X973338D01*
X970129Y867640D01*
X967251Y865978D01*
X964902Y863629D01*
X963240Y860751D01*
X962380Y857542D01*
Y854219D01*
X963240Y851009D01*
X964902Y848131D01*
X967251Y845781D01*
X970129Y844120D01*
X973338Y843260D01*
X976662D01*
X979871Y844120D01*
X982749Y845781D01*
X985098Y848131D01*
X986760Y851009D01*
X987620Y854219D01*
Y857542D01*
X986760Y860751D01*
X985098Y863629D01*
X982749Y865978D01*
X979871Y867640D01*
X976662Y868500D01*
D02*
G37*
G36*
X1042620Y868420D02*
X1017380D01*
Y843180D01*
X1042620D01*
Y868420D01*
D02*
G37*
G36*
X1152620Y867620D02*
X1127380D01*
Y842380D01*
X1152620D01*
Y867620D01*
D02*
G37*
G36*
X655160Y808480D02*
X646270D01*
Y799590D01*
X655160D01*
Y808480D01*
D02*
G37*
G36*
X643730D02*
X634840D01*
Y799590D01*
X643730D01*
Y808480D01*
D02*
G37*
G36*
X655160Y797050D02*
X646270D01*
Y788160D01*
X655160D01*
Y797050D01*
D02*
G37*
G36*
X643730D02*
X634840D01*
Y788160D01*
X643730D01*
Y797050D01*
D02*
G37*
G36*
X792620Y811820D02*
X767380D01*
Y786580D01*
X792620D01*
Y811820D01*
D02*
G37*
G36*
X736662Y811740D02*
X733338D01*
X730129Y810880D01*
X727251Y809219D01*
X724902Y806869D01*
X723240Y803991D01*
X722380Y800781D01*
Y797458D01*
X723240Y794249D01*
X724902Y791371D01*
X727251Y789022D01*
X730129Y787360D01*
X733338Y786500D01*
X736662D01*
X739871Y787360D01*
X742749Y789022D01*
X745098Y791371D01*
X746760Y794249D01*
X747620Y797458D01*
Y800781D01*
X746760Y803991D01*
X745098Y806869D01*
X742749Y809219D01*
X739871Y810880D01*
X736662Y811740D01*
D02*
G37*
G36*
X691662Y810940D02*
X688338D01*
X685129Y810080D01*
X682251Y808419D01*
X679902Y806069D01*
X678240Y803191D01*
X677380Y799982D01*
Y796658D01*
X678240Y793449D01*
X679902Y790571D01*
X682251Y788222D01*
X685129Y786560D01*
X688338Y785700D01*
X691662D01*
X694871Y786560D01*
X697749Y788222D01*
X700098Y790571D01*
X701760Y793449D01*
X702620Y796658D01*
Y799982D01*
X701760Y803191D01*
X700098Y806069D01*
X697749Y808419D01*
X694871Y810080D01*
X691662Y810940D01*
D02*
G37*
G36*
X985160Y759360D02*
X976270D01*
Y750470D01*
X985160D01*
Y759360D01*
D02*
G37*
G36*
X973730D02*
X964840D01*
Y750470D01*
X973730D01*
Y759360D01*
D02*
G37*
G36*
X1141338Y758480D02*
X1141270D01*
Y749590D01*
X1150160D01*
Y749658D01*
X1149468Y752242D01*
X1148130Y754558D01*
X1146238Y756450D01*
X1143922Y757788D01*
X1141338Y758480D01*
D02*
G37*
G36*
X1138730D02*
X1138662D01*
X1136078Y757788D01*
X1133762Y756450D01*
X1131870Y754558D01*
X1130532Y752242D01*
X1129840Y749658D01*
Y749590D01*
X1138730D01*
Y758480D01*
D02*
G37*
G36*
X985160Y747930D02*
X976270D01*
Y739040D01*
X985160D01*
Y747930D01*
D02*
G37*
G36*
X973730D02*
X964840D01*
Y739040D01*
X973730D01*
Y747930D01*
D02*
G37*
G36*
X1150160Y747050D02*
X1141270D01*
Y738160D01*
X1141338D01*
X1143922Y738852D01*
X1146238Y740190D01*
X1148130Y742082D01*
X1149468Y744398D01*
X1150160Y746982D01*
Y747050D01*
D02*
G37*
G36*
X1138730D02*
X1129840D01*
Y746982D01*
X1130532Y744398D01*
X1131870Y742082D01*
X1133762Y740190D01*
X1136078Y738852D01*
X1138662Y738160D01*
X1138730D01*
Y747050D01*
D02*
G37*
G36*
X1097620Y761820D02*
X1072380D01*
Y736580D01*
X1097620D01*
Y761820D01*
D02*
G37*
G36*
X1031662Y761740D02*
X1028338D01*
X1025129Y760880D01*
X1022251Y759219D01*
X1019902Y756869D01*
X1018240Y753991D01*
X1017380Y750781D01*
Y747458D01*
X1018240Y744249D01*
X1019902Y741371D01*
X1022251Y739022D01*
X1025129Y737360D01*
X1028338Y736500D01*
X1031662D01*
X1034871Y737360D01*
X1037749Y739022D01*
X1040098Y741371D01*
X1041760Y744249D01*
X1042620Y747458D01*
Y750781D01*
X1041760Y753991D01*
X1040098Y756869D01*
X1037749Y759219D01*
X1034871Y760880D01*
X1031662Y761740D01*
D02*
G37*
G36*
X1272620Y760940D02*
X1247380D01*
Y735700D01*
X1272620D01*
Y760940D01*
D02*
G37*
G36*
X702620Y917620D02*
X677380D01*
Y892380D01*
X692771D01*
X760075Y825075D01*
X761518Y823969D01*
X763197Y823273D01*
X765000Y823035D01*
X765000Y823035D01*
X821099D01*
X821822Y821783D01*
X824313Y819292D01*
X826493Y818033D01*
Y816567D01*
X824313Y815308D01*
X821822Y812817D01*
X820060Y809765D01*
X819148Y806362D01*
Y802838D01*
X820060Y799435D01*
X821822Y796383D01*
X824313Y793892D01*
X826493Y792633D01*
Y791167D01*
X824313Y789908D01*
X821822Y787417D01*
X820060Y784365D01*
X819148Y780962D01*
Y777438D01*
X820060Y774035D01*
X821822Y770983D01*
X824313Y768492D01*
X826493Y767233D01*
Y765767D01*
X824313Y764508D01*
X821822Y762017D01*
X820060Y758965D01*
X819148Y755562D01*
Y752038D01*
X820060Y748635D01*
X821822Y745583D01*
X824313Y743092D01*
X826493Y741833D01*
Y740367D01*
X824313Y739108D01*
X821822Y736617D01*
X820060Y733565D01*
X819148Y730162D01*
Y726638D01*
X820060Y723235D01*
X821822Y720183D01*
X824313Y717692D01*
X827365Y715930D01*
X830768Y715018D01*
X834292D01*
X837695Y715930D01*
X840747Y717692D01*
X843238Y720183D01*
X845000Y723235D01*
X845912Y726638D01*
Y730162D01*
X845000Y733565D01*
X843238Y736617D01*
X840747Y739108D01*
X838567Y740367D01*
Y741833D01*
X840747Y743092D01*
X843238Y745583D01*
X845000Y748635D01*
X845912Y752038D01*
Y755562D01*
X845000Y758965D01*
X843238Y762017D01*
X840747Y764508D01*
X838567Y765767D01*
Y767233D01*
X840747Y768492D01*
X843238Y770983D01*
X845000Y774035D01*
X845912Y777438D01*
Y780962D01*
X845000Y784365D01*
X843238Y787417D01*
X840747Y789908D01*
X838567Y791167D01*
Y792633D01*
X840747Y793892D01*
X843238Y796383D01*
X845000Y799435D01*
X845912Y802838D01*
Y806362D01*
X845000Y809765D01*
X843238Y812817D01*
X840747Y815308D01*
X838567Y816567D01*
Y818033D01*
X840747Y819292D01*
X843238Y821783D01*
X845000Y824835D01*
X845912Y828238D01*
Y831762D01*
X845000Y835165D01*
X843238Y838217D01*
X840747Y840708D01*
X838567Y841967D01*
Y843433D01*
X840747Y844692D01*
X843238Y847183D01*
X845000Y850235D01*
X845912Y853638D01*
Y857162D01*
X845000Y860565D01*
X843238Y863617D01*
X840747Y866108D01*
X840603Y866191D01*
X840932Y867418D01*
X845912D01*
Y894182D01*
X819148D01*
Y867418D01*
X824128D01*
X824457Y866191D01*
X824313Y866108D01*
X821822Y863617D01*
X820060Y860565D01*
X819148Y857162D01*
Y853638D01*
X820060Y850235D01*
X821822Y847183D01*
X824313Y844692D01*
X826493Y843433D01*
Y841967D01*
X824313Y840708D01*
X821822Y838217D01*
X821099Y836965D01*
X767885D01*
X702620Y902229D01*
Y917620D01*
D02*
G37*
G36*
X794260Y731850D02*
X791140D01*
X788126Y731042D01*
X785424Y729482D01*
X783218Y727276D01*
X781657Y724574D01*
X780850Y721560D01*
Y718440D01*
X781657Y715426D01*
X783218Y712724D01*
X785424Y710518D01*
X788126Y708958D01*
X791140Y708150D01*
X794260D01*
X797274Y708958D01*
X799976Y710518D01*
X802182Y712724D01*
X803742Y715426D01*
X804550Y718440D01*
Y721560D01*
X803742Y724574D01*
X802182Y727276D01*
X799976Y729482D01*
X797274Y731042D01*
X794260Y731850D01*
D02*
G37*
G36*
X779150D02*
X755450D01*
Y708150D01*
X779150D01*
Y731850D01*
D02*
G37*
G36*
X729260D02*
X726140D01*
X723126Y731042D01*
X720424Y729482D01*
X718218Y727276D01*
X716657Y724574D01*
X715850Y721560D01*
Y718440D01*
X716657Y715426D01*
X718218Y712724D01*
X720424Y710518D01*
X723126Y708958D01*
X726140Y708150D01*
X729260D01*
X732274Y708958D01*
X734976Y710518D01*
X737182Y712724D01*
X738742Y715426D01*
X739550Y718440D01*
Y721560D01*
X738742Y724574D01*
X737182Y727276D01*
X734976Y729482D01*
X732274Y731042D01*
X729260Y731850D01*
D02*
G37*
G36*
X714150D02*
X690450D01*
Y708150D01*
X714150D01*
Y731850D01*
D02*
G37*
G36*
X1076270Y663594D02*
Y656270D01*
X1083594D01*
X1083042Y658331D01*
X1081906Y660299D01*
X1080299Y661906D01*
X1078331Y663042D01*
X1076270Y663594D01*
D02*
G37*
G36*
X1011270D02*
Y656270D01*
X1018594D01*
X1018042Y658331D01*
X1016906Y660299D01*
X1015299Y661906D01*
X1013331Y663042D01*
X1011270Y663594D01*
D02*
G37*
G36*
X1008730D02*
X1006669Y663042D01*
X1004701Y661906D01*
X1003094Y660299D01*
X1001958Y658331D01*
X1001406Y656270D01*
X1008730D01*
Y663594D01*
D02*
G37*
G36*
X1073730Y663594D02*
X1071669Y663042D01*
X1069701Y661906D01*
X1068094Y660299D01*
X1066958Y658331D01*
X1066406Y656270D01*
X1073730D01*
Y663594D01*
D02*
G37*
G36*
X1083594Y653730D02*
X1076270D01*
Y646406D01*
X1078331Y646958D01*
X1080299Y648094D01*
X1081906Y649701D01*
X1083042Y651669D01*
X1083594Y653730D01*
D02*
G37*
G36*
X1018594D02*
X1011270D01*
Y646406D01*
X1013331Y646958D01*
X1015299Y648094D01*
X1016906Y649701D01*
X1018042Y651669D01*
X1018594Y653730D01*
D02*
G37*
G36*
X1008730D02*
X1001406D01*
X1001958Y651669D01*
X1003094Y649701D01*
X1004701Y648094D01*
X1006669Y646958D01*
X1008730Y646406D01*
Y653730D01*
D02*
G37*
G36*
X1073730D02*
X1066406D01*
X1066958Y651669D01*
X1068094Y649701D01*
X1069701Y648094D01*
X1071669Y646958D01*
X1073730Y646406D01*
Y653730D01*
D02*
G37*
G36*
X903882Y665500D02*
X901118D01*
X898447Y664784D01*
X896053Y663402D01*
X894098Y661447D01*
X892716Y659053D01*
X892000Y656382D01*
Y653618D01*
X892716Y650947D01*
X894098Y648553D01*
X896053Y646598D01*
X898447Y645216D01*
X901118Y644500D01*
X903882D01*
X906553Y645216D01*
X908947Y646598D01*
X910902Y648553D01*
X912284Y650947D01*
X913000Y653618D01*
Y656382D01*
X912284Y659053D01*
X910902Y661447D01*
X908947Y663402D01*
X906553Y664784D01*
X903882Y665500D01*
D02*
G37*
G36*
X888000D02*
X867000D01*
Y644500D01*
X888000D01*
Y665500D01*
D02*
G37*
G36*
X1136890Y666090D02*
X1114710D01*
Y643910D01*
X1136890D01*
Y666090D01*
D02*
G37*
G36*
X1101860D02*
X1098940D01*
X1096119Y665334D01*
X1093591Y663874D01*
X1091526Y661809D01*
X1090066Y659281D01*
X1089310Y656460D01*
Y653540D01*
X1090066Y650719D01*
X1091526Y648191D01*
X1093591Y646126D01*
X1096119Y644666D01*
X1098940Y643910D01*
X1101860D01*
X1104681Y644666D01*
X1107209Y646126D01*
X1109274Y648191D01*
X1110734Y650719D01*
X1111490Y653540D01*
Y656460D01*
X1110734Y659281D01*
X1109274Y661809D01*
X1107209Y663874D01*
X1104681Y665334D01*
X1101860Y666090D01*
D02*
G37*
G36*
X986060D02*
X983140D01*
X980319Y665334D01*
X977791Y663874D01*
X975726Y661809D01*
X974266Y659281D01*
X973510Y656460D01*
Y653540D01*
X974266Y650719D01*
X975726Y648191D01*
X977791Y646126D01*
X980319Y644666D01*
X983140Y643910D01*
X986060D01*
X988881Y644666D01*
X991409Y646126D01*
X993474Y648191D01*
X994934Y650719D01*
X995690Y653540D01*
Y656460D01*
X994934Y659281D01*
X993474Y661809D01*
X991409Y663874D01*
X988881Y665334D01*
X986060Y666090D01*
D02*
G37*
G36*
X970290D02*
X948110D01*
Y643910D01*
X970290D01*
Y666090D01*
D02*
G37*
G36*
X1274550Y666850D02*
X1250850D01*
Y643150D01*
X1274550D01*
Y666850D01*
D02*
G37*
G36*
X1238860D02*
X1235740D01*
X1232726Y666042D01*
X1230024Y664482D01*
X1227818Y662276D01*
X1226257Y659574D01*
X1225450Y656560D01*
Y653440D01*
X1226257Y650426D01*
X1227818Y647724D01*
X1230024Y645518D01*
X1232726Y643958D01*
X1235740Y643150D01*
X1238860D01*
X1241874Y643958D01*
X1244576Y645518D01*
X1246782Y647724D01*
X1248342Y650426D01*
X1249150Y653440D01*
Y656560D01*
X1248342Y659574D01*
X1246782Y662276D01*
X1244576Y664482D01*
X1241874Y666042D01*
X1238860Y666850D01*
D02*
G37*
%LPD*%
D14*
X1335880Y1035000D02*
D03*
Y1085000D02*
D03*
X1134120Y955000D02*
D03*
X1200000Y855000D02*
D03*
X1260000D02*
D03*
X600000Y905880D02*
D03*
X780000D02*
D03*
X735000Y799120D02*
D03*
X975000Y855880D02*
D03*
X1030000Y749120D02*
D03*
X1140000Y748320D02*
D03*
X1085000Y855880D02*
D03*
X690000Y798320D02*
D03*
X645000Y905000D02*
D03*
D15*
X1229200Y1035000D02*
D03*
Y1085000D02*
D03*
X1240800Y955000D02*
D03*
D31*
X1200000Y748320D02*
D03*
X1260000D02*
D03*
X600000Y799200D02*
D03*
X780000D02*
D03*
X735000Y905800D02*
D03*
X975000Y749200D02*
D03*
X1030000Y855800D02*
D03*
X1140000Y855000D02*
D03*
X1085000Y749200D02*
D03*
X690000Y905000D02*
D03*
X645000Y798320D02*
D03*
D33*
X676759Y957300D02*
X830300D01*
X600000Y880541D02*
X676759Y957300D01*
X600000Y799200D02*
Y880541D01*
X690000Y905000D02*
X765000Y830000D01*
X832530D01*
X910000Y728400D02*
X940000Y758400D01*
Y897300D02*
X985000Y942300D01*
X940000Y758400D02*
Y897300D01*
X1084050Y900950D02*
Y1048650D01*
Y900950D02*
X1110000Y875000D01*
Y838320D02*
Y875000D01*
Y838320D02*
X1200000Y748320D01*
X830300Y1008100D02*
X883100D01*
X895655Y1020655D02*
X995720D01*
X883100Y1008100D02*
X895655Y1020655D01*
X995720D02*
X1023715Y1048650D01*
X1045950D01*
X1120950Y968170D02*
Y1048650D01*
Y968170D02*
X1134120Y955000D01*
X869627Y794173D02*
X910000Y753800D01*
X830300Y982700D02*
X869627Y943373D01*
Y794173D02*
Y943373D01*
D35*
X555000Y645000D02*
D03*
Y1100000D02*
D03*
X1400000Y640000D02*
D03*
X1402500Y1102500D02*
D03*
D36*
X910000Y728400D02*
D03*
Y753800D02*
D03*
Y779200D02*
D03*
Y804600D02*
D03*
Y830000D02*
D03*
Y855400D02*
D03*
Y880800D02*
D03*
X832530Y728400D02*
D03*
Y753800D02*
D03*
Y779200D02*
D03*
Y804600D02*
D03*
Y830000D02*
D03*
Y855400D02*
D03*
D37*
Y880800D02*
D03*
D38*
X1060000Y965000D02*
D03*
X1159050Y1048650D02*
D03*
X1140000Y1048450D02*
D03*
X1084050Y1048650D02*
D03*
X1065000Y1048450D02*
D03*
X1004050Y1048650D02*
D03*
X985000Y1048450D02*
D03*
Y942300D02*
D03*
D39*
X1060000Y939600D02*
D03*
X985000Y967700D02*
D03*
D40*
X1120950Y1048650D02*
D03*
X1045950D02*
D03*
X965950D02*
D03*
D41*
X905000Y1070400D02*
D03*
X1237300Y655000D02*
D03*
X792700Y720000D02*
D03*
X727700D02*
D03*
D42*
X905000Y1045000D02*
D03*
D43*
X830000Y1042500D02*
D03*
D44*
Y1067500D02*
D03*
X902500Y655000D02*
D03*
D45*
X714600Y1045000D02*
D03*
X604600D02*
D03*
X1125800Y655000D02*
D03*
X959200D02*
D03*
D46*
X740000Y1045000D02*
D03*
X765400D02*
D03*
X630000D02*
D03*
X655400D02*
D03*
X1100400Y655000D02*
D03*
X1075000D02*
D03*
X984600D02*
D03*
X1010000D02*
D03*
D47*
X1262700D02*
D03*
X767300Y720000D02*
D03*
X702300D02*
D03*
D48*
X830300Y1008100D02*
D03*
D49*
Y982700D02*
D03*
Y957300D02*
D03*
Y931900D02*
D03*
X909700D02*
D03*
Y957300D02*
D03*
Y982700D02*
D03*
Y1008100D02*
D03*
D50*
X877500Y655000D02*
D03*
M02*
