M48
;Layer_Color=9474304
;FILE_FORMAT=4:4
METRIC,LZ
;TYPE=PLATED
T01F00S00C0.7100
T02F00S00C0.7500
T03F00S00C0.7800
T04F00S00C0.9300
T05F00S00C1.0160
T06F00S00C1.0200
T07F00S00C1.1176
T08F00S00C3.2000
%
T01
X009592Y00655
X009846
X0101
X01075
X011004
X011258
X007654Y01045
X0074
X007146
X006554
X0063
X006046
T02
X008775Y00655
X009025
X0083Y010425
Y010675
T03
X008303Y009319
Y009573
Y009827
Y010081
X009097
Y009827
Y009573
Y009319
T04
X00985Y009423
Y009677
X0106Y00965
Y009396
X01065Y0104845
X0108405Y0104865
X0112095
X0114Y0104845
X0115905Y0104865
X0104595
X0100405
X00985Y0104845
X0096595Y0104865
T05
X012Y0074832
X0126
X0114
X01085Y007492
X0103Y0074912
X00975Y007492
X0078Y007992
X00735Y0079912
X0069Y0079832
X00645
X006Y007992
Y0090588
X00645Y00905
X0069
X00735Y009058
X0078Y0090588
X00975Y0085588
X0103Y008558
X01085Y0085588
X0114Y00855
X0113412Y00955
X012408
X012292Y01035
Y01085
X0133588
Y01035
X0126Y00855
X012
T06
X012373Y00655
X012627
X007927Y0072
X007673
X007277
X007023
X00905Y01045
Y010704
T07
X0083253Y007284
Y007538
Y007792
X0091
Y007538
Y007284
Y008046
Y0083
Y008554
Y008808
X0083253
Y008554
Y0083
Y008046
T08
X014Y0064
X00555Y00645
Y011
X014025Y011025
M30
