G04*
G04 #@! TF.GenerationSoftware,Altium Limited,Altium Designer,23.7.1 (13)*
G04*
G04 Layer_Color=8388736*
%FSLAX44Y44*%
%MOMM*%
G71*
G04*
G04 #@! TF.SameCoordinates,153F72C1-2EA9-491F-B8CB-9A114FCA6393*
G04*
G04*
G04 #@! TF.FilePolarity,Negative*
G04*
G01*
G75*
%ADD14C,1.5240*%
%ADD15R,1.5240X1.5240*%
%ADD16C,3.7032*%
%ADD17C,1.8796*%
%ADD18R,1.8796X1.8796*%
%ADD19C,1.6032*%
%ADD20R,1.6032X1.6032*%
%ADD21R,1.6032X1.6032*%
%ADD22C,1.5732*%
%ADD23R,1.5732X1.5732*%
%ADD24R,1.3032X1.3032*%
%ADD25C,1.3032*%
%ADD26R,1.4212X1.4212*%
%ADD27C,1.4212*%
%ADD28R,1.5732X1.5732*%
%ADD29R,1.3332X1.3332*%
%ADD30C,1.3332*%
%ADD31R,1.5240X1.5240*%
%ADD32R,1.3032X1.3032*%
D14*
X1335880Y1035000D02*
D03*
Y1085000D02*
D03*
X1134120Y955000D02*
D03*
X1200000Y855000D02*
D03*
X1260000D02*
D03*
X600000Y905880D02*
D03*
X780000D02*
D03*
X735000Y799120D02*
D03*
X975000Y855880D02*
D03*
X1030000Y749120D02*
D03*
X1140000Y748320D02*
D03*
X1085000Y855880D02*
D03*
X690000Y798320D02*
D03*
X645000Y905000D02*
D03*
D15*
X1229200Y1035000D02*
D03*
Y1085000D02*
D03*
X1240800Y955000D02*
D03*
D16*
X555000Y645000D02*
D03*
Y1100000D02*
D03*
X1400000Y640000D02*
D03*
X1402500Y1102500D02*
D03*
D17*
X910000Y728400D02*
D03*
Y753800D02*
D03*
Y779200D02*
D03*
Y804600D02*
D03*
Y830000D02*
D03*
Y855400D02*
D03*
Y880800D02*
D03*
X832530Y728400D02*
D03*
Y753800D02*
D03*
Y779200D02*
D03*
Y804600D02*
D03*
Y830000D02*
D03*
Y855400D02*
D03*
D18*
Y880800D02*
D03*
D19*
X1060000Y965000D02*
D03*
X1159050Y1048650D02*
D03*
X1140000Y1048450D02*
D03*
X1084050Y1048650D02*
D03*
X1065000Y1048450D02*
D03*
X1004050Y1048650D02*
D03*
X985000Y1048450D02*
D03*
Y942300D02*
D03*
D20*
X1060000Y939600D02*
D03*
X985000Y967700D02*
D03*
D21*
X1120950Y1048650D02*
D03*
X1045950D02*
D03*
X965950D02*
D03*
D22*
X905000Y1070400D02*
D03*
X1237300Y655000D02*
D03*
X792700Y720000D02*
D03*
X727700D02*
D03*
D23*
X905000Y1045000D02*
D03*
D24*
X830000Y1042500D02*
D03*
D25*
Y1067500D02*
D03*
X902500Y655000D02*
D03*
D26*
X714600Y1045000D02*
D03*
X604600D02*
D03*
X1125800Y655000D02*
D03*
X959200D02*
D03*
D27*
X740000Y1045000D02*
D03*
X765400D02*
D03*
X630000D02*
D03*
X655400D02*
D03*
X1100400Y655000D02*
D03*
X1075000D02*
D03*
X984600D02*
D03*
X1010000D02*
D03*
D28*
X1262700D02*
D03*
X767300Y720000D02*
D03*
X702300D02*
D03*
D29*
X830300Y1008100D02*
D03*
D30*
Y982700D02*
D03*
Y957300D02*
D03*
Y931900D02*
D03*
X909700D02*
D03*
Y957300D02*
D03*
Y982700D02*
D03*
Y1008100D02*
D03*
D31*
X1200000Y748320D02*
D03*
X1260000D02*
D03*
X600000Y799200D02*
D03*
X780000D02*
D03*
X735000Y905800D02*
D03*
X975000Y749200D02*
D03*
X1030000Y855800D02*
D03*
X1140000Y855000D02*
D03*
X1085000Y749200D02*
D03*
X690000Y905000D02*
D03*
X645000Y798320D02*
D03*
D32*
X877500Y655000D02*
D03*
M02*
