M48
;Layer_Color=9474304
;FILE_FORMAT=4:4
METRIC,LZ
;TYPE=PLATED
T01F00S00C0.7500
T02F00S00C0.8000
T03F00S00C0.9000
T04F00S00C1.0200
T05F00S00C1.0500
T06F00S00C1.1000
T07F00S00C1.2400
T08F00S00C1.2700
T09F00S00C1.3000
T10F00S00C1.4986
T11F00S00C1.8500
T12F00S00C3.2000
%
T01
X00665Y0055849
Y0059151
X0074849Y00665
X0078151
X00795Y0098599
Y0101901
X00875Y0095651
Y0092349
T02
X007769Y0081
X007719Y0088
X008481
X008531Y0081
T03
X0065Y010896
Y011404
T04
X0097Y007146
Y0074
X009596Y00805
X00985
X00975Y008673
Y008927
T05
X006Y0071
X00675
Y00915
X006
T06
X008996Y01105
X009504
T07
X0081Y00575
X0077571
X0074142
T08
X0096Y00947
Y00985
Y010232
T09
X00365Y007792
Y0083
Y008808
T10
X004138Y00575
X00475Y006438
X005662Y00575
X00475Y007962
Y008788
Y010312
X004038Y0112
X005562
T11
X00738Y0111
X00785
X00832
T12
X0104Y00515
X0027873
X0028Y01165
X0104
M30
