G04*
G04 #@! TF.GenerationSoftware,Altium Limited,Altium Designer,23.7.1 (13)*
G04*
G04 Layer_Color=65535*
%FSLAX44Y44*%
%MOMM*%
G71*
G04*
G04 #@! TF.SameCoordinates,A9341A08-D9DD-44F6-B1FE-122BD565C652*
G04*
G04*
G04 #@! TF.FilePolarity,Positive*
G04*
G01*
G75*
%ADD10C,0.2000*%
%ADD11C,0.1270*%
%ADD12C,0.1524*%
%ADD13C,0.3000*%
%ADD14C,0.2540*%
G36*
X909942Y574483D02*
X894839D01*
Y578346D01*
X909942D01*
Y574483D01*
D02*
G37*
G36*
X960693Y564298D02*
X960517D01*
Y564122D01*
X953844D01*
Y564298D01*
X952615D01*
Y564473D01*
X951737D01*
Y564649D01*
X951210D01*
Y564824D01*
X950859D01*
Y565000D01*
X950332D01*
Y565176D01*
X949980D01*
Y565351D01*
X949629D01*
Y565527D01*
X949454D01*
Y565702D01*
X949278D01*
Y565878D01*
X948927D01*
Y566054D01*
X948751D01*
Y566229D01*
X948576D01*
Y566405D01*
X948400D01*
Y566581D01*
X948224D01*
Y566756D01*
X948049D01*
Y566932D01*
X947873D01*
Y567107D01*
X947698D01*
Y567283D01*
X947522D01*
Y567458D01*
X947346D01*
Y567634D01*
X947171D01*
Y567985D01*
X946995D01*
Y568161D01*
X946820D01*
Y568337D01*
X946644D01*
Y568512D01*
X946468D01*
Y568688D01*
X946293D01*
Y568863D01*
X946117D01*
Y569039D01*
X945941D01*
Y569390D01*
X945766D01*
Y569566D01*
X945590D01*
Y569742D01*
X945415D01*
Y569917D01*
X945239D01*
Y570093D01*
X945063D01*
Y570268D01*
X944888D01*
Y570620D01*
X944712D01*
Y570795D01*
X944537D01*
Y570971D01*
X944361D01*
Y571146D01*
X944185D01*
Y571322D01*
X944010D01*
Y571673D01*
X943834D01*
Y571849D01*
X943659D01*
Y572024D01*
X943483D01*
Y572200D01*
X943307D01*
Y572376D01*
X943132D01*
Y572551D01*
X942956D01*
Y572902D01*
X942605D01*
Y573254D01*
X942429D01*
Y573429D01*
X942254D01*
Y573605D01*
X942078D01*
Y573781D01*
X941902D01*
Y573956D01*
X941727D01*
Y574132D01*
X941551D01*
Y574483D01*
X941376D01*
Y574659D01*
X941200D01*
Y574834D01*
X941024D01*
Y575010D01*
X940849D01*
Y575185D01*
X940673D01*
Y575536D01*
X940498D01*
Y575712D01*
X940322D01*
Y575888D01*
X940146D01*
Y576063D01*
X939971D01*
Y576239D01*
X939795D01*
Y576415D01*
X939620D01*
Y576590D01*
X939444D01*
Y576941D01*
X939268D01*
Y577117D01*
X939093D01*
Y577293D01*
X938917D01*
Y577468D01*
X938742D01*
Y577644D01*
X938566D01*
Y577995D01*
X938390D01*
Y578171D01*
X938215D01*
Y578346D01*
X938039D01*
Y578522D01*
X937863D01*
Y578698D01*
X937688D01*
Y578873D01*
X937512D01*
Y579049D01*
X937337D01*
Y579400D01*
X937161D01*
Y579576D01*
X936985D01*
Y579751D01*
X936810D01*
Y579927D01*
X936634D01*
Y580102D01*
X936459D01*
Y580454D01*
X936283D01*
Y580629D01*
X936107D01*
Y580805D01*
X935932D01*
Y580980D01*
X935756D01*
Y581156D01*
X935581D01*
Y581332D01*
X935405D01*
Y581507D01*
X935054D01*
Y581683D01*
X934878D01*
Y581858D01*
X934527D01*
Y582034D01*
X934000D01*
Y582210D01*
X933473D01*
Y582385D01*
X932595D01*
Y564298D01*
X932420D01*
Y564122D01*
X926976D01*
Y574834D01*
X926800D01*
Y575888D01*
X926976D01*
Y576063D01*
X926800D01*
Y576415D01*
X926976D01*
Y576766D01*
X926800D01*
Y578171D01*
X926976D01*
Y587829D01*
X934351D01*
Y587654D01*
X935405D01*
Y587478D01*
X935932D01*
Y587302D01*
X936459D01*
Y587127D01*
X936810D01*
Y586951D01*
X937161D01*
Y586776D01*
X937512D01*
Y586600D01*
X937688D01*
Y586424D01*
X938039D01*
Y586249D01*
X938215D01*
Y586073D01*
X938390D01*
Y585897D01*
X938742D01*
Y585722D01*
X938917D01*
Y585546D01*
X939093D01*
Y585371D01*
X939268D01*
Y585195D01*
X939444D01*
Y585019D01*
X939620D01*
Y584844D01*
X939795D01*
Y584668D01*
X939971D01*
Y584493D01*
X940146D01*
Y584141D01*
X940498D01*
Y583790D01*
X940673D01*
Y583615D01*
X940849D01*
Y583439D01*
X941024D01*
Y583263D01*
X941200D01*
Y583088D01*
X941376D01*
Y582737D01*
X941551D01*
Y582561D01*
X941727D01*
Y582385D01*
X941902D01*
Y582210D01*
X942078D01*
Y582034D01*
X942254D01*
Y581858D01*
X942429D01*
Y581683D01*
X942605D01*
Y581332D01*
X942781D01*
Y581156D01*
X942956D01*
Y580980D01*
X943132D01*
Y580805D01*
X943307D01*
Y580629D01*
X943483D01*
Y580454D01*
X943659D01*
Y580278D01*
Y580102D01*
X944010D01*
Y579751D01*
X944185D01*
Y579576D01*
X944361D01*
Y579400D01*
X944537D01*
Y579224D01*
X944712D01*
Y579049D01*
X944888D01*
Y578698D01*
X945063D01*
Y578522D01*
X945239D01*
Y578346D01*
X945415D01*
Y578171D01*
X945590D01*
Y577995D01*
X945766D01*
Y577820D01*
X945941D01*
Y577644D01*
X946117D01*
Y577293D01*
X946293D01*
Y577117D01*
X946468D01*
Y576941D01*
X946644D01*
Y576766D01*
X946820D01*
Y576590D01*
X946995D01*
Y576415D01*
X947171D01*
Y576063D01*
X947346D01*
Y575888D01*
X947522D01*
Y575712D01*
X947698D01*
Y575536D01*
X947873D01*
Y575361D01*
X948049D01*
Y575185D01*
X948224D01*
Y575010D01*
X948400D01*
Y574659D01*
X948576D01*
Y574483D01*
X948751D01*
Y574307D01*
X948927D01*
Y574132D01*
X949102D01*
Y573956D01*
X949278D01*
Y573781D01*
X949454D01*
Y573429D01*
X949629D01*
Y573254D01*
X949805D01*
Y573078D01*
X949980D01*
Y572902D01*
X950156D01*
Y572727D01*
X950332D01*
Y572551D01*
X950507D01*
Y572376D01*
X950683D01*
Y572024D01*
X951034D01*
Y571673D01*
X951210D01*
Y571497D01*
X951385D01*
Y571322D01*
X951561D01*
Y571146D01*
X951737D01*
Y570971D01*
X951912D01*
Y570795D01*
X952088D01*
Y570620D01*
X952263D01*
Y570444D01*
X952615D01*
Y570268D01*
X952790D01*
Y570093D01*
X953141D01*
Y569917D01*
X953668D01*
Y569742D01*
X955073D01*
Y587829D01*
X960693D01*
Y564298D01*
D02*
G37*
G36*
X921005Y588180D02*
X921181D01*
Y584317D01*
Y584141D01*
Y582737D01*
X893610D01*
Y582561D01*
X893259D01*
Y582385D01*
X893083D01*
Y582034D01*
X892908D01*
Y570795D01*
X893083D01*
Y570444D01*
X893259D01*
Y570268D01*
X893610D01*
Y570093D01*
X921181D01*
Y564649D01*
X892381D01*
Y564824D01*
X891503D01*
Y565000D01*
X890800D01*
Y565176D01*
X890274D01*
Y565351D01*
X889922D01*
Y565527D01*
X889571D01*
Y565702D01*
X889220D01*
Y565878D01*
X889044D01*
Y566054D01*
X888869D01*
Y566229D01*
X888693D01*
Y566405D01*
X888517D01*
Y566581D01*
X888342D01*
Y566756D01*
X888166D01*
Y566932D01*
X887991D01*
Y567283D01*
X887815D01*
Y567458D01*
X887639D01*
Y567985D01*
X887464D01*
Y568512D01*
X887288D01*
Y569039D01*
X887113D01*
Y583790D01*
X887288D01*
Y584493D01*
X887464D01*
Y585019D01*
X887639D01*
Y585371D01*
X887815D01*
Y585722D01*
X887991D01*
Y585897D01*
X888166D01*
Y586249D01*
X888342D01*
Y586424D01*
X888517D01*
Y586600D01*
X888693D01*
Y586776D01*
X888869D01*
Y586951D01*
X889220D01*
Y587127D01*
X889571D01*
Y587302D01*
X889747D01*
Y587478D01*
X890098D01*
Y587654D01*
X890625D01*
Y587829D01*
X891152D01*
Y588005D01*
X891854D01*
Y588180D01*
X893786D01*
Y588356D01*
X921005D01*
Y588180D01*
D02*
G37*
G36*
X1033746Y582385D02*
X1006351D01*
Y582210D01*
X1006000D01*
Y582034D01*
X1005649D01*
Y581507D01*
X1005473D01*
Y580454D01*
Y580278D01*
Y570620D01*
X1005649D01*
Y570093D01*
X1005824D01*
Y569917D01*
X1006176D01*
Y569742D01*
X1033746D01*
Y569566D01*
X1033922D01*
Y564298D01*
X1033746D01*
Y564122D01*
X1006000D01*
Y564298D01*
X1004595D01*
Y564473D01*
X1003717D01*
Y564649D01*
X1003190D01*
Y564824D01*
X1002839D01*
Y565000D01*
X1002488D01*
Y565176D01*
X1002137D01*
Y565351D01*
X1001785D01*
Y565527D01*
X1001610D01*
Y565702D01*
X1001434D01*
Y565878D01*
X1001083D01*
Y566054D01*
X1000907D01*
Y566405D01*
X1000732D01*
Y566581D01*
X1000556D01*
Y566932D01*
X1000380D01*
Y567283D01*
X1000205D01*
Y567634D01*
X1000029D01*
Y568161D01*
X999854D01*
Y569566D01*
X999678D01*
Y582561D01*
X999854D01*
Y583790D01*
X1000029D01*
Y584493D01*
X1000205D01*
Y584844D01*
X1000380D01*
Y585195D01*
X1000556D01*
Y585546D01*
X1000732D01*
Y585722D01*
X1000907D01*
Y585897D01*
X1001083D01*
Y586073D01*
X1001258D01*
Y586249D01*
X1001434D01*
Y586424D01*
X1001610D01*
Y586600D01*
X1001961D01*
Y586776D01*
X1002137D01*
Y586951D01*
X1002488D01*
Y587127D01*
X1003015D01*
Y587302D01*
X1003366D01*
Y587478D01*
X1004068D01*
Y587654D01*
X1005122D01*
Y587829D01*
X1033746D01*
Y582385D01*
D02*
G37*
G36*
X981766Y588707D02*
X982293D01*
Y588532D01*
X982819D01*
Y588356D01*
X982995D01*
Y588180D01*
X983346D01*
Y588005D01*
X983522D01*
Y587829D01*
X983873D01*
Y587654D01*
X984049D01*
Y587478D01*
X984224D01*
Y587302D01*
X984400D01*
Y587127D01*
X984576D01*
Y586951D01*
X984751D01*
Y586776D01*
X984927D01*
Y586600D01*
X985102D01*
Y586424D01*
X985278D01*
Y586249D01*
X985454D01*
Y585897D01*
X985629D01*
Y585722D01*
X985805D01*
Y585371D01*
X985980D01*
Y585019D01*
X986156D01*
Y584668D01*
X986332D01*
Y584141D01*
X986507D01*
Y583088D01*
X986683D01*
Y582385D01*
X984751D01*
Y567810D01*
Y567634D01*
Y563595D01*
X978780D01*
Y581683D01*
X965083D01*
Y587127D01*
X980888D01*
Y587478D01*
X981063D01*
Y588005D01*
X981239D01*
Y588532D01*
X981415D01*
Y588883D01*
X981766D01*
Y588707D01*
D02*
G37*
G36*
X1026195Y558151D02*
X1025317D01*
Y558678D01*
X1026195D01*
Y558151D01*
D02*
G37*
G36*
X1010741D02*
X1009863D01*
Y558678D01*
X1010741D01*
Y558151D01*
D02*
G37*
G36*
X985805D02*
X984927D01*
Y558678D01*
X985805D01*
Y558151D01*
D02*
G37*
G36*
X975268Y558503D02*
X975444D01*
Y558151D01*
X974566D01*
Y558327D01*
Y558503D01*
Y558678D01*
X975268D01*
Y558503D01*
D02*
G37*
G36*
X914683D02*
X914859D01*
Y558327D01*
X914683D01*
Y558151D01*
X913981D01*
Y558327D01*
X913805D01*
Y558503D01*
X913981D01*
Y558678D01*
X914683D01*
Y558503D01*
D02*
G37*
G36*
X1001434Y558151D02*
X1001610D01*
Y557976D01*
X1001434D01*
Y557800D01*
X1000907D01*
Y557976D01*
X997571D01*
Y557800D01*
X997395D01*
Y557273D01*
X1001434D01*
Y556571D01*
X997395D01*
Y556044D01*
X997571D01*
Y555868D01*
X1001434D01*
Y555341D01*
X996868D01*
Y555517D01*
X996517D01*
Y558327D01*
X996868D01*
Y558503D01*
X1001434D01*
Y558151D01*
D02*
G37*
G36*
X982117Y557624D02*
X982468D01*
Y557449D01*
X982644D01*
Y555517D01*
X982468D01*
Y555341D01*
X981766D01*
Y555166D01*
X980888D01*
Y555341D01*
X979483D01*
Y555693D01*
X979307D01*
Y556044D01*
Y556220D01*
Y556395D01*
X979483D01*
Y556571D01*
X979834D01*
Y556746D01*
X981415D01*
Y556571D01*
X981590D01*
Y556746D01*
X981941D01*
Y556922D01*
X981766D01*
Y557098D01*
X979483D01*
Y557800D01*
X982117D01*
Y557624D01*
D02*
G37*
G36*
X1021980D02*
X1022156D01*
Y557449D01*
X1022331D01*
Y556571D01*
X1022156D01*
Y556395D01*
X1021805D01*
Y556220D01*
X1020400D01*
Y556395D01*
X1019873D01*
Y555868D01*
X1022331D01*
Y555341D01*
X1019171D01*
Y555693D01*
X1018995D01*
Y557449D01*
X1019171D01*
Y557624D01*
X1019522D01*
Y557800D01*
X1021980D01*
Y557624D01*
D02*
G37*
G36*
X1018117D02*
X1018468D01*
Y556571D01*
X1018292D01*
Y556395D01*
X1017941D01*
Y556220D01*
X1016536D01*
Y556395D01*
X1016185D01*
Y556220D01*
X1016010D01*
Y555868D01*
X1018468D01*
Y555341D01*
X1015483D01*
Y555517D01*
X1015307D01*
Y555868D01*
X1015132D01*
Y557449D01*
X1015307D01*
Y557624D01*
X1015658D01*
Y557800D01*
X1018117D01*
Y557624D01*
D02*
G37*
G36*
X948049D02*
X948400D01*
Y556571D01*
X948224D01*
Y556395D01*
X947873D01*
Y556220D01*
X946293D01*
Y556395D01*
X946117D01*
Y556220D01*
X945941D01*
Y555868D01*
X948400D01*
Y555341D01*
X945415D01*
Y555517D01*
X945239D01*
Y555693D01*
X945063D01*
Y557449D01*
X945239D01*
Y557624D01*
X945590D01*
Y557800D01*
X948049D01*
Y557624D01*
D02*
G37*
G36*
X897298D02*
X897473D01*
Y557273D01*
X897649D01*
Y556922D01*
X897473D01*
Y556395D01*
X896947D01*
Y556220D01*
X895366D01*
Y556395D01*
X895191D01*
Y555868D01*
X897473D01*
Y555341D01*
X897122D01*
Y555166D01*
X896771D01*
Y555341D01*
X894488D01*
Y555517D01*
X894313D01*
Y557449D01*
X894488D01*
Y557624D01*
X894839D01*
Y557800D01*
X897298D01*
Y557624D01*
D02*
G37*
G36*
X970000Y557449D02*
Y555693D01*
X969824D01*
Y555517D01*
X969649D01*
Y555341D01*
X966839D01*
Y555517D01*
X966663D01*
Y557624D01*
X967366D01*
Y556044D01*
X967542D01*
Y555868D01*
X969122D01*
Y557624D01*
X970000D01*
Y557449D01*
D02*
G37*
G36*
X989317Y557624D02*
X989668D01*
Y557449D01*
X989844D01*
Y555693D01*
X989668D01*
Y555517D01*
X989493D01*
Y555341D01*
X986683D01*
Y555517D01*
X986507D01*
Y555693D01*
X986332D01*
Y556044D01*
Y556220D01*
Y557449D01*
X986507D01*
Y557624D01*
X986859D01*
Y557800D01*
X989317D01*
Y557624D01*
D02*
G37*
G36*
X984224Y557800D02*
X984576D01*
Y557624D01*
Y557449D01*
X984751D01*
Y557098D01*
X984224D01*
Y555341D01*
X983346D01*
Y557098D01*
X982995D01*
Y557800D01*
X983346D01*
Y558503D01*
X984224D01*
Y557800D01*
D02*
G37*
G36*
X978956Y557098D02*
X976673D01*
Y555868D01*
X978956D01*
Y555341D01*
X976146D01*
Y555517D01*
X975971D01*
Y555693D01*
X975795D01*
Y557273D01*
X975971D01*
Y557449D01*
X976146D01*
Y557624D01*
X976497D01*
Y557800D01*
X978956D01*
Y557098D01*
D02*
G37*
G36*
X965434Y557624D02*
X965961D01*
Y557449D01*
X966137D01*
Y555341D01*
X965258D01*
Y557098D01*
X964205D01*
Y555341D01*
X963327D01*
Y557098D01*
X962273D01*
Y555341D01*
X961571D01*
Y557273D01*
X961395D01*
Y557624D01*
X961571D01*
Y557800D01*
X965434D01*
Y557624D01*
D02*
G37*
G36*
X955249D02*
X955600D01*
Y557449D01*
X955776D01*
Y557098D01*
X955951D01*
Y555868D01*
X955776D01*
Y555517D01*
X955600D01*
Y555341D01*
X952615D01*
Y555517D01*
X952439D01*
Y557449D01*
X952615D01*
Y557624D01*
X952966D01*
Y557800D01*
X955249D01*
Y557624D01*
D02*
G37*
G36*
X951912Y557098D02*
X949629D01*
Y556044D01*
X949805D01*
Y555868D01*
X951912D01*
Y555341D01*
X949102D01*
Y555517D01*
X948927D01*
Y557449D01*
X949102D01*
Y557624D01*
X949454D01*
Y557800D01*
X951912D01*
Y557098D01*
D02*
G37*
G36*
X942956Y557624D02*
X943132D01*
Y557449D01*
X943307D01*
Y556746D01*
X943132D01*
Y556395D01*
X942781D01*
Y556220D01*
X940849D01*
Y555868D01*
X943132D01*
Y555341D01*
X940146D01*
Y555517D01*
X939971D01*
Y557449D01*
X940146D01*
Y557624D01*
X940498D01*
Y557800D01*
X942956D01*
Y557624D01*
D02*
G37*
G36*
X932244Y555693D02*
X932068D01*
Y555517D01*
X931893D01*
Y555341D01*
X929083D01*
Y555517D01*
X928907D01*
Y555693D01*
X928732D01*
Y557273D01*
X928907D01*
Y557624D01*
X929259D01*
Y557800D01*
X931366D01*
Y558327D01*
Y558503D01*
Y558678D01*
X932244D01*
Y555693D01*
D02*
G37*
G36*
X918371Y557098D02*
X916088D01*
Y556044D01*
X916264D01*
Y555868D01*
X918371D01*
Y555341D01*
X915561D01*
Y555517D01*
X915386D01*
Y555868D01*
X915210D01*
Y556220D01*
Y556395D01*
Y557273D01*
X915386D01*
Y557449D01*
X915561D01*
Y557624D01*
X915912D01*
Y557800D01*
X918371D01*
Y557098D01*
D02*
G37*
G36*
X908888Y557624D02*
X909239D01*
Y557449D01*
X909415D01*
Y555517D01*
X909239D01*
Y555341D01*
X906254D01*
Y555517D01*
X906078D01*
Y555693D01*
X905903D01*
Y557273D01*
X906078D01*
Y557624D01*
X906605D01*
Y557800D01*
X908888D01*
Y557624D01*
D02*
G37*
G36*
X900986D02*
X901161D01*
Y557273D01*
X900986D01*
Y557098D01*
X898878D01*
Y555868D01*
X901161D01*
Y555341D01*
X898176D01*
Y555693D01*
X898000D01*
Y557449D01*
X898176D01*
Y557624D01*
X898527D01*
Y557800D01*
X900986D01*
Y557624D01*
D02*
G37*
G36*
X892556Y557976D02*
X888517D01*
Y557800D01*
X888342D01*
Y557273D01*
X892381D01*
Y556571D01*
X888342D01*
Y556044D01*
X888517D01*
Y555868D01*
X892556D01*
Y555341D01*
X887815D01*
Y555517D01*
X887639D01*
Y555693D01*
X887464D01*
Y558151D01*
X887639D01*
Y558327D01*
X887815D01*
Y558503D01*
X892556D01*
Y557976D01*
D02*
G37*
G36*
X1029531Y557624D02*
X1029883D01*
Y557449D01*
X1030058D01*
Y557098D01*
X1030234D01*
Y555341D01*
X1030058D01*
Y555166D01*
X1029531D01*
Y555341D01*
X1029356D01*
Y557098D01*
X1027424D01*
Y555341D01*
X1026722D01*
Y555693D01*
Y555868D01*
Y557800D01*
X1029531D01*
Y557624D01*
D02*
G37*
G36*
X1025844D02*
X1026195D01*
Y555341D01*
X1026019D01*
Y555166D01*
X1025492D01*
Y555341D01*
X1025317D01*
Y557624D01*
X1025492D01*
Y557800D01*
X1025844D01*
Y557624D01*
D02*
G37*
G36*
X1024966Y557098D02*
X1023736D01*
Y555341D01*
X1023385D01*
Y555166D01*
X1023210D01*
Y555341D01*
X1022858D01*
Y556571D01*
Y556746D01*
Y557449D01*
X1023034D01*
Y557624D01*
X1023385D01*
Y557800D01*
X1024966D01*
Y557098D01*
D02*
G37*
G36*
X1014078Y557624D02*
X1014605D01*
Y557273D01*
X1014780D01*
Y555341D01*
X1014605D01*
Y555166D01*
X1014078D01*
Y555341D01*
X1013902D01*
Y557098D01*
X1012146D01*
Y555341D01*
X1011795D01*
Y555166D01*
X1011619D01*
Y555341D01*
X1011268D01*
Y557800D01*
X1014078D01*
Y557624D01*
D02*
G37*
G36*
X1010741Y555341D02*
X1010566D01*
Y555166D01*
X1010214D01*
Y555341D01*
X1009863D01*
Y557624D01*
X1010741D01*
Y555341D01*
D02*
G37*
G36*
X1004946Y557624D02*
X1005297D01*
Y557449D01*
X1005473D01*
Y555341D01*
X1005297D01*
Y555166D01*
X1004771D01*
Y555341D01*
X1004595D01*
Y557098D01*
X1002839D01*
Y555341D01*
X1002663D01*
Y555166D01*
X1002312D01*
Y555341D01*
X1001961D01*
Y557800D01*
X1004946D01*
Y557624D01*
D02*
G37*
G36*
X993180D02*
X993532D01*
Y557449D01*
X993707D01*
Y557098D01*
X993883D01*
Y555341D01*
X993532D01*
Y555166D01*
X993180D01*
Y555341D01*
X993005D01*
Y557098D01*
X991073D01*
Y555341D01*
X990371D01*
Y557449D01*
X990195D01*
Y557624D01*
X990371D01*
Y557800D01*
X993180D01*
Y557624D01*
D02*
G37*
G36*
X985805Y556395D02*
Y556220D01*
Y555341D01*
X985454D01*
Y555166D01*
X985278D01*
Y555341D01*
X984927D01*
Y557624D01*
X985805D01*
Y556395D01*
D02*
G37*
G36*
X975444Y556044D02*
Y555868D01*
Y555341D01*
X974917D01*
Y555166D01*
X974741D01*
Y555341D01*
X974566D01*
Y557624D01*
X975444D01*
Y556044D01*
D02*
G37*
G36*
X973512Y557624D02*
X973863D01*
Y557273D01*
X974039D01*
Y555341D01*
X973863D01*
Y555166D01*
X973337D01*
Y555341D01*
X973161D01*
Y557098D01*
X971405D01*
Y555341D01*
X971054D01*
Y555166D01*
X970878D01*
Y555341D01*
X970527D01*
Y557800D01*
X973512D01*
Y557624D01*
D02*
G37*
G36*
X960341D02*
X960693D01*
Y557449D01*
X960868D01*
Y557098D01*
X961044D01*
Y555341D01*
X960693D01*
Y555166D01*
X960341D01*
Y555341D01*
X960166D01*
Y557098D01*
X959112D01*
Y555341D01*
X958234D01*
Y557098D01*
X957180D01*
Y555341D01*
X957005D01*
Y555166D01*
X956478D01*
Y555341D01*
X956302D01*
Y557800D01*
X960341D01*
Y557624D01*
D02*
G37*
G36*
X944537Y558503D02*
X944712D01*
Y557449D01*
X944537D01*
Y555341D01*
X944361D01*
Y555166D01*
X944010D01*
Y555341D01*
X943834D01*
Y558678D01*
X944537D01*
Y558503D01*
D02*
G37*
G36*
X939971Y557976D02*
X937863D01*
Y555341D01*
X937512D01*
Y555166D01*
X937161D01*
Y555341D01*
X936985D01*
Y557449D01*
Y557624D01*
Y557800D01*
X936810D01*
Y557976D01*
X934878D01*
Y558503D01*
X939971D01*
Y557976D01*
D02*
G37*
G36*
X927678Y557624D02*
X928029D01*
Y557273D01*
X928205D01*
Y555341D01*
X927854D01*
Y555166D01*
X927503D01*
Y555341D01*
X927327D01*
Y557098D01*
X925571D01*
Y556220D01*
Y556044D01*
Y555341D01*
X925395D01*
Y555166D01*
X924868D01*
Y555341D01*
X924693D01*
Y557800D01*
X927678D01*
Y557624D01*
D02*
G37*
G36*
X923815D02*
X923990D01*
Y557449D01*
X924166D01*
Y557098D01*
X924342D01*
Y555868D01*
X924166D01*
Y555517D01*
X923990D01*
Y555341D01*
X923464D01*
Y555166D01*
X922586D01*
Y555341D01*
X921181D01*
Y555517D01*
X921005D01*
Y556571D01*
X921356D01*
Y556746D01*
X923464D01*
Y557098D01*
X921005D01*
Y557800D01*
X923815D01*
Y557624D01*
D02*
G37*
G36*
X914683Y555341D02*
X914332D01*
Y555166D01*
X914156D01*
Y555341D01*
X913981D01*
Y555693D01*
Y555868D01*
Y557624D01*
X914683D01*
Y555341D01*
D02*
G37*
G36*
X912751Y557624D02*
X913103D01*
Y557449D01*
X913278D01*
Y557098D01*
X913454D01*
Y555341D01*
X913103D01*
Y555166D01*
X912751D01*
Y555341D01*
X912576D01*
Y557098D01*
X910644D01*
Y556220D01*
X910820D01*
Y555341D01*
X910469D01*
Y555166D01*
X909942D01*
Y557273D01*
X909766D01*
Y557449D01*
Y557800D01*
X912751D01*
Y557624D01*
D02*
G37*
G36*
X905552Y557098D02*
X904322D01*
Y556922D01*
X904147D01*
Y556395D01*
X904322D01*
Y555341D01*
X903971D01*
Y555166D01*
X903620D01*
Y555341D01*
X903444D01*
Y557449D01*
X903620D01*
Y557624D01*
X903971D01*
Y557800D01*
X905552D01*
Y557098D01*
D02*
G37*
G36*
X902566Y557800D02*
X903093D01*
Y557098D01*
X902566D01*
Y555868D01*
Y555693D01*
Y555341D01*
X902039D01*
Y555166D01*
X901864D01*
Y555341D01*
X901688D01*
Y556220D01*
X901864D01*
Y556922D01*
X901688D01*
Y557098D01*
X901337D01*
Y557800D01*
X901864D01*
Y557976D01*
X901688D01*
Y558151D01*
X901864D01*
Y558503D01*
X902566D01*
Y557800D01*
D02*
G37*
G36*
X893786Y558151D02*
Y557976D01*
Y555341D01*
X893434D01*
Y555166D01*
X893083D01*
Y555341D01*
X892908D01*
Y558678D01*
X893786D01*
Y558151D01*
D02*
G37*
G36*
X1033570Y557624D02*
X1034097D01*
Y556220D01*
X1034273D01*
Y555868D01*
X1034097D01*
Y554815D01*
X1033922D01*
Y554639D01*
X1033746D01*
Y554464D01*
X1030761D01*
Y554990D01*
X1033219D01*
Y555166D01*
X1033395D01*
Y555517D01*
X1031288D01*
Y555693D01*
X1030936D01*
Y555868D01*
X1030761D01*
Y556922D01*
X1030585D01*
Y557273D01*
X1030761D01*
Y557624D01*
X1031288D01*
Y557800D01*
X1033570D01*
Y557624D01*
D02*
G37*
G36*
X1008810D02*
X1009336D01*
Y557273D01*
X1009512D01*
Y554990D01*
X1009336D01*
Y554815D01*
X1009161D01*
Y554639D01*
X1008985D01*
Y554464D01*
X1006176D01*
Y554639D01*
X1006000D01*
Y554990D01*
X1008458D01*
Y555166D01*
X1008634D01*
Y555517D01*
X1006527D01*
Y555693D01*
X1006176D01*
Y555868D01*
X1006000D01*
Y557098D01*
Y557273D01*
Y557624D01*
X1006527D01*
Y557800D01*
X1008810D01*
Y557624D01*
D02*
G37*
%LPC*%
G36*
X981766Y556395D02*
X980361D01*
Y556220D01*
X980185D01*
Y555868D01*
X981766D01*
Y556395D01*
D02*
G37*
G36*
X1021453Y557098D02*
X1019873D01*
Y556746D01*
X1021453D01*
Y557098D01*
D02*
G37*
G36*
X1017590D02*
X1016010D01*
Y556922D01*
Y556746D01*
X1017590D01*
Y557098D01*
D02*
G37*
G36*
X947522D02*
X945941D01*
Y556746D01*
X946117D01*
Y556571D01*
X947346D01*
Y556746D01*
X947522D01*
Y556922D01*
Y557098D01*
D02*
G37*
G36*
X896771D02*
X895015D01*
Y556746D01*
X895366D01*
Y556571D01*
X895542D01*
Y556746D01*
X895717D01*
Y556571D01*
X896420D01*
Y556746D01*
X896771D01*
Y557098D01*
D02*
G37*
G36*
X988966D02*
X987210D01*
Y555868D01*
X988966D01*
Y557098D01*
D02*
G37*
G36*
X955073D02*
X953141D01*
Y556044D01*
X953317D01*
Y555868D01*
X955073D01*
Y557098D01*
D02*
G37*
G36*
X942429D02*
X940849D01*
Y556746D01*
X941727D01*
Y556571D01*
X942254D01*
Y556746D01*
X942429D01*
Y557098D01*
D02*
G37*
G36*
X931366D02*
X929610D01*
Y555868D01*
X931366D01*
Y557098D01*
D02*
G37*
G36*
X908537D02*
X906781D01*
Y555868D01*
X908537D01*
Y557098D01*
D02*
G37*
G36*
X923288Y556395D02*
X921883D01*
Y555868D01*
X923288D01*
Y556044D01*
X923464D01*
Y556220D01*
X923288D01*
Y556395D01*
D02*
G37*
G36*
X1033395Y557098D02*
X1031463D01*
Y556395D01*
X1031639D01*
Y556220D01*
X1033219D01*
Y556395D01*
X1033395D01*
Y556746D01*
Y556922D01*
Y557098D01*
D02*
G37*
G36*
X1008634D02*
X1006702D01*
Y556395D01*
X1006878D01*
Y556220D01*
X1008458D01*
Y556395D01*
X1008634D01*
Y557098D01*
D02*
G37*
%LPD*%
D10*
X366000Y740000D02*
G03*
X366000Y740000I-1000J0D01*
G01*
X541000Y915000D02*
G03*
X541000Y915000I-1000J0D01*
G01*
Y710000D02*
G03*
X541000Y710000I-1000J0D01*
G01*
X833000Y1150000D02*
G03*
X833000Y1150000I-1000J0D01*
G01*
X976000Y911900D02*
G03*
X976000Y911900I-1000J0D01*
G01*
X971000Y695400D02*
G03*
X971000Y695400I-1000J0D01*
G01*
X1005200Y805000D02*
G03*
X1005200Y805000I-1000J0D01*
G01*
X796000Y1035000D02*
G03*
X796000Y1035000I-1000J0D01*
G01*
X733500Y665000D02*
G03*
X733500Y665000I-1000J0D01*
G01*
X876000Y907500D02*
G03*
X876000Y907500I-1000J0D01*
G01*
X666000Y607500D02*
G03*
X666000Y607500I-1000J0D01*
G01*
X751310Y549600D02*
G03*
X751310Y549600I-1000J0D01*
G01*
D11*
X727500Y915000D02*
G03*
X727500Y915000I-90000J0D01*
G01*
Y710000D02*
G03*
X727500Y710000I-90000J0D01*
G01*
X820000Y1002500D02*
G03*
X820000Y1002500I-25000J0D01*
G01*
X790000Y665000D02*
G03*
X790000Y665000I-25000J0D01*
G01*
X900000Y940000D02*
G03*
X900000Y940000I-25000J0D01*
G01*
X690000Y575000D02*
G03*
X690000Y575000I-25000J0D01*
G01*
X412500Y747800D02*
Y753800D01*
X317500Y747800D02*
X412500D01*
X317500D02*
Y753800D01*
Y906200D01*
X412500D01*
Y753800D02*
Y906200D01*
X317500Y753800D02*
X412500D01*
X670000Y1073250D02*
Y1156750D01*
X630000Y1073250D02*
Y1156750D01*
X670000D01*
X630000Y1073250D02*
X670000D01*
X860000Y865014D02*
Y895014D01*
X760000D02*
X860000D01*
X760000Y865014D02*
Y895014D01*
Y865014D02*
X860000D01*
X765000Y824986D02*
X865000D01*
Y794986D02*
Y824986D01*
X765000Y794986D02*
X865000D01*
X765000D02*
Y824986D01*
X721500Y1075700D02*
X848500D01*
X721500D02*
Y1092900D01*
Y1127100D02*
Y1144300D01*
X848500D01*
Y1075700D02*
Y1092900D01*
Y1127100D02*
Y1144300D01*
X874200Y1136000D02*
X975800D01*
Y1064000D02*
Y1136000D01*
Y1146000D01*
X874200D02*
X975800D01*
X874200Y1136000D02*
Y1146000D01*
Y1064000D02*
Y1136000D01*
Y1064000D02*
X975800D01*
X1000400Y854600D02*
Y905400D01*
X943200Y854600D02*
Y905400D01*
X1000400D01*
X943200Y854600D02*
X1000400D01*
X944600Y701900D02*
Y752700D01*
X1001800Y701900D02*
Y752700D01*
X944600Y701900D02*
X1001800D01*
X944600Y752700D02*
X1001800D01*
X946900Y779600D02*
X997700D01*
X946900Y836800D02*
X997700D01*
Y779600D02*
Y836800D01*
X946900Y779600D02*
Y836800D01*
X723010Y603600D02*
X828410D01*
Y556600D02*
Y603600D01*
X723010Y556600D02*
X828410D01*
X723010D02*
Y603600D01*
X991500Y933000D02*
Y1037000D01*
X945500Y933000D02*
X991500D01*
X945500D02*
Y1037000D01*
X991500D01*
D12*
X787140Y872394D02*
G03*
X789680Y869854I2540J0D01*
G01*
X789680Y890174D02*
G03*
X787140Y887634I0J-2540D01*
G01*
X830320Y869854D02*
G03*
X832860Y872394I0J2540D01*
G01*
Y887634D02*
G03*
X830320Y890174I-2540J0D01*
G01*
X792140Y802366D02*
G03*
X794680Y799826I2540J0D01*
G01*
X794680Y820146D02*
G03*
X792140Y817606I0J-2540D01*
G01*
X835320Y799826D02*
G03*
X837860Y802366I0J2540D01*
G01*
Y817606D02*
G03*
X835320Y820146I-2540J0D01*
G01*
X477300Y575000D02*
X490000D01*
Y580842D01*
Y575000D02*
X501430Y580842D01*
Y569158D02*
Y580842D01*
X490000Y575000D02*
X501430Y569158D01*
X490000Y575000D02*
X512860D01*
X490000Y569158D02*
Y575000D01*
X439200Y547060D02*
Y602940D01*
X540800Y547060D02*
Y602940D01*
X439200D02*
X540800D01*
X439200Y547060D02*
X540800D01*
X810000Y880014D02*
X816350D01*
X799840Y873664D02*
Y886364D01*
X810000Y880014D01*
X794760D02*
X810000D01*
X799840Y873664D02*
X810000Y880014D01*
Y873664D02*
Y880014D01*
Y886364D01*
X789680Y890174D02*
X830320D01*
X789680Y869854D02*
X830320D01*
X794680Y820146D02*
X835320D01*
X794680Y799826D02*
X835320D01*
X815000Y803636D02*
Y809986D01*
Y816336D01*
Y809986D02*
X825160Y816336D01*
X815000Y809986D02*
X830240D01*
X815000D02*
X825160Y803636D01*
Y816336D01*
X808650Y809986D02*
X815000D01*
X502940Y904200D02*
Y1005800D01*
X447060Y904200D02*
Y1005800D01*
X502940D01*
X447060Y904200D02*
X502940D01*
X475000Y955000D02*
X480842D01*
X475000D02*
Y977860D01*
Y955000D02*
X480842Y966430D01*
X469158D02*
X480842D01*
X469158D02*
X475000Y955000D01*
X469158D02*
X475000D01*
Y942300D02*
Y955000D01*
Y707300D02*
Y720000D01*
X469158D02*
X475000D01*
X469158Y731430D02*
X475000Y720000D01*
X469158Y731430D02*
X480842D01*
X475000Y720000D02*
X480842Y731430D01*
X475000Y720000D02*
Y742860D01*
Y720000D02*
X480842D01*
X447060Y669200D02*
X502940D01*
X447060Y770800D02*
X502940D01*
X447060Y669200D02*
Y770800D01*
X502940Y669200D02*
Y770800D01*
X480000Y1120000D02*
X492700D01*
X480000Y1114158D02*
Y1120000D01*
X468570Y1114158D02*
X480000Y1120000D01*
X468570Y1114158D02*
Y1125842D01*
X480000Y1120000D01*
X457140D02*
X480000D01*
Y1125842D01*
X530800Y1092060D02*
Y1147940D01*
X429200Y1092060D02*
Y1147940D01*
Y1092060D02*
X530800D01*
X429200Y1147940D02*
X530800D01*
D13*
X935600Y1010500D02*
G03*
X935600Y1010500I-1000J0D01*
G01*
D14*
X1004922Y1012617D02*
Y999922D01*
X1007461Y997383D01*
X1012539D01*
X1015078Y999922D01*
Y1012617D01*
X722884Y629153D02*
Y616457D01*
X725423Y613918D01*
X730501D01*
X733041Y616457D01*
Y629153D01*
X738119Y613918D02*
X743197D01*
X740658D01*
Y629153D01*
X738119Y626614D01*
X805000Y1170078D02*
X802461Y1172617D01*
X797383D01*
X794843Y1170078D01*
Y1167539D01*
X797383Y1165000D01*
X802461D01*
X805000Y1162461D01*
Y1159922D01*
X802461Y1157383D01*
X797383D01*
X794843Y1159922D01*
X810078Y1157383D02*
X815157D01*
X812618D01*
Y1172617D01*
X810078Y1170078D01*
X1027461Y817617D02*
X1022383D01*
X1024922D01*
Y804922D01*
X1022383Y802383D01*
X1019843D01*
X1017304Y804922D01*
X1042696Y817617D02*
X1032539D01*
Y810000D01*
X1037617Y812539D01*
X1040157D01*
X1042696Y810000D01*
Y804922D01*
X1040157Y802383D01*
X1035078D01*
X1032539Y804922D01*
X1022461Y732617D02*
X1017383D01*
X1019922D01*
Y719922D01*
X1017383Y717383D01*
X1014843D01*
X1012304Y719922D01*
X1035157Y717383D02*
Y732617D01*
X1027539Y725000D01*
X1037696D01*
X1027461Y892617D02*
X1022383D01*
X1024922D01*
Y879922D01*
X1022383Y877383D01*
X1019843D01*
X1017304Y879922D01*
X1032539Y890078D02*
X1035078Y892617D01*
X1040157D01*
X1042696Y890078D01*
Y887539D01*
X1040157Y885000D01*
X1037617D01*
X1040157D01*
X1042696Y882461D01*
Y879922D01*
X1040157Y877383D01*
X1035078D01*
X1032539Y879922D01*
X884185Y1171697D02*
X879106D01*
X881646D01*
Y1159001D01*
X879106Y1156462D01*
X876567D01*
X874028Y1159001D01*
X899420Y1156462D02*
X889263D01*
X899420Y1166619D01*
Y1169158D01*
X896881Y1171697D01*
X891802D01*
X889263Y1169158D01*
X365000Y927617D02*
X359922D01*
X362461D01*
Y914922D01*
X359922Y912383D01*
X357383D01*
X354843Y914922D01*
X370078Y912383D02*
X375157D01*
X372618D01*
Y927617D01*
X370078Y925078D01*
X600000Y1167617D02*
X589843D01*
Y1160000D01*
X594922D01*
X589843D01*
Y1152383D01*
X605078D02*
X610157D01*
X607618D01*
Y1167617D01*
X605078Y1165078D01*
X766826Y848609D02*
Y833374D01*
X774444D01*
X776983Y835913D01*
Y846070D01*
X774444Y848609D01*
X766826D01*
X792218D02*
X787139Y846070D01*
X782061Y840992D01*
Y835913D01*
X784600Y833374D01*
X789679D01*
X792218Y835913D01*
Y838452D01*
X789679Y840992D01*
X782061D01*
X762000Y918459D02*
Y903224D01*
X769617D01*
X772157Y905763D01*
Y915920D01*
X769617Y918459D01*
X762000D01*
X787392D02*
X777235D01*
Y910842D01*
X782313Y913381D01*
X784853D01*
X787392Y910842D01*
Y905763D01*
X784853Y903224D01*
X779774D01*
X777235Y905763D01*
X422304Y1177617D02*
Y1162383D01*
X429922D01*
X432461Y1164922D01*
Y1175078D01*
X429922Y1177617D01*
X422304D01*
X445157Y1162383D02*
Y1177617D01*
X437539Y1170000D01*
X447696D01*
X412304Y622617D02*
Y607383D01*
X419922D01*
X422461Y609922D01*
Y620078D01*
X419922Y622617D01*
X412304D01*
X427539Y620078D02*
X430078Y622617D01*
X435157D01*
X437696Y620078D01*
Y617539D01*
X435157Y615000D01*
X432617D01*
X435157D01*
X437696Y612461D01*
Y609922D01*
X435157Y607383D01*
X430078D01*
X427539Y609922D01*
X417304Y722617D02*
Y707383D01*
X424922D01*
X427461Y709922D01*
Y720078D01*
X424922Y722617D01*
X417304D01*
X442696Y707383D02*
X432539D01*
X442696Y717539D01*
Y720078D01*
X440157Y722617D01*
X435078D01*
X432539Y720078D01*
X448832Y1074161D02*
Y1058926D01*
X456450D01*
X458989Y1061465D01*
Y1071622D01*
X456450Y1074161D01*
X448832D01*
X464067Y1058926D02*
X469145D01*
X466606D01*
Y1074161D01*
X464067Y1071622D01*
X617461Y585078D02*
X614922Y587617D01*
X609843D01*
X607304Y585078D01*
Y574922D01*
X609843Y572382D01*
X614922D01*
X617461Y574922D01*
X632696Y587617D02*
X627617Y585078D01*
X622539Y580000D01*
Y574922D01*
X625078Y572382D01*
X630157D01*
X632696Y574922D01*
Y577461D01*
X630157Y580000D01*
X622539D01*
X860041Y988056D02*
X857502Y990595D01*
X852423D01*
X849884Y988056D01*
Y977899D01*
X852423Y975360D01*
X857502D01*
X860041Y977899D01*
X875276Y990595D02*
X865119D01*
Y982978D01*
X870197Y985517D01*
X872737D01*
X875276Y982978D01*
Y977899D01*
X872737Y975360D01*
X867658D01*
X865119Y977899D01*
X787461Y705078D02*
X784922Y707617D01*
X779843D01*
X777304Y705078D01*
Y694922D01*
X779843Y692383D01*
X784922D01*
X787461Y694922D01*
X800157Y692383D02*
Y707617D01*
X792539Y700000D01*
X802696D01*
X780031Y1057398D02*
X777492Y1059937D01*
X772413D01*
X769874Y1057398D01*
Y1047241D01*
X772413Y1044702D01*
X777492D01*
X780031Y1047241D01*
X785109Y1057398D02*
X787648Y1059937D01*
X792727D01*
X795266Y1057398D01*
Y1054859D01*
X792727Y1052319D01*
X790187D01*
X792727D01*
X795266Y1049780D01*
Y1047241D01*
X792727Y1044702D01*
X787648D01*
X785109Y1047241D01*
X537461Y795078D02*
X534922Y797617D01*
X529843D01*
X527304Y795078D01*
Y784922D01*
X529843Y782383D01*
X534922D01*
X537461Y784922D01*
X552696Y782383D02*
X542539D01*
X552696Y792539D01*
Y795078D01*
X550157Y797617D01*
X545078D01*
X542539Y795078D01*
X550669Y1028188D02*
X548130Y1030727D01*
X543051D01*
X540512Y1028188D01*
Y1018031D01*
X543051Y1015492D01*
X548130D01*
X550669Y1018031D01*
X555747Y1015492D02*
X560825D01*
X558286D01*
Y1030727D01*
X555747Y1028188D01*
M02*
