G04*
G04 #@! TF.GenerationSoftware,Altium Limited,Altium Designer,23.7.1 (13)*
G04*
G04 Layer_Physical_Order=1*
G04 Layer_Color=255*
%FSLAX44Y44*%
%MOMM*%
G71*
G04*
G04 #@! TF.SameCoordinates,A9341A08-D9DD-44F6-B1FE-122BD565C652*
G04*
G04*
G04 #@! TF.FilePolarity,Positive*
G04*
G01*
G75*
%ADD38C,3.0000*%
%ADD39C,1.7000*%
%ADD40C,2.0000*%
%ADD41C,2.7000*%
%ADD42C,2.5000*%
%ADD43R,3.8100X3.8100*%
%ADD44C,3.8100*%
%ADD45C,1.9500*%
%ADD46R,1.9500X1.9500*%
%ADD47C,1.3500*%
%ADD48R,1.4000X1.4000*%
%ADD49C,1.4000*%
%ADD50R,3.8100X3.8100*%
%ADD51R,2.7750X2.7750*%
%ADD52C,2.7750*%
%ADD53C,1.6500*%
%ADD54R,1.6500X1.6500*%
%ADD55C,1.3700*%
%ADD56R,1.3700X1.3700*%
%ADD57R,1.3700X1.3700*%
%ADD58C,1.1000*%
%ADD59R,1.1000X1.1000*%
%ADD60R,1.1000X1.1000*%
%ADD61C,1.8600*%
%ADD62R,1.8600X1.8600*%
%ADD63C,1.9100*%
%ADD64R,1.9100X1.9100*%
%ADD65C,3.5000*%
D38*
X310000Y828785D02*
X359585Y779200D01*
X310000Y828785D02*
Y1026200D01*
X403800Y1120000D01*
X367000Y878800D02*
X475000D01*
X365000Y880800D02*
X367000Y878800D01*
X359585Y779200D02*
X365000D01*
Y623800D02*
Y779200D01*
Y623800D02*
X413800Y575000D01*
X832000Y1110000D02*
X894600D01*
X899600Y1105000D01*
X795000Y1019010D02*
X795380Y1019390D01*
X566780Y575000D02*
X616780Y525000D01*
X745375D01*
X794010Y1020000D02*
X795000Y1019010D01*
X719600Y1020000D02*
X794010D01*
X650000Y1089600D02*
X719600Y1020000D01*
X600000Y1039600D02*
X650000Y1089600D01*
X600000Y915000D02*
Y1039600D01*
X566200Y575000D02*
X566780D01*
X675000Y710000D02*
X700000Y735000D01*
X817426D01*
X475000Y643800D02*
X600000Y768800D01*
Y915000D01*
X556200Y1120000D02*
X605619D01*
X663475Y1153875D02*
X756174D01*
X649429Y1139829D02*
X663475Y1153875D01*
X636019Y1089600D02*
X650000D01*
X605619Y1120000D02*
X636019Y1089600D01*
X756174Y1153875D02*
X785000Y1125049D01*
Y1110000D02*
Y1125049D01*
X475000Y796200D02*
Y878800D01*
D39*
X820000Y580000D02*
X853100Y613100D01*
Y810000D01*
X985000Y805000D02*
X1000350Y820350D01*
Y877800D01*
X985500Y892650D02*
X1000350Y877800D01*
X975050Y892650D02*
X985500D01*
X975000Y892700D02*
X975050Y892650D01*
X960000Y947000D02*
X975000Y932000D01*
Y892700D02*
Y932000D01*
X948500Y714600D02*
X970000D01*
X853100Y810000D02*
X948500Y714600D01*
D40*
X848100Y880000D02*
Y896590D01*
X875000Y923490D01*
X936490D01*
X960000Y947000D01*
D41*
X795380Y1019390D02*
X960000D01*
D42*
X775710Y555335D02*
Y575000D01*
X745375Y525000D02*
X775710Y555335D01*
X777500Y665000D02*
X817426Y704926D01*
Y735000D01*
X777500Y576790D02*
Y665000D01*
D43*
X413800Y575000D02*
D03*
X556200Y1120000D02*
D03*
D44*
X566200Y575000D02*
D03*
X475000Y1031200D02*
D03*
Y796200D02*
D03*
X403800Y1120000D02*
D03*
D45*
X365000Y880800D02*
D03*
Y830000D02*
D03*
D46*
Y779200D02*
D03*
D47*
X650000Y1140400D02*
D03*
Y1089600D02*
D03*
D48*
X600000Y915000D02*
D03*
Y710000D02*
D03*
X848100Y880000D02*
D03*
X776900Y810000D02*
D03*
D49*
X675000Y915000D02*
D03*
Y710000D02*
D03*
X771900Y880000D02*
D03*
X853100Y810000D02*
D03*
D50*
X475000Y878800D02*
D03*
Y643800D02*
D03*
D51*
X832000Y1110000D02*
D03*
D52*
X785000D02*
D03*
X738000D02*
D03*
D53*
X899600Y1105000D02*
D03*
D54*
X950400D02*
D03*
D55*
X975000Y867300D02*
D03*
X970000Y740000D02*
D03*
X959600Y805000D02*
D03*
D56*
X975000Y892700D02*
D03*
X970000Y714600D02*
D03*
D57*
X985000Y805000D02*
D03*
D58*
X795000Y985990D02*
D03*
X781510Y665000D02*
D03*
X875000Y956510D02*
D03*
X665000Y558490D02*
D03*
D59*
X795000Y1019010D02*
D03*
X875000Y923490D02*
D03*
X665000Y591510D02*
D03*
D60*
X748490Y665000D02*
D03*
D61*
X810000Y575000D02*
D03*
X775710D02*
D03*
D62*
X741420D02*
D03*
D63*
X960000Y947000D02*
D03*
Y985000D02*
D03*
D64*
Y1023200D02*
D03*
D65*
X280000Y1165000D02*
D03*
X278730Y515000D02*
D03*
X1040000D02*
D03*
Y1165000D02*
D03*
M02*
