G04*
G04 #@! TF.GenerationSoftware,Altium Limited,Altium Designer,23.7.1 (13)*
G04*
G04 Layer_Color=8388736*
%FSLAX44Y44*%
%MOMM*%
G71*
G04*
G04 #@! TF.SameCoordinates,A9341A08-D9DD-44F6-B1FE-122BD565C652*
G04*
G04*
G04 #@! TF.FilePolarity,Positive*
G04*
G01*
G75*
%ADD10C,0.2000*%
%ADD11C,0.1270*%
%ADD12C,0.1524*%
%ADD13C,0.3000*%
%ADD14C,0.2540*%
%ADD67C,0.3540*%
%ADD68C,0.3500*%
G36*
X844210Y807459D02*
X837869D01*
Y812540D01*
X844210D01*
Y807459D01*
D02*
G37*
G36*
X792140Y807456D02*
X785739D01*
Y812540D01*
X792140D01*
Y807456D01*
D02*
G37*
G36*
X481350Y770800D02*
X468650D01*
Y779690D01*
X481350D01*
Y770800D01*
D02*
G37*
G36*
X502940Y678090D02*
X447060D01*
Y685710D01*
X502940D01*
Y678090D01*
D02*
G37*
G36*
X481350Y660310D02*
X468650D01*
Y669200D01*
X481350D01*
Y660310D01*
D02*
G37*
G36*
X549690Y568650D02*
X540800D01*
Y581350D01*
X549690D01*
Y568650D01*
D02*
G37*
G36*
X439200D02*
X430310D01*
Y581350D01*
X439200D01*
Y568650D01*
D02*
G37*
G36*
X455710Y547060D02*
X448090D01*
Y602940D01*
X455710D01*
Y547060D01*
D02*
G37*
G36*
X481350Y904200D02*
Y895310D01*
X468650D01*
Y904200D01*
X481350D01*
D02*
G37*
G36*
X502940Y920710D02*
Y913090D01*
X447060D01*
Y920710D01*
X502940D01*
D02*
G37*
G36*
X481350Y1014690D02*
Y1005800D01*
X468650D01*
Y1014690D01*
X481350D01*
D02*
G37*
G36*
X420310Y1126350D02*
X429200D01*
Y1113650D01*
X420310D01*
Y1126350D01*
D02*
G37*
G36*
X514290Y1147940D02*
X521910D01*
Y1092060D01*
X514290D01*
Y1147940D01*
D02*
G37*
G36*
X530800Y1126350D02*
X539690D01*
Y1113650D01*
X530800D01*
Y1126350D01*
D02*
G37*
G36*
X780790Y882541D02*
X787131D01*
Y877460D01*
X780790D01*
Y882541D01*
D02*
G37*
G36*
X832860Y882544D02*
X839261D01*
Y877460D01*
X832860D01*
Y882544D01*
D02*
G37*
D10*
X366000Y740000D02*
G03*
X366000Y740000I-1000J0D01*
G01*
X541000Y915000D02*
G03*
X541000Y915000I-1000J0D01*
G01*
Y710000D02*
G03*
X541000Y710000I-1000J0D01*
G01*
X833000Y1150000D02*
G03*
X833000Y1150000I-1000J0D01*
G01*
X751310Y549600D02*
G03*
X751310Y549600I-1000J0D01*
G01*
D11*
X727500Y915000D02*
G03*
X727500Y915000I-90000J0D01*
G01*
Y710000D02*
G03*
X727500Y710000I-90000J0D01*
G01*
X820000Y1002500D02*
G03*
X820000Y1002500I-25000J0D01*
G01*
X790000Y665000D02*
G03*
X790000Y665000I-25000J0D01*
G01*
X900000Y940000D02*
G03*
X900000Y940000I-25000J0D01*
G01*
X690000Y575000D02*
G03*
X690000Y575000I-25000J0D01*
G01*
X412500Y747800D02*
Y753800D01*
X317500Y747800D02*
X412500D01*
X317500D02*
Y753800D01*
Y906200D01*
X412500D01*
Y753800D02*
Y906200D01*
X317500Y753800D02*
X412500D01*
X670000Y1073250D02*
Y1156750D01*
X630000Y1073250D02*
Y1156750D01*
X670000D01*
X630000Y1073250D02*
X670000D01*
X860000Y865000D02*
Y895000D01*
X760000D02*
X860000D01*
X760000Y865000D02*
Y895000D01*
Y865000D02*
X860000D01*
X765000Y825000D02*
X865000D01*
Y795000D02*
Y825000D01*
X765000Y795000D02*
X865000D01*
X765000D02*
Y825000D01*
X721500Y1075700D02*
X848500D01*
X721500D02*
Y1092900D01*
Y1127100D02*
Y1144300D01*
X848500D01*
Y1075700D02*
Y1092900D01*
Y1127100D02*
Y1144300D01*
X874200Y1136000D02*
X975800D01*
Y1064000D02*
Y1136000D01*
Y1146000D01*
X874200D02*
X975800D01*
X874200Y1136000D02*
Y1146000D01*
Y1064000D02*
Y1136000D01*
Y1064000D02*
X975800D01*
X1000400Y854600D02*
Y905400D01*
X943200Y854600D02*
Y905400D01*
X1000400D01*
X943200Y854600D02*
X1000400D01*
X944600Y701900D02*
Y752700D01*
X1001800Y701900D02*
Y752700D01*
X944600Y701900D02*
X1001800D01*
X944600Y752700D02*
X1001800D01*
X946900Y779600D02*
X997700D01*
X946900Y836800D02*
X997700D01*
Y779600D02*
Y836800D01*
X946900Y779600D02*
Y836800D01*
X723010Y603600D02*
X828410D01*
Y556600D02*
Y603600D01*
X723010Y556600D02*
X828410D01*
X723010D02*
Y603600D01*
X991500Y933000D02*
Y1037000D01*
X945500Y933000D02*
X991500D01*
X945500D02*
Y1037000D01*
X991500D01*
D12*
X787140Y872380D02*
G03*
X789680Y869840I2540J0D01*
G01*
X789680Y890160D02*
G03*
X787140Y887620I0J-2540D01*
G01*
X830320Y869840D02*
G03*
X832860Y872380I0J2540D01*
G01*
Y887620D02*
G03*
X830320Y890160I-2540J0D01*
G01*
X792140Y802380D02*
G03*
X794680Y799840I2540J0D01*
G01*
X794680Y820160D02*
G03*
X792140Y817620I0J-2540D01*
G01*
X835320Y799840D02*
G03*
X837860Y802380I0J2540D01*
G01*
Y817620D02*
G03*
X835320Y820160I-2540J0D01*
G01*
X439200Y547060D02*
Y602940D01*
X540800Y547060D02*
Y602940D01*
X439200D02*
X540800D01*
X439200Y547060D02*
X540800D01*
X789680Y890160D02*
X830320D01*
X789680Y869840D02*
X830320D01*
X794680Y820160D02*
X835320D01*
X794680Y799840D02*
X835320D01*
X502940Y904200D02*
Y1005800D01*
X447060Y904200D02*
Y1005800D01*
X502940D01*
X447060Y904200D02*
X502940D01*
X447060Y669200D02*
X502940D01*
X447060Y770800D02*
X502940D01*
X447060Y669200D02*
Y770800D01*
X502940Y669200D02*
Y770800D01*
X530800Y1092060D02*
Y1147940D01*
X429200Y1092060D02*
Y1147940D01*
Y1092060D02*
X530800D01*
X429200Y1147940D02*
X530800D01*
D13*
X935600Y1010500D02*
G03*
X935600Y1010500I-1000J0D01*
G01*
D14*
X662775Y1107303D02*
Y1117460D01*
X655157D01*
Y1112382D01*
Y1117460D01*
X647540D01*
Y1102225D02*
Y1097147D01*
Y1099686D01*
X662775D01*
X660236Y1102225D01*
X797540Y885776D02*
Y872540D01*
X804158D01*
X806364Y874746D01*
Y883570D01*
X804158Y885776D01*
X797540D01*
X819600D02*
X810776D01*
Y879158D01*
X815188Y881364D01*
X817394D01*
X819600Y879158D01*
Y874746D01*
X817394Y872540D01*
X812982D01*
X810776Y874746D01*
X802540Y815776D02*
Y802540D01*
X809158D01*
X811364Y804746D01*
Y813570D01*
X809158Y815776D01*
X802540D01*
X824600D02*
X820188Y813570D01*
X815776Y809158D01*
Y804746D01*
X817982Y802540D01*
X822394D01*
X824600Y804746D01*
Y806952D01*
X822394Y809158D01*
X815776D01*
X787697Y1115236D02*
X785157Y1117775D01*
X780079D01*
X777540Y1115236D01*
Y1112697D01*
X780079Y1110157D01*
X785157D01*
X787697Y1107618D01*
Y1105079D01*
X785157Y1102540D01*
X780079D01*
X777540Y1105079D01*
X792775Y1102540D02*
X797853D01*
X795314D01*
Y1117775D01*
X792775Y1115236D01*
X928363Y1113775D02*
X922952D01*
X925657D01*
Y1100246D01*
X922952Y1097540D01*
X920246D01*
X917540Y1100246D01*
X944598Y1097540D02*
X933775D01*
X944598Y1108363D01*
Y1111069D01*
X941892Y1113775D01*
X936480D01*
X933775Y1111069D01*
X967302Y877434D02*
Y872302D01*
Y874868D01*
X980132D01*
X982698Y872302D01*
Y869737D01*
X980132Y867171D01*
X969868Y882566D02*
X967302Y885132D01*
Y890263D01*
X969868Y892829D01*
X972434D01*
X975000Y890263D01*
Y887698D01*
Y890263D01*
X977566Y892829D01*
X980132D01*
X982698Y890263D01*
Y885132D01*
X980132Y882566D01*
X977698Y729866D02*
Y734997D01*
Y732432D01*
X964868D01*
X962302Y734997D01*
Y737563D01*
X964868Y740129D01*
X962302Y717037D02*
X977698D01*
X970000Y724734D01*
Y714471D01*
X969734Y812698D02*
X964603D01*
X967168D01*
Y799868D01*
X964603Y797302D01*
X962037D01*
X959471Y799868D01*
X985129Y812698D02*
X974866D01*
Y805000D01*
X979997Y807566D01*
X982563D01*
X985129Y805000D01*
Y799868D01*
X982563Y797302D01*
X977432D01*
X974866Y799868D01*
X800078Y1005039D02*
X802618Y1007578D01*
Y1012657D01*
X800078Y1015196D01*
X789922D01*
X787383Y1012657D01*
Y1007578D01*
X789922Y1005039D01*
X800078Y999961D02*
X802618Y997422D01*
Y992343D01*
X800078Y989804D01*
X797539D01*
X795000Y992343D01*
Y994882D01*
Y992343D01*
X792461Y989804D01*
X789922D01*
X787383Y992343D01*
Y997422D01*
X789922Y999961D01*
X762461Y670078D02*
X759922Y672617D01*
X754843D01*
X752304Y670078D01*
Y659922D01*
X754843Y657383D01*
X759922D01*
X762461Y659922D01*
X775157Y657383D02*
Y672617D01*
X767539Y665000D01*
X777696D01*
X869922Y937461D02*
X867382Y934922D01*
Y929843D01*
X869922Y927304D01*
X880078D01*
X882617Y929843D01*
Y934922D01*
X880078Y937461D01*
X867382Y952696D02*
Y942539D01*
X875000D01*
X872461Y947617D01*
Y950157D01*
X875000Y952696D01*
X880078D01*
X882617Y950157D01*
Y945078D01*
X880078Y942539D01*
X670078Y577539D02*
X672618Y580078D01*
Y585157D01*
X670078Y587696D01*
X659922D01*
X657383Y585157D01*
Y580078D01*
X659922Y577539D01*
X672618Y562304D02*
X670078Y567382D01*
X665000Y572461D01*
X659922D01*
X657383Y569922D01*
Y564843D01*
X659922Y562304D01*
X662461D01*
X665000Y564843D01*
Y572461D01*
X767540Y587775D02*
Y575079D01*
X770079Y572540D01*
X775157D01*
X777697Y575079D01*
Y587775D01*
X782775Y572540D02*
X787853D01*
X785314D01*
Y587775D01*
X782775Y585236D01*
X977775Y992460D02*
X965079D01*
X962540Y989921D01*
Y984843D01*
X965079Y982303D01*
X977775D01*
D67*
X399560Y580264D02*
Y562030D01*
X408677D01*
X411716Y565069D01*
Y577225D01*
X408677Y580264D01*
X399560D01*
X417794Y577225D02*
X420833Y580264D01*
X426911D01*
X429950Y577225D01*
Y574186D01*
X426911Y571147D01*
X423872D01*
X426911D01*
X429950Y568108D01*
Y565069D01*
X426911Y562030D01*
X420833D01*
X417794Y565069D01*
X358736Y748572D02*
Y742161D01*
Y745367D01*
X374764D01*
X377970Y742161D01*
Y738956D01*
X374764Y735750D01*
X377970Y754984D02*
Y761395D01*
Y758189D01*
X358736D01*
X361942Y754984D01*
X469736Y864560D02*
X487970D01*
Y873677D01*
X484931Y876716D01*
X472775D01*
X469736Y873677D01*
Y864560D01*
X487970Y882794D02*
Y888872D01*
Y885833D01*
X469736D01*
X472775Y882794D01*
X469736Y629560D02*
X487970D01*
Y638677D01*
X484931Y641716D01*
X472775D01*
X469736Y638677D01*
Y629560D01*
X487970Y659950D02*
Y647794D01*
X475814Y659950D01*
X472775D01*
X469736Y656911D01*
Y650833D01*
X472775Y647794D01*
X570440Y1114736D02*
Y1132970D01*
X561323D01*
X558284Y1129931D01*
Y1117775D01*
X561323Y1114736D01*
X570440D01*
X543089Y1132970D02*
Y1114736D01*
X552206Y1123853D01*
X540050D01*
D68*
X643162Y921827D02*
X639496Y925493D01*
X632165D01*
X628500Y921827D01*
Y907165D01*
X632165Y903500D01*
X639496D01*
X643162Y907165D01*
X650493Y903500D02*
X657824D01*
X654158D01*
Y925493D01*
X650493Y921827D01*
X628162Y721827D02*
X624496Y725493D01*
X617165D01*
X613500Y721827D01*
Y707165D01*
X617165Y703500D01*
X624496D01*
X628162Y707165D01*
X650155Y703500D02*
X635493D01*
X650155Y718162D01*
Y721827D01*
X646489Y725493D01*
X639158D01*
X635493Y721827D01*
M02*
