G04*
G04 #@! TF.GenerationSoftware,Altium Limited,Altium Designer,23.7.1 (13)*
G04*
G04 Layer_Physical_Order=2*
G04 Layer_Color=16711680*
%FSLAX44Y44*%
%MOMM*%
G71*
G04*
G04 #@! TF.SameCoordinates,A9341A08-D9DD-44F6-B1FE-122BD565C652*
G04*
G04*
G04 #@! TF.FilePolarity,Positive*
G04*
G01*
G75*
%ADD42C,2.5000*%
%ADD43R,3.8100X3.8100*%
%ADD44C,3.8100*%
%ADD45C,1.9500*%
%ADD46R,1.9500X1.9500*%
%ADD47C,1.3500*%
%ADD48R,1.4000X1.4000*%
%ADD49C,1.4000*%
%ADD50R,3.8100X3.8100*%
%ADD51R,2.7750X2.7750*%
%ADD52C,2.7750*%
%ADD53C,1.6500*%
%ADD54R,1.6500X1.6500*%
%ADD55C,1.3700*%
%ADD56R,1.3700X1.3700*%
%ADD57R,1.3700X1.3700*%
%ADD58C,1.1000*%
%ADD59R,1.1000X1.1000*%
%ADD60R,1.1000X1.1000*%
%ADD61C,1.8600*%
%ADD62R,1.8600X1.8600*%
%ADD63C,1.9100*%
%ADD64R,1.9100X1.9100*%
%ADD65C,3.5000*%
%ADD66C,1.0000*%
G36*
X1025486Y1178827D02*
X1024434Y1177775D01*
X1022241Y1174492D01*
X1020730Y1170845D01*
X1019960Y1166974D01*
Y1166270D01*
X1040000D01*
Y1165000D01*
X1041270D01*
Y1144960D01*
X1041974D01*
X1045845Y1145730D01*
X1049492Y1147241D01*
X1052775Y1149434D01*
X1053827Y1150486D01*
X1055000Y1150000D01*
Y530000D01*
X1053827Y529514D01*
X1052775Y530566D01*
X1049492Y532759D01*
X1045845Y534270D01*
X1041974Y535040D01*
X1041270D01*
Y515000D01*
X1040000D01*
Y513730D01*
X1019960D01*
Y513026D01*
X1020730Y509155D01*
X1022241Y505508D01*
X1024434Y502225D01*
X1025486Y501173D01*
X1025000Y500000D01*
X293730D01*
X293244Y501173D01*
X294296Y502225D01*
X296489Y505508D01*
X298000Y509155D01*
X298770Y513026D01*
Y513730D01*
X278730D01*
Y515000D01*
X277460D01*
Y535040D01*
X276756D01*
X272885Y534270D01*
X269237Y532759D01*
X266270Y530776D01*
X265000Y531248D01*
Y1150000D01*
X266173Y1150486D01*
X267225Y1149434D01*
X270508Y1147241D01*
X274154Y1145730D01*
X278026Y1144960D01*
X278730D01*
Y1165000D01*
X280000D01*
Y1166270D01*
X300040D01*
Y1166974D01*
X299270Y1170845D01*
X297759Y1174492D01*
X295566Y1177775D01*
X294514Y1178827D01*
X295000Y1180000D01*
X1025000D01*
X1025486Y1178827D01*
D02*
G37*
%LPC*%
G36*
X1038730Y1163730D02*
X1019960D01*
Y1163026D01*
X1020730Y1159155D01*
X1022241Y1155508D01*
X1024434Y1152225D01*
X1027225Y1149434D01*
X1030508Y1147241D01*
X1034155Y1145730D01*
X1038026Y1144960D01*
X1038730D01*
Y1163730D01*
D02*
G37*
G36*
X300040D02*
X281270D01*
Y1144960D01*
X281974D01*
X285846Y1145730D01*
X289492Y1147241D01*
X292775Y1149434D01*
X295566Y1152225D01*
X297759Y1155508D01*
X299270Y1159155D01*
X300040Y1163026D01*
Y1163730D01*
D02*
G37*
G36*
X651650Y1157150D02*
X648350D01*
X645114Y1156506D01*
X642066Y1155244D01*
X639323Y1153411D01*
X636989Y1151077D01*
X635156Y1148334D01*
X633894Y1145286D01*
X633250Y1142050D01*
Y1138750D01*
X633894Y1135514D01*
X635156Y1132466D01*
X636989Y1129723D01*
X639323Y1127389D01*
X642066Y1125556D01*
X645114Y1124294D01*
X648350Y1123650D01*
X651650D01*
X654886Y1124294D01*
X657934Y1125556D01*
X660677Y1127389D01*
X663011Y1129723D01*
X664844Y1132466D01*
X666106Y1135514D01*
X666750Y1138750D01*
Y1142050D01*
X666106Y1145286D01*
X664844Y1148334D01*
X663011Y1151077D01*
X660677Y1153411D01*
X657934Y1155244D01*
X654886Y1156506D01*
X651650Y1157150D01*
D02*
G37*
G36*
X855875Y1133875D02*
X808125D01*
Y1119878D01*
X806855Y1119626D01*
X806158Y1121309D01*
X803545Y1125219D01*
X800219Y1128545D01*
X796309Y1131158D01*
X791964Y1132958D01*
X787352Y1133875D01*
X782648D01*
X778036Y1132958D01*
X773691Y1131158D01*
X769781Y1128545D01*
X766455Y1125219D01*
X763842Y1121309D01*
X762167Y1117265D01*
X761814Y1117177D01*
X761186D01*
X760833Y1117265D01*
X759158Y1121309D01*
X756545Y1125219D01*
X753219Y1128545D01*
X749309Y1131158D01*
X744964Y1132958D01*
X740351Y1133875D01*
X735648D01*
X731036Y1132958D01*
X726691Y1131158D01*
X722781Y1128545D01*
X719455Y1125219D01*
X716842Y1121309D01*
X715042Y1116964D01*
X714125Y1112352D01*
Y1107648D01*
X715042Y1103036D01*
X716842Y1098691D01*
X719455Y1094781D01*
X722781Y1091455D01*
X726691Y1088842D01*
X731036Y1087042D01*
X735648Y1086125D01*
X740351D01*
X744964Y1087042D01*
X749309Y1088842D01*
X753219Y1091455D01*
X756545Y1094781D01*
X759158Y1098691D01*
X760833Y1102735D01*
X761186Y1102823D01*
X761814D01*
X762167Y1102735D01*
X763842Y1098691D01*
X766455Y1094781D01*
X769781Y1091455D01*
X773691Y1088842D01*
X778036Y1087042D01*
X782648Y1086125D01*
X787352D01*
X791964Y1087042D01*
X796309Y1088842D01*
X800219Y1091455D01*
X803545Y1094781D01*
X806158Y1098691D01*
X806855Y1100374D01*
X808125Y1100122D01*
Y1086125D01*
X855875D01*
Y1133875D01*
D02*
G37*
G36*
X961190Y1115790D02*
X951670D01*
Y1106270D01*
X961190D01*
Y1115790D01*
D02*
G37*
G36*
X949130D02*
X939610D01*
Y1106270D01*
X949130D01*
Y1115790D01*
D02*
G37*
G36*
X961190Y1103730D02*
X951670D01*
Y1094210D01*
X961190D01*
Y1103730D01*
D02*
G37*
G36*
X949130D02*
X939610D01*
Y1094210D01*
X949130D01*
Y1103730D01*
D02*
G37*
G36*
X585250Y1149050D02*
X527150D01*
Y1090950D01*
X585250D01*
Y1149050D01*
D02*
G37*
G36*
X406086D02*
X401514D01*
X396997Y1148335D01*
X392649Y1146922D01*
X388574Y1144846D01*
X384875Y1142158D01*
X381642Y1138925D01*
X378954Y1135226D01*
X376878Y1131151D01*
X375465Y1126803D01*
X374750Y1122286D01*
Y1117714D01*
X375465Y1113197D01*
X376878Y1108849D01*
X378954Y1104774D01*
X381642Y1101075D01*
X384875Y1097842D01*
X388574Y1095154D01*
X392649Y1093078D01*
X396997Y1091665D01*
X401514Y1090950D01*
X406086D01*
X410603Y1091665D01*
X414951Y1093078D01*
X419025Y1095154D01*
X422725Y1097842D01*
X425958Y1101075D01*
X428646Y1104774D01*
X430722Y1108849D01*
X432135Y1113197D01*
X432850Y1117714D01*
Y1122286D01*
X432135Y1126803D01*
X430722Y1131151D01*
X428646Y1135226D01*
X425958Y1138925D01*
X422725Y1142158D01*
X419025Y1144846D01*
X414951Y1146922D01*
X410603Y1148335D01*
X406086Y1149050D01*
D02*
G37*
G36*
X901397Y1123250D02*
X897803D01*
X894277Y1122549D01*
X890955Y1121173D01*
X887966Y1119176D01*
X885424Y1116634D01*
X883427Y1113645D01*
X882051Y1110323D01*
X881350Y1106797D01*
Y1103203D01*
X882051Y1099677D01*
X883427Y1096355D01*
X885424Y1093366D01*
X887966Y1090824D01*
X890955Y1088827D01*
X894277Y1087451D01*
X897803Y1086750D01*
X901397D01*
X904923Y1087451D01*
X908245Y1088827D01*
X911234Y1090824D01*
X913776Y1093366D01*
X915773Y1096355D01*
X917149Y1099677D01*
X917850Y1103203D01*
Y1106797D01*
X917149Y1110323D01*
X915773Y1113645D01*
X913776Y1116634D01*
X911234Y1119176D01*
X908245Y1121173D01*
X904923Y1122549D01*
X901397Y1123250D01*
D02*
G37*
G36*
X651650Y1106350D02*
X648350D01*
X645114Y1105706D01*
X642066Y1104444D01*
X639323Y1102611D01*
X636989Y1100277D01*
X635156Y1097534D01*
X633894Y1094486D01*
X633250Y1091250D01*
Y1087950D01*
X633894Y1084714D01*
X635156Y1081666D01*
X636989Y1078923D01*
X639323Y1076589D01*
X642066Y1074756D01*
X645114Y1073494D01*
X648350Y1072850D01*
X651650D01*
X654886Y1073494D01*
X657934Y1074756D01*
X660677Y1076589D01*
X663011Y1078923D01*
X664844Y1081666D01*
X666106Y1084714D01*
X666750Y1087950D01*
Y1091250D01*
X666106Y1094486D01*
X664844Y1097534D01*
X663011Y1100277D01*
X660677Y1102611D01*
X657934Y1104444D01*
X654886Y1105706D01*
X651650Y1106350D01*
D02*
G37*
G36*
X979550Y1042750D02*
X940450D01*
Y1003650D01*
X979550D01*
Y1042750D01*
D02*
G37*
G36*
X810500Y1034510D02*
X779500D01*
Y1003510D01*
X810500D01*
Y1034510D01*
D02*
G37*
G36*
X796270Y993973D02*
Y987260D01*
X802983D01*
X802492Y989093D01*
X801434Y990927D01*
X799937Y992424D01*
X798103Y993482D01*
X796270Y993973D01*
D02*
G37*
G36*
X793730Y993973D02*
X791897Y993482D01*
X790063Y992424D01*
X788566Y990927D01*
X787508Y989093D01*
X787017Y987260D01*
X793730D01*
Y993973D01*
D02*
G37*
G36*
X961592Y997090D02*
X961270D01*
Y986270D01*
X972090D01*
Y986592D01*
X971266Y989667D01*
X969674Y992423D01*
X967423Y994674D01*
X964667Y996266D01*
X961592Y997090D01*
D02*
G37*
G36*
X958730D02*
X958408D01*
X955333Y996266D01*
X952577Y994674D01*
X950326Y992423D01*
X948734Y989667D01*
X947910Y986592D01*
Y986270D01*
X958730D01*
Y997090D01*
D02*
G37*
G36*
X793730Y984720D02*
X787017D01*
X787508Y982887D01*
X788566Y981053D01*
X790063Y979556D01*
X791897Y978498D01*
X793730Y978007D01*
Y984720D01*
D02*
G37*
G36*
X802983D02*
X796270D01*
Y978007D01*
X798103Y978498D01*
X799937Y979556D01*
X801434Y981053D01*
X802492Y982887D01*
X802983Y984720D01*
D02*
G37*
G36*
X972090Y983730D02*
X961270D01*
Y972910D01*
X961592D01*
X964667Y973734D01*
X967423Y975326D01*
X969674Y977577D01*
X971266Y980333D01*
X972090Y983408D01*
Y983730D01*
D02*
G37*
G36*
X958730D02*
X947910D01*
Y983408D01*
X948734Y980333D01*
X950326Y977577D01*
X952577Y975326D01*
X955333Y973734D01*
X958408Y972910D01*
X958730D01*
Y983730D01*
D02*
G37*
G36*
X876270Y964493D02*
Y957780D01*
X882983D01*
X882492Y959613D01*
X881434Y961447D01*
X879937Y962944D01*
X878103Y964002D01*
X876270Y964493D01*
D02*
G37*
G36*
X873730Y964493D02*
X871897Y964002D01*
X870063Y962944D01*
X868566Y961447D01*
X867508Y959613D01*
X867017Y957780D01*
X873730D01*
Y964493D01*
D02*
G37*
G36*
Y955240D02*
X867017D01*
X867508Y953407D01*
X868566Y951573D01*
X870063Y950076D01*
X871897Y949018D01*
X873730Y948527D01*
Y955240D01*
D02*
G37*
G36*
X882983D02*
X876270D01*
Y948527D01*
X878103Y949018D01*
X879937Y950076D01*
X881434Y951573D01*
X882492Y953407D01*
X882983Y955240D01*
D02*
G37*
G36*
X961926Y966550D02*
X958074D01*
X954297Y965799D01*
X950740Y964325D01*
X947538Y962186D01*
X944815Y959462D01*
X942675Y956260D01*
X941201Y952702D01*
X940450Y948925D01*
Y945074D01*
X941201Y941298D01*
X942675Y937740D01*
X944815Y934538D01*
X947538Y931814D01*
X950740Y929675D01*
X954297Y928201D01*
X958074Y927450D01*
X961926D01*
X965703Y928201D01*
X969260Y929675D01*
X972462Y931814D01*
X975185Y934538D01*
X977325Y937740D01*
X978799Y941298D01*
X979550Y945074D01*
Y948925D01*
X978799Y952702D01*
X977325Y956260D01*
X975185Y959462D01*
X972462Y962186D01*
X969260Y964325D01*
X965703Y965799D01*
X961926Y966550D01*
D02*
G37*
G36*
X676270Y924536D02*
Y916270D01*
X684536D01*
X683890Y918682D01*
X682634Y920858D01*
X680858Y922634D01*
X678682Y923890D01*
X676270Y924536D01*
D02*
G37*
G36*
X673730D02*
X671318Y923890D01*
X669142Y922634D01*
X667366Y920858D01*
X666110Y918682D01*
X665464Y916270D01*
X673730D01*
Y924536D01*
D02*
G37*
G36*
X890500Y938990D02*
X859500D01*
Y907990D01*
X890500D01*
Y938990D01*
D02*
G37*
G36*
X684536Y913730D02*
X676270D01*
Y905464D01*
X678682Y906110D01*
X680858Y907366D01*
X682634Y909142D01*
X683890Y911318D01*
X684536Y913730D01*
D02*
G37*
G36*
X673730D02*
X665464D01*
X666110Y911318D01*
X667366Y909142D01*
X669142Y907366D01*
X671318Y906110D01*
X673730Y905464D01*
Y913730D01*
D02*
G37*
G36*
X617000Y932000D02*
X583000D01*
Y898000D01*
X617000D01*
Y932000D01*
D02*
G37*
G36*
X773170Y889536D02*
Y881270D01*
X781436D01*
X780790Y883682D01*
X779534Y885858D01*
X777758Y887634D01*
X775582Y888890D01*
X773170Y889536D01*
D02*
G37*
G36*
X770630D02*
X768218Y888890D01*
X766042Y887634D01*
X764266Y885858D01*
X763010Y883682D01*
X762364Y881270D01*
X770630D01*
Y889536D01*
D02*
G37*
G36*
X781436Y878730D02*
X773170D01*
Y870464D01*
X775582Y871110D01*
X777758Y872366D01*
X779534Y874142D01*
X780790Y876318D01*
X781436Y878730D01*
D02*
G37*
G36*
X770630D02*
X762364D01*
X763010Y876318D01*
X764266Y874142D01*
X766042Y872366D01*
X768218Y871110D01*
X770630Y870464D01*
Y878730D01*
D02*
G37*
G36*
X991850Y909550D02*
X958150D01*
Y875850D01*
X968670D01*
X969000Y874580D01*
X967486Y873066D01*
X966250Y870924D01*
X965619Y868570D01*
X975000D01*
X984381D01*
X983750Y870924D01*
X982514Y873066D01*
X981000Y874580D01*
X981330Y875850D01*
X991850D01*
Y909550D01*
D02*
G37*
G36*
X865100Y897000D02*
X831100D01*
Y863000D01*
X865100D01*
Y897000D01*
D02*
G37*
G36*
X366945Y900550D02*
X363055D01*
X359239Y899791D01*
X355645Y898302D01*
X352410Y896141D01*
X349659Y893390D01*
X347498Y890155D01*
X346009Y886561D01*
X345250Y882745D01*
Y878855D01*
X346009Y875039D01*
X347498Y871445D01*
X349659Y868210D01*
X352410Y865459D01*
X355645Y863298D01*
X359239Y861809D01*
X363055Y861050D01*
X366945D01*
X370761Y861809D01*
X374355Y863298D01*
X377590Y865459D01*
X380341Y868210D01*
X382502Y871445D01*
X383991Y875039D01*
X384750Y878855D01*
Y882745D01*
X383991Y886561D01*
X382502Y890155D01*
X380341Y893390D01*
X377590Y896141D01*
X374355Y898302D01*
X370761Y899791D01*
X366945Y900550D01*
D02*
G37*
G36*
X984381Y866030D02*
X976270D01*
Y857919D01*
X978624Y858550D01*
X980766Y859786D01*
X982514Y861534D01*
X983750Y863676D01*
X984381Y866030D01*
D02*
G37*
G36*
X973730D02*
X965619D01*
X966250Y863676D01*
X967486Y861534D01*
X969234Y859786D01*
X971376Y858550D01*
X973730Y857919D01*
Y866030D01*
D02*
G37*
G36*
X504050Y907850D02*
X445950D01*
Y849750D01*
X504050D01*
Y907850D01*
D02*
G37*
G36*
X366618Y842290D02*
X366270D01*
Y831270D01*
X377290D01*
Y831618D01*
X376452Y834744D01*
X374835Y837546D01*
X372546Y839834D01*
X369744Y841452D01*
X366618Y842290D01*
D02*
G37*
G36*
X363730D02*
X363382D01*
X360256Y841452D01*
X357454Y839834D01*
X355166Y837546D01*
X353548Y834744D01*
X352710Y831618D01*
Y831270D01*
X363730D01*
Y842290D01*
D02*
G37*
G36*
X377290Y828730D02*
X366270D01*
Y817710D01*
X366618D01*
X369744Y818548D01*
X372546Y820165D01*
X374835Y822454D01*
X376452Y825256D01*
X377290Y828382D01*
Y828730D01*
D02*
G37*
G36*
X363730D02*
X352710D01*
Y828382D01*
X353548Y825256D01*
X355166Y822454D01*
X357454Y820165D01*
X360256Y818548D01*
X363382Y817710D01*
X363730D01*
Y828730D01*
D02*
G37*
G36*
X786440Y819540D02*
X778170D01*
Y811270D01*
X786440D01*
Y819540D01*
D02*
G37*
G36*
X775630D02*
X767360D01*
Y811270D01*
X775630D01*
Y819540D01*
D02*
G37*
G36*
X1001850Y821850D02*
X968150D01*
Y811330D01*
X966880Y811000D01*
X965366Y812514D01*
X963224Y813750D01*
X960870Y814381D01*
Y805000D01*
Y795619D01*
X963224Y796250D01*
X965366Y797486D01*
X966880Y799000D01*
X968150Y798670D01*
Y788150D01*
X1001850D01*
Y821850D01*
D02*
G37*
G36*
X958330Y814381D02*
X955976Y813750D01*
X953834Y812514D01*
X952086Y810766D01*
X950850Y808624D01*
X950219Y806270D01*
X958330D01*
Y814381D01*
D02*
G37*
G36*
X786440Y808730D02*
X778170D01*
Y800460D01*
X786440D01*
Y808730D01*
D02*
G37*
G36*
X775630D02*
X767360D01*
Y800460D01*
X775630D01*
Y808730D01*
D02*
G37*
G36*
X958330Y803730D02*
X950219D01*
X950850Y801376D01*
X952086Y799234D01*
X953834Y797486D01*
X955976Y796250D01*
X958330Y795619D01*
Y803730D01*
D02*
G37*
G36*
X854774Y827000D02*
X851426D01*
X848141Y826347D01*
X845048Y825065D01*
X842263Y823205D01*
X839895Y820837D01*
X838035Y818053D01*
X836753Y814959D01*
X836100Y811674D01*
Y808326D01*
X836753Y805041D01*
X838035Y801947D01*
X839895Y799163D01*
X842263Y796795D01*
X845048Y794935D01*
X848141Y793653D01*
X851426Y793000D01*
X854774D01*
X858059Y793653D01*
X861152Y794935D01*
X863937Y796795D01*
X866305Y799163D01*
X868165Y801947D01*
X869447Y805041D01*
X870100Y808326D01*
Y811674D01*
X869447Y814959D01*
X868165Y818053D01*
X866305Y820837D01*
X863937Y823205D01*
X861152Y825065D01*
X858059Y826347D01*
X854774Y827000D01*
D02*
G37*
G36*
X477286Y825250D02*
X472714D01*
X468197Y824535D01*
X463849Y823122D01*
X459775Y821046D01*
X456075Y818358D01*
X452842Y815125D01*
X450154Y811425D01*
X448078Y807351D01*
X446665Y803003D01*
X445950Y798486D01*
Y793914D01*
X446665Y789398D01*
X448078Y785049D01*
X450154Y780975D01*
X452842Y777275D01*
X456075Y774042D01*
X459775Y771354D01*
X463849Y769278D01*
X468197Y767865D01*
X472714Y767150D01*
X477286D01*
X481802Y767865D01*
X486151Y769278D01*
X490225Y771354D01*
X493925Y774042D01*
X497158Y777275D01*
X499846Y780975D01*
X501922Y785049D01*
X503335Y789398D01*
X504050Y793914D01*
Y798486D01*
X503335Y803003D01*
X501922Y807351D01*
X499846Y811425D01*
X497158Y815125D01*
X493925Y818358D01*
X490225Y821046D01*
X486151Y823122D01*
X481802Y824535D01*
X477286Y825250D01*
D02*
G37*
G36*
X384750Y798950D02*
X345250D01*
Y759450D01*
X384750D01*
Y798950D01*
D02*
G37*
G36*
X609540Y719540D02*
X601270D01*
Y711270D01*
X609540D01*
Y719540D01*
D02*
G37*
G36*
X598730D02*
X590460D01*
Y711270D01*
X598730D01*
Y719540D01*
D02*
G37*
G36*
X609540Y708730D02*
X601270D01*
Y700460D01*
X609540D01*
Y708730D01*
D02*
G37*
G36*
X598730D02*
X590460D01*
Y700460D01*
X598730D01*
Y708730D01*
D02*
G37*
G36*
X971660Y756850D02*
X968340D01*
X965085Y756202D01*
X962019Y754932D01*
X959259Y753088D01*
X956912Y750741D01*
X955068Y747981D01*
X953798Y744915D01*
X953150Y741660D01*
Y738340D01*
X953798Y735085D01*
X954777Y732720D01*
X953977Y731450D01*
X953150D01*
Y697750D01*
X986850D01*
Y731450D01*
X986023D01*
X985223Y732720D01*
X986202Y735085D01*
X986850Y738340D01*
Y741660D01*
X986202Y744915D01*
X984932Y747981D01*
X983088Y750741D01*
X980741Y753088D01*
X977981Y754932D01*
X974915Y756202D01*
X971660Y756850D01*
D02*
G37*
G36*
X477286Y1060250D02*
X472714D01*
X468197Y1059535D01*
X463849Y1058122D01*
X459775Y1056046D01*
X456075Y1053358D01*
X452842Y1050125D01*
X450154Y1046425D01*
X448078Y1042351D01*
X446665Y1038002D01*
X445950Y1033486D01*
Y1028914D01*
X446665Y1024397D01*
X448078Y1020049D01*
X450154Y1015975D01*
X452842Y1012275D01*
X456075Y1009042D01*
X459775Y1006354D01*
X463849Y1004278D01*
X468197Y1002865D01*
X471956Y1002270D01*
X532391Y941835D01*
Y830000D01*
X532826Y825589D01*
X534112Y821348D01*
X536201Y817439D01*
X539013Y814013D01*
X659013Y694013D01*
X662439Y691201D01*
X666348Y689112D01*
X670589Y687826D01*
X675000Y687391D01*
X679411Y687826D01*
X683652Y689112D01*
X687561Y691201D01*
X690987Y694013D01*
X693799Y697439D01*
X695888Y701348D01*
X697174Y705589D01*
X697609Y710000D01*
X697174Y714411D01*
X695888Y718652D01*
X693799Y722561D01*
X690987Y725987D01*
X577609Y839365D01*
Y951200D01*
X577174Y955611D01*
X575888Y959852D01*
X573799Y963761D01*
X570987Y967187D01*
X503930Y1034244D01*
X503335Y1038002D01*
X501922Y1042351D01*
X499846Y1046425D01*
X497158Y1050125D01*
X493925Y1053358D01*
X490225Y1056046D01*
X486151Y1058122D01*
X481802Y1059535D01*
X477286Y1060250D01*
D02*
G37*
G36*
X756530Y673040D02*
X749760D01*
Y666270D01*
X756530D01*
Y673040D01*
D02*
G37*
G36*
X747220D02*
X740450D01*
Y666270D01*
X747220D01*
Y673040D01*
D02*
G37*
G36*
X756530Y663730D02*
X749760D01*
Y656960D01*
X756530D01*
Y663730D01*
D02*
G37*
G36*
X747220D02*
X740450D01*
Y656960D01*
X747220D01*
Y663730D01*
D02*
G37*
G36*
X783037Y680500D02*
X779983D01*
X776989Y679904D01*
X774168Y678736D01*
X771629Y677040D01*
X769470Y674881D01*
X767774Y672342D01*
X766606Y669521D01*
X766010Y666527D01*
Y663473D01*
X766606Y660479D01*
X767774Y657658D01*
X769470Y655119D01*
X771629Y652960D01*
X774168Y651264D01*
X776989Y650096D01*
X779983Y649500D01*
X783037D01*
X786031Y650096D01*
X788852Y651264D01*
X791391Y652960D01*
X793550Y655119D01*
X795246Y657658D01*
X796414Y660479D01*
X797010Y663473D01*
Y666527D01*
X796414Y669521D01*
X795246Y672342D01*
X793550Y674881D01*
X791391Y677040D01*
X788852Y678736D01*
X786031Y679904D01*
X783037Y680500D01*
D02*
G37*
G36*
X504050Y672850D02*
X445950D01*
Y614750D01*
X504050D01*
Y672850D01*
D02*
G37*
G36*
X673040Y599550D02*
X666270D01*
Y592780D01*
X673040D01*
Y599550D01*
D02*
G37*
G36*
X663730D02*
X656960D01*
Y592780D01*
X663730D01*
Y599550D01*
D02*
G37*
G36*
X811901Y594300D02*
X808099D01*
X804370Y593558D01*
X800858Y592103D01*
X797697Y589991D01*
X795009Y587303D01*
X793619Y585223D01*
X792091D01*
X790701Y587303D01*
X788013Y589991D01*
X784852Y592103D01*
X781340Y593558D01*
X777611Y594300D01*
X773809D01*
X770080Y593558D01*
X766568Y592103D01*
X763407Y589991D01*
X760719Y587303D01*
X758607Y584142D01*
X757152Y580630D01*
X756410Y576901D01*
Y573099D01*
X757152Y569370D01*
X758607Y565858D01*
X760719Y562697D01*
X763407Y560009D01*
X766568Y557896D01*
X768896Y556932D01*
X769194Y555434D01*
X753832Y540073D01*
X704733D01*
X678257Y566549D01*
X677040Y568371D01*
X674881Y570530D01*
X672342Y572226D01*
X669521Y573394D01*
X666527Y573990D01*
X663473D01*
X660479Y573394D01*
X657658Y572226D01*
X655119Y570530D01*
X652960Y568371D01*
X651264Y565832D01*
X650096Y563011D01*
X649500Y560017D01*
Y556963D01*
X650096Y553969D01*
X651264Y551148D01*
X652960Y548609D01*
X655119Y546450D01*
X656941Y545233D01*
X687832Y514342D01*
X690116Y512468D01*
X692722Y511075D01*
X695549Y510217D01*
X698490Y509927D01*
X760075D01*
X763016Y510217D01*
X765843Y511075D01*
X768449Y512468D01*
X770733Y514342D01*
X812139Y555747D01*
X815630Y556442D01*
X819142Y557896D01*
X822303Y560009D01*
X824991Y562697D01*
X827104Y565858D01*
X828558Y569370D01*
X829300Y573099D01*
Y576901D01*
X828558Y580630D01*
X827104Y584142D01*
X824991Y587303D01*
X822303Y589991D01*
X819142Y592103D01*
X815630Y593558D01*
X811901Y594300D01*
D02*
G37*
G36*
X673040Y590240D02*
X666270D01*
Y583470D01*
X673040D01*
Y590240D01*
D02*
G37*
G36*
X663730D02*
X656960D01*
Y583470D01*
X663730D01*
Y590240D01*
D02*
G37*
G36*
X753260Y586840D02*
X742690D01*
Y576270D01*
X753260D01*
Y586840D01*
D02*
G37*
G36*
X740150D02*
X729580D01*
Y576270D01*
X740150D01*
Y586840D01*
D02*
G37*
G36*
X753260Y573730D02*
X742690D01*
Y563160D01*
X753260D01*
Y573730D01*
D02*
G37*
G36*
X740150D02*
X729580D01*
Y563160D01*
X740150D01*
Y573730D01*
D02*
G37*
G36*
X568486Y604050D02*
X563914D01*
X559398Y603335D01*
X555049Y601922D01*
X550975Y599846D01*
X547275Y597158D01*
X544042Y593925D01*
X541354Y590225D01*
X539278Y586151D01*
X537865Y581802D01*
X537150Y577286D01*
Y572714D01*
X537865Y568197D01*
X539278Y563849D01*
X541354Y559775D01*
X544042Y556075D01*
X547275Y552842D01*
X550975Y550154D01*
X555049Y548078D01*
X559398Y546665D01*
X563914Y545950D01*
X568486D01*
X573003Y546665D01*
X577351Y548078D01*
X581426Y550154D01*
X585125Y552842D01*
X588358Y556075D01*
X591046Y559775D01*
X593122Y563849D01*
X594535Y568197D01*
X595250Y572714D01*
Y577286D01*
X594535Y581802D01*
X593122Y586151D01*
X591046Y590225D01*
X588358Y593925D01*
X585125Y597158D01*
X581426Y599846D01*
X577351Y601922D01*
X573003Y603335D01*
X568486Y604050D01*
D02*
G37*
G36*
X442850D02*
X384750D01*
Y545950D01*
X442850D01*
Y604050D01*
D02*
G37*
G36*
X1038730Y535040D02*
X1038026D01*
X1034155Y534270D01*
X1030508Y532759D01*
X1027225Y530566D01*
X1024434Y527775D01*
X1022241Y524492D01*
X1020730Y520845D01*
X1019960Y516974D01*
Y516270D01*
X1038730D01*
Y535040D01*
D02*
G37*
G36*
X280704D02*
X280000D01*
Y516270D01*
X298770D01*
Y516974D01*
X298000Y520845D01*
X296489Y524492D01*
X294296Y527775D01*
X291505Y530566D01*
X288223Y532759D01*
X284576Y534270D01*
X280704Y535040D01*
D02*
G37*
%LPD*%
D42*
X475000Y1031200D02*
X555000Y951200D01*
Y830000D02*
X675000Y710000D01*
X555000Y830000D02*
Y951200D01*
D43*
X413800Y575000D02*
D03*
X556200Y1120000D02*
D03*
D44*
X566200Y575000D02*
D03*
X475000Y1031200D02*
D03*
Y796200D02*
D03*
X403800Y1120000D02*
D03*
D45*
X365000Y880800D02*
D03*
Y830000D02*
D03*
D46*
Y779200D02*
D03*
D47*
X650000Y1140400D02*
D03*
Y1089600D02*
D03*
D48*
X600000Y915000D02*
D03*
Y710000D02*
D03*
X848100Y880000D02*
D03*
X776900Y810000D02*
D03*
D49*
X675000Y915000D02*
D03*
Y710000D02*
D03*
X771900Y880000D02*
D03*
X853100Y810000D02*
D03*
D50*
X475000Y878800D02*
D03*
Y643800D02*
D03*
D51*
X832000Y1110000D02*
D03*
D52*
X785000D02*
D03*
X738000D02*
D03*
D53*
X899600Y1105000D02*
D03*
D54*
X950400D02*
D03*
D55*
X975000Y867300D02*
D03*
X970000Y740000D02*
D03*
X959600Y805000D02*
D03*
D56*
X975000Y892700D02*
D03*
X970000Y714600D02*
D03*
D57*
X985000Y805000D02*
D03*
D58*
X795000Y985990D02*
D03*
X781510Y665000D02*
D03*
X875000Y956510D02*
D03*
X665000Y558490D02*
D03*
D59*
X795000Y1019010D02*
D03*
X875000Y923490D02*
D03*
X665000Y591510D02*
D03*
D60*
X748490Y665000D02*
D03*
D61*
X810000Y575000D02*
D03*
X775710D02*
D03*
D62*
X741420D02*
D03*
D63*
X960000Y947000D02*
D03*
Y985000D02*
D03*
D64*
Y1023200D02*
D03*
D65*
X280000Y1165000D02*
D03*
X278730Y515000D02*
D03*
X1040000D02*
D03*
Y1165000D02*
D03*
D66*
X810000Y574925D02*
Y575000D01*
X760075Y525000D02*
X810000Y574925D01*
X698490Y525000D02*
X760075D01*
X665000Y558490D02*
X698490Y525000D01*
M02*
