G04*
G04 #@! TF.GenerationSoftware,Altium Limited,Altium Designer,23.7.1 (13)*
G04*
G04 Layer_Color=16711935*
%FSLAX44Y44*%
%MOMM*%
G71*
G04*
G04 #@! TF.SameCoordinates,A9341A08-D9DD-44F6-B1FE-122BD565C652*
G04*
G04*
G04 #@! TF.FilePolarity,Positive*
G04*
G01*
G75*
%ADD10C,0.2000*%
%ADD11C,0.1270*%
%ADD13C,0.3000*%
%ADD69C,1.2700*%
%ADD70C,0.5080*%
D10*
X366000Y740000D02*
G03*
X366000Y740000I-1000J0D01*
G01*
X541000Y915000D02*
G03*
X541000Y915000I-1000J0D01*
G01*
Y710000D02*
G03*
X541000Y710000I-1000J0D01*
G01*
X833000Y1150000D02*
G03*
X833000Y1150000I-1000J0D01*
G01*
X951400Y1117700D02*
G03*
X951400Y1117700I-1000J0D01*
G01*
X976000Y911900D02*
G03*
X976000Y911900I-1000J0D01*
G01*
X971000Y695400D02*
G03*
X971000Y695400I-1000J0D01*
G01*
X1005200Y805000D02*
G03*
X1005200Y805000I-1000J0D01*
G01*
X796000Y1035000D02*
G03*
X796000Y1035000I-1000J0D01*
G01*
X733500Y665000D02*
G03*
X733500Y665000I-1000J0D01*
G01*
X876000Y907500D02*
G03*
X876000Y907500I-1000J0D01*
G01*
X666000Y607500D02*
G03*
X666000Y607500I-1000J0D01*
G01*
X751310Y549600D02*
G03*
X751310Y549600I-1000J0D01*
G01*
D11*
X727500Y915000D02*
G03*
X727500Y915000I-90000J0D01*
G01*
Y710000D02*
G03*
X727500Y710000I-90000J0D01*
G01*
X820000Y1002500D02*
G03*
X820000Y1002500I-25000J0D01*
G01*
X790000Y665000D02*
G03*
X790000Y665000I-25000J0D01*
G01*
X900000Y940000D02*
G03*
X900000Y940000I-25000J0D01*
G01*
X690000Y575000D02*
G03*
X690000Y575000I-25000J0D01*
G01*
X412500Y747800D02*
Y753800D01*
X317500Y747800D02*
X412500D01*
X317500D02*
Y753800D01*
X412500D01*
Y906200D01*
X317500D02*
X412500D01*
X317500Y753800D02*
Y906200D01*
X630000Y1156750D02*
X670000D01*
X630000Y1073250D02*
Y1156750D01*
Y1073250D02*
X670000D01*
Y1156750D01*
X721500Y1075700D02*
X848500D01*
Y1144300D01*
X721500D02*
X848500D01*
X721500Y1075700D02*
Y1144300D01*
X975800Y1064000D02*
Y1146000D01*
X874200D02*
X975800D01*
X874200Y1064000D02*
Y1146000D01*
Y1064000D02*
X975800D01*
X943200Y905400D02*
X1000400D01*
X943200Y854600D02*
Y905400D01*
Y854600D02*
X1000400D01*
Y905400D01*
X943200D02*
X1000400D01*
X943200Y854600D02*
Y905400D01*
Y854600D02*
X1000400D01*
X944600Y701900D02*
X1001800D01*
Y752700D01*
X944600D02*
X1001800D01*
X944600Y701900D02*
Y752700D01*
Y701900D02*
X1001800D01*
Y752700D01*
X944600D02*
X1001800D01*
X997700Y779600D02*
Y836800D01*
X946900D02*
X997700D01*
X946900Y779600D02*
Y836800D01*
Y779600D02*
X997700D01*
Y836800D01*
X946900D02*
X997700D01*
X946900Y779600D02*
Y836800D01*
X723010Y603600D02*
X828410D01*
Y556600D02*
Y603600D01*
X723010Y556600D02*
X828410D01*
X723010D02*
Y603600D01*
X991500Y933000D02*
Y1037000D01*
X945500Y933000D02*
X991500D01*
X945500D02*
Y1037000D01*
X991500D01*
D13*
X935600Y1010500D02*
G03*
X935600Y1010500I-1000J0D01*
G01*
D69*
X549055Y575000D02*
X566200D01*
X413800D02*
X430945D01*
X475000Y878800D02*
Y895945D01*
Y1014055D02*
Y1031200D01*
Y779055D02*
Y796200D01*
Y643800D02*
Y660945D01*
X403800Y1120000D02*
X420945D01*
X539055D02*
X556200D01*
D70*
X771900Y880014D02*
X780790D01*
X839210D02*
X848100D01*
X776900Y809986D02*
X785790D01*
X844210D02*
X853100D01*
M02*
