G04*
G04 #@! TF.GenerationSoftware,Altium Limited,Altium Designer,23.7.1 (13)*
G04*
G04 Layer_Color=16711935*
%FSLAX44Y44*%
%MOMM*%
G71*
G04*
G04 #@! TF.SameCoordinates,A07C0687-F844-4A61-819B-523DF58B2253*
G04*
G04*
G04 #@! TF.FilePolarity,Negative*
G04*
G01*
G75*
%ADD14C,1.7782*%
%ADD15C,2.1082*%
%ADD16C,2.2132*%
%ADD17R,2.2132X2.2132*%
%ADD18C,1.5240*%
%ADD19R,1.5240X1.5240*%
%ADD20C,1.5732*%
%ADD21R,1.5732X1.5732*%
%ADD22R,1.5240X1.5240*%
%ADD23C,1.6032*%
%ADD24R,1.6032X1.6032*%
%ADD25C,3.7032*%
%ADD26R,4.0132X4.0132*%
%ADD27C,4.0132*%
%ADD28C,1.7272*%
%ADD29R,1.8532X1.8532*%
%ADD30C,1.8532*%
%ADD31R,4.0132X4.0132*%
%ADD32R,1.3032X1.3032*%
%ADD33C,1.3032*%
%ADD34R,1.8532X1.8532*%
%ADD35C,1.3332*%
%ADD36R,1.3332X1.3332*%
%ADD37R,1.5732X1.5732*%
%ADD38R,1.3032X1.3032*%
D14*
X1143000Y165000D02*
D03*
X857000D02*
D03*
D15*
X1001900Y257440D02*
D03*
Y399680D02*
D03*
D16*
X770000Y405000D02*
D03*
X733170D02*
D03*
D17*
X698880D02*
D03*
D18*
X505000Y375880D02*
D03*
X445000Y376680D02*
D03*
X395000D02*
D03*
X1210000Y375880D02*
D03*
X149120Y395000D02*
D03*
X200000Y320880D02*
D03*
X1210000Y200880D02*
D03*
X330880Y120000D02*
D03*
D19*
X505000Y269200D02*
D03*
X445000Y270000D02*
D03*
X395000D02*
D03*
X1210000Y269200D02*
D03*
X200000Y214200D02*
D03*
X1210000Y94200D02*
D03*
D20*
X1285000Y137300D02*
D03*
X1284730Y232200D02*
D03*
X97660Y366660D02*
D03*
X312290Y360310D02*
D03*
D21*
X1285000Y162700D02*
D03*
X1284730Y206800D02*
D03*
D22*
X255800Y395000D02*
D03*
X224200Y120000D02*
D03*
D23*
X455800Y160920D02*
D03*
X455600Y179970D02*
D03*
X515290D02*
D03*
X515490Y160920D02*
D03*
X733930Y239060D02*
D03*
D24*
X455800Y199020D02*
D03*
X515490D02*
D03*
X733930Y164060D02*
D03*
D25*
X1345000Y425000D02*
D03*
Y30000D02*
D03*
X30000D02*
D03*
Y425000D02*
D03*
D26*
X596200Y75000D02*
D03*
X816200Y40000D02*
D03*
D27*
X443800Y75000D02*
D03*
X663800Y40000D02*
D03*
X596770Y132980D02*
D03*
D28*
X410080Y225690D02*
D03*
D29*
X568830Y371740D02*
D03*
D30*
X619630D02*
D03*
X1292350Y309670D02*
D03*
D31*
X596770Y285380D02*
D03*
D32*
X397380Y166400D02*
D03*
D33*
Y191400D02*
D03*
X64840Y172350D02*
D03*
X162230Y171080D02*
D03*
D34*
X1292350Y360470D02*
D03*
D35*
X141170Y303160D02*
D03*
Y277760D02*
D03*
Y252360D02*
D03*
Y226960D02*
D03*
X61770D02*
D03*
Y252360D02*
D03*
Y277760D02*
D03*
X346910Y298080D02*
D03*
Y272680D02*
D03*
Y247280D02*
D03*
Y221880D02*
D03*
X267510D02*
D03*
Y247280D02*
D03*
Y272680D02*
D03*
D36*
X61770Y303160D02*
D03*
X267510Y298080D02*
D03*
D37*
X72260Y366660D02*
D03*
X337690Y360310D02*
D03*
D38*
X89840Y172350D02*
D03*
X137230Y171080D02*
D03*
M02*
