G04*
G04 #@! TF.GenerationSoftware,Altium Limited,Altium Designer,23.7.1 (13)*
G04*
G04 Layer_Color=16711935*
%FSLAX44Y44*%
%MOMM*%
G71*
G04*
G04 #@! TF.SameCoordinates,A07C0687-F844-4A61-819B-523DF58B2253*
G04*
G04*
G04 #@! TF.FilePolarity,Positive*
G04*
G01*
G75*
%ADD10C,0.2000*%
%ADD11C,0.1270*%
%ADD69C,0.0254*%
%ADD70C,1.2700*%
D10*
X708770Y383000D02*
G03*
X708770Y383000I-1000J0D01*
G01*
X1286000Y181900D02*
G03*
X1286000Y181900I-1000J0D01*
G01*
X456600Y221970D02*
G03*
X456600Y221970I-1000J0D01*
G01*
X516290D02*
G03*
X516290Y221970I-1000J0D01*
G01*
X734930Y104060D02*
G03*
X734930Y104060I-1000J0D01*
G01*
X569830Y359040D02*
G03*
X569830Y359040I-1000J0D01*
G01*
X398380Y146400D02*
G03*
X398380Y146400I-1000J0D01*
G01*
X1285730Y187600D02*
G03*
X1285730Y187600I-1000J0D01*
G01*
X1280650Y360470D02*
G03*
X1280650Y360470I-1000J0D01*
G01*
X52120Y303160D02*
G03*
X52120Y303160I-1000J0D01*
G01*
X54060Y366660D02*
G03*
X54060Y366660I-1000J0D01*
G01*
X110840Y172350D02*
G03*
X110840Y172350I-1000J0D01*
G01*
X118230Y171080D02*
G03*
X118230Y171080I-1000J0D01*
G01*
X357890Y360310D02*
G03*
X357890Y360310I-1000J0D01*
G01*
X257860Y298080D02*
G03*
X257860Y298080I-1000J0D01*
G01*
D11*
X443671Y160720D02*
G03*
X443671Y199220I13479J19250D01*
G01*
X503361Y160720D02*
G03*
X503361Y199220I13479J19250D01*
G01*
X823930Y201560D02*
G03*
X823930Y201560I-90000J0D01*
G01*
X422380Y178900D02*
G03*
X422380Y178900I-25000J0D01*
G01*
X102340Y172350D02*
G03*
X102340Y172350I-25000J0D01*
G01*
X174730Y171080D02*
G03*
X174730Y171080I-25000J0D01*
G01*
X1110000Y165000D02*
X1143000D01*
X857000D02*
X890000D01*
Y212500D01*
Y117500D02*
Y165000D01*
Y117500D02*
X1110000D01*
Y165000D01*
Y212500D01*
X890000D02*
X1110000D01*
X839340Y411110D02*
X1164460D01*
X839340Y246010D02*
Y411110D01*
Y246010D02*
X1164460D01*
Y411110D01*
X681970Y389625D02*
Y434075D01*
Y389625D02*
X784370D01*
Y434075D01*
X681970D02*
X784370D01*
X1253200Y175400D02*
X1310400D01*
X1253200Y124600D02*
Y175400D01*
Y124600D02*
X1310400D01*
Y175400D01*
X1253200D02*
X1310400D01*
X1253200Y124600D02*
Y175400D01*
Y124600D02*
X1310400D01*
X443650Y160735D02*
Y199205D01*
X503340Y160735D02*
Y199205D01*
X543430Y412740D02*
X645030D01*
Y330740D02*
Y412740D01*
X543430Y330740D02*
X645030D01*
X543430D02*
Y412740D01*
X1259330Y194100D02*
X1316530D01*
Y244900D01*
X1259330D02*
X1316530D01*
X1259330Y194100D02*
Y244900D01*
Y194100D02*
X1316530D01*
Y244900D01*
X1259330D02*
X1316530D01*
X1333350Y284270D02*
Y385870D01*
X1251350Y284270D02*
X1333350D01*
X1251350D02*
Y385870D01*
X1333350D01*
X133220Y217110D02*
Y313010D01*
X69720Y217110D02*
Y313010D01*
Y217110D02*
X133220D01*
X69720Y313010D02*
X133220D01*
X110360Y334860D02*
Y392060D01*
X59560Y334860D02*
X110360D01*
X59560D02*
Y392060D01*
X110360D01*
Y334860D02*
Y392060D01*
X59560Y334860D02*
X110360D01*
X59560D02*
Y392060D01*
X299590Y334910D02*
Y392110D01*
X350390D01*
Y334910D02*
Y392110D01*
X299590Y334910D02*
X350390D01*
X299590D02*
Y392110D01*
X350390D01*
Y334910D02*
Y392110D01*
X338960Y212030D02*
Y307930D01*
X275460Y212030D02*
Y307930D01*
Y212030D02*
X338960D01*
X275460Y307930D02*
X338960D01*
D69*
X488998Y272502D02*
X521002D01*
X488998D02*
Y367498D01*
X521002D01*
Y272502D02*
Y367498D01*
X505000D02*
Y398740D01*
Y241260D02*
Y272502D01*
X428998Y273302D02*
X461002D01*
X428998D02*
Y368298D01*
X461002D01*
Y273302D02*
Y368298D01*
X445000D02*
Y399540D01*
Y242060D02*
Y273302D01*
X378998D02*
X411002D01*
X378998D02*
Y368298D01*
X411002D01*
Y273302D02*
Y368298D01*
X395000D02*
Y399540D01*
Y242060D02*
Y273302D01*
X1193998Y272502D02*
X1226002D01*
X1193998D02*
Y367498D01*
X1226002D01*
Y272502D02*
Y367498D01*
X1210000D02*
Y398740D01*
Y241260D02*
Y272502D01*
X252498Y378998D02*
Y411002D01*
X157502Y378998D02*
X252498D01*
X157502D02*
Y411002D01*
X252498D01*
X126260Y395000D02*
X157502D01*
X252498D02*
X283740D01*
X183998Y217502D02*
X216002D01*
X183998D02*
Y312498D01*
X216002D01*
Y217502D02*
Y312498D01*
X200000D02*
Y343740D01*
Y186260D02*
Y217502D01*
X1193998Y97502D02*
X1226002D01*
X1193998D02*
Y192498D01*
X1226002D01*
Y97502D02*
Y192498D01*
X1210000D02*
Y223740D01*
Y66260D02*
Y97502D01*
X227502Y103998D02*
Y136002D01*
X322498D01*
Y103998D02*
Y136002D01*
X227502Y103998D02*
X322498D01*
Y120000D02*
X353740D01*
X196260D02*
X227502D01*
D70*
X443800Y75000D02*
X460945D01*
X579055D02*
X596200D01*
X663800Y40000D02*
X680945D01*
X799055D02*
X816200D01*
X596770Y132980D02*
Y150125D01*
Y268235D02*
Y285380D01*
M02*
