G04*
G04 #@! TF.GenerationSoftware,Altium Limited,Altium Designer,23.7.1 (13)*
G04*
G04 Layer_Physical_Order=1*
G04 Layer_Color=255*
%FSLAX44Y44*%
%MOMM*%
G71*
G04*
G04 #@! TF.SameCoordinates,A07C0687-F844-4A61-819B-523DF58B2253*
G04*
G04*
G04 #@! TF.FilePolarity,Positive*
G04*
G01*
G75*
%ADD18C,1.5240*%
%ADD19R,1.5240X1.5240*%
%ADD22R,1.5240X1.5240*%
%ADD39C,2.2000*%
%ADD40C,2.0000*%
%ADD41C,1.0000*%
%ADD42C,0.5000*%
%ADD43C,1.5750*%
%ADD44C,1.9050*%
%ADD45C,2.0100*%
%ADD46R,2.0100X2.0100*%
%ADD47C,1.3700*%
%ADD48R,1.3700X1.3700*%
%ADD49C,1.4000*%
%ADD50R,1.4000X1.4000*%
%ADD51C,3.5000*%
%ADD52R,3.8100X3.8100*%
%ADD53C,3.8100*%
%ADD54R,1.6500X1.6500*%
%ADD55C,1.6500*%
%ADD56R,3.8100X3.8100*%
%ADD57R,1.1000X1.1000*%
%ADD58C,1.1000*%
%ADD59R,1.6500X1.6500*%
%ADD60C,1.1300*%
%ADD61R,1.1300X1.1300*%
%ADD62R,1.3700X1.3700*%
%ADD63R,1.1000X1.1000*%
G36*
X420000Y231368D02*
X418730Y231028D01*
X418210Y231928D01*
X416318Y233820D01*
X414002Y235158D01*
X411418Y235850D01*
X408742D01*
X406158Y235158D01*
X405639Y234858D01*
X399171Y241326D01*
Y259840D01*
X405160D01*
Y280160D01*
X384840D01*
Y259840D01*
X388894D01*
Y239198D01*
X389285Y237231D01*
X390399Y235564D01*
X399920Y226043D01*
Y224352D01*
X400612Y221768D01*
X401950Y219452D01*
X403842Y217560D01*
X406158Y216222D01*
X408742Y215530D01*
X411418D01*
X414002Y216222D01*
X416318Y217560D01*
X416806Y218047D01*
X420000Y214853D01*
Y90000D01*
X40000D01*
Y407580D01*
X42775Y409434D01*
X45566Y412225D01*
X47759Y415508D01*
X49270Y419155D01*
X49438Y420000D01*
X420000D01*
Y231368D01*
D02*
G37*
%LPC*%
G36*
X150458Y405160D02*
X150390D01*
Y396270D01*
X159280D01*
Y396338D01*
X158588Y398922D01*
X157250Y401238D01*
X155358Y403130D01*
X153042Y404468D01*
X150458Y405160D01*
D02*
G37*
G36*
X147850D02*
X147782D01*
X145198Y404468D01*
X142882Y403130D01*
X140990Y401238D01*
X139652Y398922D01*
X138960Y396338D01*
Y396270D01*
X147850D01*
Y405160D01*
D02*
G37*
G36*
X159280Y393730D02*
X150390D01*
Y384840D01*
X150458D01*
X153042Y385532D01*
X155358Y386870D01*
X157250Y388762D01*
X158588Y391078D01*
X159280Y393662D01*
Y393730D01*
D02*
G37*
G36*
X147850D02*
X138960D01*
Y393662D01*
X139652Y391078D01*
X140990Y388762D01*
X142882Y386870D01*
X145198Y385532D01*
X147782Y384840D01*
X147850D01*
Y393730D01*
D02*
G37*
G36*
X98930Y376041D02*
Y367930D01*
X107041D01*
X106410Y370284D01*
X105174Y372426D01*
X103426Y374174D01*
X101284Y375410D01*
X98930Y376041D01*
D02*
G37*
G36*
X96390D02*
X94036Y375410D01*
X91894Y374174D01*
X90146Y372426D01*
X88910Y370284D01*
X88279Y367930D01*
X96390D01*
Y376041D01*
D02*
G37*
G36*
X381680Y395139D02*
X315000D01*
X313034Y394748D01*
X311366Y393634D01*
X276366Y358634D01*
X275252Y356967D01*
X274861Y355000D01*
Y312698D01*
X268433Y306270D01*
X259320D01*
Y297157D01*
X220566Y258404D01*
X219452Y256737D01*
X219061Y254770D01*
Y130160D01*
X214040D01*
Y109840D01*
X234360D01*
Y130160D01*
X229339D01*
Y252642D01*
X266587Y289890D01*
X275700D01*
Y299003D01*
X283634Y306936D01*
X284748Y308603D01*
X285139Y310570D01*
Y352872D01*
X317129Y384861D01*
X379552D01*
X385169Y379244D01*
X384840Y378018D01*
Y375342D01*
X385532Y372758D01*
X386870Y370442D01*
X388762Y368550D01*
X391078Y367212D01*
X393662Y366520D01*
X396338D01*
X398922Y367212D01*
X401238Y368550D01*
X403130Y370442D01*
X404468Y372758D01*
X405160Y375342D01*
Y378018D01*
X404468Y380602D01*
X403130Y382918D01*
X401238Y384810D01*
X398922Y386148D01*
X396338Y386840D01*
X393662D01*
X392436Y386511D01*
X385314Y393634D01*
X383647Y394748D01*
X381680Y395139D01*
D02*
G37*
G36*
X107041Y365390D02*
X98930D01*
Y357279D01*
X101284Y357910D01*
X103426Y359146D01*
X105174Y360894D01*
X106410Y363036D01*
X107041Y365390D01*
D02*
G37*
G36*
X96390D02*
X88279D01*
X88910Y363036D01*
X90146Y360894D01*
X91894Y359146D01*
X94036Y357910D01*
X96390Y357279D01*
Y365390D01*
D02*
G37*
G36*
X81650Y376050D02*
X62870D01*
Y357270D01*
X81650D01*
Y376050D01*
D02*
G37*
G36*
X313526Y369700D02*
X311054D01*
X308666Y369060D01*
X306524Y367824D01*
X304776Y366076D01*
X303540Y363934D01*
X302900Y361546D01*
Y359074D01*
X303540Y356686D01*
X304776Y354544D01*
X306524Y352796D01*
X308666Y351560D01*
X311054Y350920D01*
X313526D01*
X315914Y351560D01*
X318056Y352796D01*
X319804Y354544D01*
X321040Y356686D01*
X321680Y359074D01*
Y361546D01*
X321040Y363934D01*
X319804Y366076D01*
X318056Y367824D01*
X315914Y369060D01*
X313526Y369700D01*
D02*
G37*
G36*
X265960Y405160D02*
X245640D01*
Y384840D01*
X250661D01*
Y375939D01*
X249920D01*
X247953Y375548D01*
X246286Y374434D01*
X202564Y330711D01*
X201338Y331040D01*
X198662D01*
X196078Y330348D01*
X193762Y329010D01*
X191870Y327118D01*
X190532Y324802D01*
X189840Y322218D01*
Y319542D01*
X190169Y318316D01*
X176992Y305139D01*
X163410D01*
X161444Y304748D01*
X159776Y303634D01*
X142093Y285950D01*
X140092D01*
X138009Y285392D01*
X136141Y284314D01*
X134616Y282789D01*
X133538Y280921D01*
X132980Y278838D01*
Y276682D01*
X133538Y274599D01*
X134616Y272731D01*
X136141Y271206D01*
X138009Y270128D01*
X140092Y269570D01*
X142248D01*
X144331Y270128D01*
X146199Y271206D01*
X147724Y272731D01*
X148802Y274599D01*
X149360Y276682D01*
Y278683D01*
X165539Y294861D01*
X179120D01*
X181087Y295252D01*
X182754Y296366D01*
X197436Y311049D01*
X198662Y310720D01*
X201338D01*
X203922Y311412D01*
X206238Y312750D01*
X208130Y314642D01*
X209468Y316958D01*
X210160Y319542D01*
Y322218D01*
X209831Y323444D01*
X252048Y365661D01*
X255800D01*
X257766Y366052D01*
X259434Y367166D01*
X260548Y368834D01*
X260939Y370800D01*
Y384840D01*
X265960D01*
Y405160D01*
D02*
G37*
G36*
X142440Y311299D02*
Y304430D01*
X149309D01*
X148802Y306321D01*
X147724Y308189D01*
X146199Y309714D01*
X144331Y310792D01*
X142440Y311299D01*
D02*
G37*
G36*
X139900D02*
X138009Y310792D01*
X136141Y309714D01*
X134616Y308189D01*
X133538Y306321D01*
X133031Y304430D01*
X139900D01*
Y311299D01*
D02*
G37*
G36*
X348180Y306219D02*
Y299350D01*
X355049D01*
X354542Y301241D01*
X353464Y303109D01*
X351939Y304634D01*
X350071Y305712D01*
X348180Y306219D01*
D02*
G37*
G36*
X345640D02*
X343749Y305712D01*
X341881Y304634D01*
X340356Y303109D01*
X339278Y301241D01*
X338771Y299350D01*
X345640D01*
Y306219D01*
D02*
G37*
G36*
X149309Y301890D02*
X142440D01*
Y295021D01*
X144331Y295528D01*
X146199Y296606D01*
X147724Y298131D01*
X148802Y299999D01*
X149309Y301890D01*
D02*
G37*
G36*
X139900D02*
X133031D01*
X133538Y299999D01*
X134616Y298131D01*
X136141Y296606D01*
X138009Y295528D01*
X139900Y295021D01*
Y301890D01*
D02*
G37*
G36*
X69960Y311350D02*
X53580D01*
Y294970D01*
X69960D01*
Y311350D01*
D02*
G37*
G36*
X355049Y296810D02*
X348180D01*
Y289941D01*
X350071Y290448D01*
X351939Y291526D01*
X353464Y293051D01*
X354542Y294919D01*
X355049Y296810D01*
D02*
G37*
G36*
X345640D02*
X338771D01*
X339278Y294919D01*
X340356Y293051D01*
X341881Y291526D01*
X343749Y290448D01*
X345640Y289941D01*
Y296810D01*
D02*
G37*
G36*
X347988Y280870D02*
X345832D01*
X343749Y280312D01*
X341881Y279234D01*
X340356Y277709D01*
X339278Y275841D01*
X338720Y273758D01*
Y271602D01*
X339278Y269519D01*
X340356Y267651D01*
X341881Y266126D01*
X343749Y265048D01*
X345832Y264490D01*
X347988D01*
X350071Y265048D01*
X351939Y266126D01*
X353464Y267651D01*
X354542Y269519D01*
X355100Y271602D01*
Y273758D01*
X354542Y275841D01*
X353464Y277709D01*
X351939Y279234D01*
X350071Y280312D01*
X347988Y280870D01*
D02*
G37*
G36*
X268588D02*
X266432D01*
X264349Y280312D01*
X262481Y279234D01*
X260956Y277709D01*
X259878Y275841D01*
X259320Y273758D01*
Y271602D01*
X259878Y269519D01*
X260956Y267651D01*
X262481Y266126D01*
X264349Y265048D01*
X266432Y264490D01*
X268588D01*
X270671Y265048D01*
X272539Y266126D01*
X274064Y267651D01*
X275142Y269519D01*
X275700Y271602D01*
Y273758D01*
X275142Y275841D01*
X274064Y277709D01*
X272539Y279234D01*
X270671Y280312D01*
X268588Y280870D01*
D02*
G37*
G36*
X347080Y369700D02*
X328300D01*
Y350920D01*
X332551D01*
Y329784D01*
X304846Y302079D01*
X303732Y300411D01*
X303341Y298445D01*
Y272269D01*
X283491Y252419D01*
X273954D01*
X272539Y253834D01*
X270671Y254912D01*
X268588Y255470D01*
X266432D01*
X264349Y254912D01*
X262481Y253834D01*
X260956Y252309D01*
X259878Y250441D01*
X259320Y248358D01*
Y246202D01*
X259878Y244119D01*
X260956Y242251D01*
X262481Y240726D01*
X264349Y239648D01*
X266432Y239090D01*
X268588D01*
X270671Y239648D01*
X272539Y240726D01*
X273954Y242141D01*
X285620D01*
X287586Y242532D01*
X289254Y243646D01*
X312114Y266506D01*
X313228Y268174D01*
X313619Y270140D01*
Y296317D01*
X341324Y324021D01*
X342438Y325689D01*
X342829Y327655D01*
Y350920D01*
X347080D01*
Y369700D01*
D02*
G37*
G36*
X62848Y260550D02*
X60692D01*
X58609Y259992D01*
X56741Y258914D01*
X55216Y257389D01*
X54138Y255521D01*
X53580Y253438D01*
Y251282D01*
X54138Y249199D01*
X55216Y247331D01*
X56741Y245806D01*
X58609Y244728D01*
X60692Y244170D01*
X62848D01*
X64931Y244728D01*
X66799Y245806D01*
X68324Y247331D01*
X69402Y249199D01*
X69960Y251282D01*
Y253438D01*
X69402Y255521D01*
X68324Y257389D01*
X66799Y258914D01*
X64931Y259992D01*
X62848Y260550D01*
D02*
G37*
G36*
X347988Y255470D02*
X345832D01*
X343749Y254912D01*
X341881Y253834D01*
X340356Y252309D01*
X339278Y250441D01*
X338720Y248358D01*
Y246202D01*
X339278Y244119D01*
X340356Y242251D01*
X341881Y240726D01*
X343749Y239648D01*
X345832Y239090D01*
X347988D01*
X350071Y239648D01*
X351939Y240726D01*
X353464Y242251D01*
X354542Y244119D01*
X355100Y246202D01*
Y248358D01*
X354542Y250441D01*
X353464Y252309D01*
X351939Y253834D01*
X350071Y254912D01*
X347988Y255470D01*
D02*
G37*
G36*
X63040Y235099D02*
Y228230D01*
X69909D01*
X69402Y230121D01*
X68324Y231989D01*
X66799Y233514D01*
X64931Y234592D01*
X63040Y235099D01*
D02*
G37*
G36*
X60500D02*
X58609Y234592D01*
X56741Y233514D01*
X55216Y231989D01*
X54138Y230121D01*
X53631Y228230D01*
X60500D01*
Y235099D01*
D02*
G37*
G36*
X69909Y225690D02*
X63040D01*
Y218821D01*
X64931Y219328D01*
X66799Y220406D01*
X68324Y221931D01*
X69402Y223799D01*
X69909Y225690D01*
D02*
G37*
G36*
X60500D02*
X53631D01*
X54138Y223799D01*
X55216Y221931D01*
X56741Y220406D01*
X58609Y219328D01*
X60500Y218821D01*
Y225690D01*
D02*
G37*
G36*
X347988Y230070D02*
X345832D01*
X343749Y229512D01*
X341881Y228434D01*
X340356Y226909D01*
X339278Y225041D01*
X338720Y222958D01*
Y220802D01*
X339278Y218719D01*
X340356Y216851D01*
X341881Y215326D01*
X343749Y214248D01*
X345832Y213690D01*
X347988D01*
X350071Y214248D01*
X351939Y215326D01*
X353464Y216851D01*
X354542Y218719D01*
X355100Y220802D01*
Y222958D01*
X354542Y225041D01*
X353464Y226909D01*
X351939Y228434D01*
X350071Y229512D01*
X347988Y230070D01*
D02*
G37*
G36*
X268588D02*
X266432D01*
X264349Y229512D01*
X262481Y228434D01*
X260956Y226909D01*
X259878Y225041D01*
X259320Y222958D01*
Y220802D01*
X259878Y218719D01*
X260956Y216851D01*
X262481Y215326D01*
X264349Y214248D01*
X266432Y213690D01*
X268588D01*
X270671Y214248D01*
X272539Y215326D01*
X274064Y216851D01*
X275142Y218719D01*
X275700Y220802D01*
Y222958D01*
X275142Y225041D01*
X274064Y226909D01*
X272539Y228434D01*
X270671Y229512D01*
X268588Y230070D01*
D02*
G37*
G36*
X398438Y199440D02*
X396321D01*
X394277Y198892D01*
X392443Y197834D01*
X390946Y196337D01*
X389888Y194503D01*
X389340Y192458D01*
Y190341D01*
X389888Y188297D01*
X390946Y186463D01*
X392443Y184966D01*
X394277Y183908D01*
X396321Y183360D01*
X398438D01*
X400483Y183908D01*
X402317Y184966D01*
X403814Y186463D01*
X404872Y188297D01*
X405420Y190341D01*
Y192458D01*
X404872Y194503D01*
X403814Y196337D01*
X402317Y197834D01*
X400483Y198892D01*
X398438Y199440D01*
D02*
G37*
G36*
X405420Y174440D02*
X398650D01*
Y167670D01*
X405420D01*
Y174440D01*
D02*
G37*
G36*
X396110D02*
X389340D01*
Y167670D01*
X396110D01*
Y174440D01*
D02*
G37*
G36*
X142248Y235150D02*
X140092D01*
X138009Y234592D01*
X136141Y233514D01*
X134616Y231989D01*
X133538Y230121D01*
X132980Y228038D01*
Y226037D01*
X112343Y205400D01*
X111229Y203733D01*
X110837Y201766D01*
Y200615D01*
X90613Y180390D01*
X81800D01*
Y164310D01*
X97880D01*
Y173123D01*
X119610Y194853D01*
X120724Y196520D01*
X121115Y198486D01*
Y199638D01*
X140247Y218770D01*
X142248D01*
X144331Y219328D01*
X146199Y220406D01*
X147724Y221931D01*
X148802Y223799D01*
X149360Y225882D01*
Y228038D01*
X148802Y230121D01*
X147724Y231989D01*
X146199Y233514D01*
X144331Y234592D01*
X142248Y235150D01*
D02*
G37*
G36*
X65898Y180390D02*
X63781D01*
X61737Y179842D01*
X59903Y178784D01*
X58406Y177287D01*
X57348Y175453D01*
X56800Y173409D01*
Y171292D01*
X57348Y169247D01*
X58406Y167413D01*
X59903Y165916D01*
X61737Y164858D01*
X63781Y164310D01*
X65898D01*
X67943Y164858D01*
X69777Y165916D01*
X71274Y167413D01*
X72332Y169247D01*
X72880Y171292D01*
Y173409D01*
X72332Y175453D01*
X71274Y177287D01*
X69777Y178784D01*
X67943Y179842D01*
X65898Y180390D01*
D02*
G37*
G36*
X405420Y165130D02*
X398650D01*
Y158360D01*
X405420D01*
Y165130D01*
D02*
G37*
G36*
X396110D02*
X389340D01*
Y158360D01*
X396110D01*
Y165130D01*
D02*
G37*
G36*
X62848Y285950D02*
X60692D01*
X58609Y285392D01*
X56741Y284314D01*
X55216Y282789D01*
X54138Y280921D01*
X53580Y278838D01*
Y276682D01*
X54138Y274599D01*
X55216Y272731D01*
X56741Y271206D01*
X58609Y270128D01*
X60692Y269570D01*
X62848D01*
X64931Y270128D01*
X66799Y271206D01*
X68214Y272621D01*
X113642D01*
X132980Y253283D01*
Y251282D01*
X133538Y249199D01*
X134616Y247331D01*
X136141Y245806D01*
X138009Y244728D01*
X140092Y244170D01*
X141763D01*
X154751Y231182D01*
Y195868D01*
X138003Y179120D01*
X129190D01*
Y163040D01*
X138003D01*
X144136Y156906D01*
X145803Y155792D01*
X147770Y155401D01*
X175540D01*
X177507Y155792D01*
X179174Y156906D01*
X186871Y164604D01*
X187985Y166271D01*
X188377Y168238D01*
Y195309D01*
X197107Y204040D01*
X210160D01*
Y224360D01*
X189840D01*
Y211307D01*
X179604Y201071D01*
X178490Y199404D01*
X178099Y197438D01*
Y170366D01*
X173412Y165679D01*
X169862D01*
X169129Y166949D01*
X169722Y167977D01*
X170270Y170021D01*
Y172139D01*
X169722Y174183D01*
X168664Y176017D01*
X167167Y177514D01*
X165333Y178572D01*
X163288Y179120D01*
X161171D01*
X159127Y178572D01*
X157293Y177514D01*
X155796Y176017D01*
X154738Y174183D01*
X154190Y172139D01*
Y170021D01*
X154738Y167977D01*
X155331Y166949D01*
X154598Y165679D01*
X149899D01*
X145270Y170307D01*
Y171853D01*
X163524Y190106D01*
X164638Y191773D01*
X165029Y193740D01*
Y233310D01*
X164638Y235277D01*
X163524Y236944D01*
X149323Y251144D01*
X149360Y251282D01*
Y253438D01*
X148802Y255521D01*
X147724Y257389D01*
X146199Y258914D01*
X144331Y259992D01*
X142248Y260550D01*
X140247D01*
X119404Y281394D01*
X117737Y282508D01*
X115770Y282899D01*
X68214D01*
X66799Y284314D01*
X64931Y285392D01*
X62848Y285950D01*
D02*
G37*
G36*
X332218Y130160D02*
X332150D01*
Y121270D01*
X341040D01*
Y121338D01*
X340348Y123922D01*
X339010Y126238D01*
X337118Y128130D01*
X334802Y129468D01*
X332218Y130160D01*
D02*
G37*
G36*
X329610D02*
X329542D01*
X326958Y129468D01*
X324642Y128130D01*
X322750Y126238D01*
X321412Y123922D01*
X320720Y121338D01*
Y121270D01*
X329610D01*
Y130160D01*
D02*
G37*
G36*
X341040Y118730D02*
X332150D01*
Y109840D01*
X332218D01*
X334802Y110532D01*
X337118Y111870D01*
X339010Y113762D01*
X340348Y116078D01*
X341040Y118662D01*
Y118730D01*
D02*
G37*
G36*
X329610D02*
X320720D01*
Y118662D01*
X321412Y116078D01*
X322750Y113762D01*
X324642Y111870D01*
X326958Y110532D01*
X329542Y109840D01*
X329610D01*
Y118730D01*
D02*
G37*
%LPD*%
D18*
X505000Y375880D02*
D03*
X445000Y376680D02*
D03*
X395000D02*
D03*
X1210000Y375880D02*
D03*
X149120Y395000D02*
D03*
X200000Y320880D02*
D03*
X1210000Y200880D02*
D03*
X330880Y120000D02*
D03*
X410080Y225690D02*
D03*
D19*
X505000Y269200D02*
D03*
X445000Y270000D02*
D03*
X395000D02*
D03*
X1210000Y269200D02*
D03*
X200000Y214200D02*
D03*
X1210000Y94200D02*
D03*
D22*
X255800Y395000D02*
D03*
X224200Y120000D02*
D03*
D39*
X1143000Y165000D02*
Y278000D01*
X1185000Y320000D01*
X1284730Y232200D02*
Y275270D01*
X1240000Y320000D02*
X1284730Y275270D01*
X1185000Y320000D02*
X1240000D01*
X999460Y255000D02*
X1001900Y257440D01*
X885000Y255000D02*
X999460D01*
X733930Y164060D02*
X794060D01*
X885000Y255000D01*
X663800Y40000D02*
X733930Y110130D01*
Y164060D01*
X790737Y212887D02*
Y231113D01*
X710000Y200000D02*
X777850D01*
X604250Y94250D02*
X710000Y200000D01*
X777850D02*
X790737Y212887D01*
X790000Y231850D02*
X790737Y231113D01*
X596200Y75000D02*
X604250Y83050D01*
Y94250D01*
X659443Y40000D02*
X663800D01*
X634443Y15000D02*
X659443Y40000D01*
X503800Y15000D02*
X634443D01*
X443800Y75000D02*
X503800Y15000D01*
X770000Y405000D02*
X996580D01*
X1001900Y399680D01*
X770000Y405000D02*
X790000Y385000D01*
Y231850D02*
Y385000D01*
X770000Y376060D02*
Y405000D01*
X679320Y285380D02*
X770000Y376060D01*
X698880Y395110D02*
Y405000D01*
X628520Y324750D02*
X698880Y395110D01*
X445000Y375550D02*
X505000D01*
X733170Y405000D02*
Y421830D01*
X619630Y371740D02*
X682890Y435000D01*
X720000D01*
X733170Y421830D01*
X596770Y285380D02*
X679320D01*
X1284730Y232200D02*
X1297200D01*
X1330000Y265000D01*
X1225410Y360470D02*
X1292350D01*
X1210000Y375880D02*
X1225410Y360470D01*
X1195860Y361740D02*
X1210000Y375880D01*
X505000D02*
X528800Y399680D01*
X505000Y269200D02*
X560550Y324750D01*
X1330000Y265000D02*
Y322820D01*
X1292350Y360470D02*
X1330000Y322820D01*
X443800Y75000D02*
X444435Y75635D01*
X560550Y324750D02*
X628520D01*
X528800Y399680D02*
X591690D01*
X619630Y371740D01*
D40*
X816200Y40000D02*
X1170000D01*
X1190000Y60000D01*
X816200Y40000D02*
X857000Y80800D01*
Y165000D01*
X1284730Y206800D02*
X1320000Y171530D01*
Y115000D02*
Y171530D01*
X1190000Y60000D02*
X1265000D01*
X1320000Y115000D01*
D41*
X1209800Y201080D02*
Y269200D01*
X1248180Y162700D02*
X1272872Y138008D01*
X1210000Y200880D02*
X1248180Y162700D01*
X1272872Y138008D02*
X1284292D01*
X1285000Y137300D01*
X1248180Y162700D02*
X1285000D01*
X1209800Y201080D02*
X1210000Y200880D01*
D42*
X505000Y269200D02*
X507870Y266330D01*
Y215530D02*
Y266330D01*
X445000Y270000D02*
X455800Y259200D01*
Y199020D02*
Y259200D01*
X315000Y390000D02*
X381680D01*
X280000Y355000D02*
X315000Y390000D01*
X381680D02*
X395000Y376680D01*
X394032Y269032D02*
X395000Y270000D01*
X394032Y239198D02*
Y269032D01*
X183238Y197438D02*
X200000Y214200D01*
X183238Y168238D02*
Y197438D01*
X141170Y277760D02*
X163410Y300000D01*
X179120D02*
X200000Y320880D01*
X163410Y300000D02*
X179120D01*
X200000Y320880D02*
X249920Y370800D01*
X255800D01*
Y395000D01*
X224200Y120000D02*
Y254770D01*
X267510Y298080D01*
X175540Y160540D02*
X183238Y168238D01*
X147770Y160540D02*
X175540D01*
X137230Y171080D02*
X147770Y160540D01*
X280000Y310570D02*
Y355000D01*
X267510Y298080D02*
X280000Y310570D01*
X432551Y201141D02*
X453722Y179970D01*
X455600D01*
X410080Y225690D02*
X412039Y223731D01*
X432551Y201141D02*
Y209569D01*
X418389Y223731D02*
X432551Y209569D01*
X412039Y223731D02*
X418389D01*
X407540Y225690D02*
X410080D01*
X394032Y239198D02*
X407540Y225690D01*
X455800Y199020D02*
X494362D01*
X513412Y179970D01*
X515290D01*
X515490Y199020D02*
Y207910D01*
X507870Y215530D02*
X515490Y207910D01*
X267510Y247280D02*
X285620D01*
X308480Y270140D01*
Y298445D01*
X337690Y327655D02*
Y360310D01*
X308480Y298445D02*
X337690Y327655D01*
X61770Y277760D02*
X115770D01*
X141170Y252360D01*
Y252030D02*
Y252360D01*
Y252030D02*
X159890Y233310D01*
X137230Y171080D02*
X159890Y193740D01*
Y233310D01*
X89840Y172350D02*
X115976Y198486D01*
Y201766D01*
X141170Y226960D01*
D43*
X1143000Y165000D02*
D03*
X857000D02*
D03*
D44*
X1001900Y257440D02*
D03*
Y399680D02*
D03*
D45*
X770000Y405000D02*
D03*
X733170D02*
D03*
D46*
X698880D02*
D03*
D47*
X1285000Y137300D02*
D03*
X1284730Y232200D02*
D03*
X97660Y366660D02*
D03*
X312290Y360310D02*
D03*
D48*
X1285000Y162700D02*
D03*
X1284730Y206800D02*
D03*
D49*
X455800Y160920D02*
D03*
X455600Y179970D02*
D03*
X515290D02*
D03*
X515490Y160920D02*
D03*
X733930Y239060D02*
D03*
D50*
X455800Y199020D02*
D03*
X515490D02*
D03*
X733930Y164060D02*
D03*
D51*
X1345000Y425000D02*
D03*
Y30000D02*
D03*
X30000D02*
D03*
Y425000D02*
D03*
D52*
X596200Y75000D02*
D03*
X816200Y40000D02*
D03*
D53*
X443800Y75000D02*
D03*
X663800Y40000D02*
D03*
X596770Y132980D02*
D03*
D54*
X568830Y371740D02*
D03*
D55*
X619630D02*
D03*
X1292350Y309670D02*
D03*
D56*
X596770Y285380D02*
D03*
D57*
X397380Y166400D02*
D03*
D58*
Y191400D02*
D03*
X64840Y172350D02*
D03*
X162230Y171080D02*
D03*
D59*
X1292350Y360470D02*
D03*
D60*
X141170Y303160D02*
D03*
Y277760D02*
D03*
Y252360D02*
D03*
Y226960D02*
D03*
X61770D02*
D03*
Y252360D02*
D03*
Y277760D02*
D03*
X346910Y298080D02*
D03*
Y272680D02*
D03*
Y247280D02*
D03*
Y221880D02*
D03*
X267510D02*
D03*
Y247280D02*
D03*
Y272680D02*
D03*
D61*
X61770Y303160D02*
D03*
X267510Y298080D02*
D03*
D62*
X72260Y366660D02*
D03*
X337690Y360310D02*
D03*
D63*
X89840Y172350D02*
D03*
X137230Y171080D02*
D03*
M02*
