M48
;Layer_Color=9474304
;FILE_FORMAT=4:4
METRIC,LZ
;TYPE=PLATED
T01F00S00C0.7500
T02F00S00C0.7620
T03F00S00C0.7800
T04F00S00C0.9300
T05F00S00C1.0160
T06F00S00C1.0200
T07F00S00C1.0500
T08F00S00C1.1000
T09F00S00C1.2700
T10F00S00C1.3400
T11F00S00C1.4986
T12F00S00C3.2000
%
T01
X0006484Y0017235
X0008984
X0013723Y0017108
X0016223
X0039738Y001664
Y001914
T02
X0041008Y0022569
T03
X0006177Y0022696
Y0025236
Y0027776
Y0030316
X0014117
Y0027776
Y0025236
Y0022696
X0026751Y0022188
Y0024728
Y0027268
Y0029808
X0034691
Y0027268
Y0024728
Y0022188
T04
X004558Y0016092
X004556Y0017997
X004558Y0019902
X0051549
X0051529Y0017997
X0051549Y0016092
T05
X002242Y0012
X0033088
X00395Y0027
X00445
X00505Y002692
X002Y0032088
Y002142
X0121Y0020088
Y002692
Y000942
Y0037588
X00505
X00445Y0037668
X00395
X002558Y00395
X0014912
T06
X01285Y001373
Y001627
X0128473Y002068
Y002322
X0033769Y0036031
X0031229
X0009766Y0036666
X0007226
T07
X0073393Y0016406
Y0023906
X00857Y00165
X01143
T08
X0129235Y0030967
Y0036047
X0061963Y0037174
X0056883
T09
X010019Y0025744
Y0039968
T10
X0069888Y00405
X0073317
X0077
T11
X004438Y00075
X005962
X0059677Y0013298
Y0028538
X006638Y0004
X008162
T12
X0003Y0003
X01345
Y00425
X0003
M30
