G04*
G04 #@! TF.GenerationSoftware,Altium Limited,Altium Designer,23.7.1 (13)*
G04*
G04 Layer_Physical_Order=2*
G04 Layer_Color=16711680*
%FSLAX44Y44*%
%MOMM*%
G71*
G04*
G04 #@! TF.SameCoordinates,A07C0687-F844-4A61-819B-523DF58B2253*
G04*
G04*
G04 #@! TF.FilePolarity,Positive*
G04*
G01*
G75*
%ADD18C,1.5240*%
%ADD19R,1.5240X1.5240*%
%ADD22R,1.5240X1.5240*%
%ADD42C,0.5000*%
%ADD43C,1.5750*%
%ADD44C,1.9050*%
%ADD45C,2.0100*%
%ADD46R,2.0100X2.0100*%
%ADD47C,1.3700*%
%ADD48R,1.3700X1.3700*%
%ADD49C,1.4000*%
%ADD50R,1.4000X1.4000*%
%ADD51C,3.5000*%
%ADD52R,3.8100X3.8100*%
%ADD53C,3.8100*%
%ADD54R,1.6500X1.6500*%
%ADD55C,1.6500*%
%ADD56R,3.8100X3.8100*%
%ADD57R,1.1000X1.1000*%
%ADD58C,1.1000*%
%ADD59R,1.6500X1.6500*%
%ADD60C,1.1300*%
%ADD61R,1.1300X1.1300*%
%ADD62R,1.3700X1.3700*%
%ADD63R,1.1000X1.1000*%
G36*
X1324960Y425077D02*
Y423026D01*
X1325730Y419155D01*
X1327241Y415508D01*
X1329434Y412225D01*
X1332225Y409434D01*
X1335000Y407580D01*
Y47420D01*
X1332225Y45566D01*
X1329434Y42775D01*
X1327241Y39492D01*
X1325730Y35845D01*
X1324960Y31974D01*
Y28026D01*
X1325367Y25982D01*
X1324561Y25000D01*
X837790D01*
Y61590D01*
X794610D01*
Y25000D01*
X680992D01*
X680696Y25714D01*
X680592Y26270D01*
X682933Y29773D01*
X684560Y33702D01*
X685390Y37874D01*
Y42126D01*
X684560Y46298D01*
X682933Y50227D01*
X680570Y53763D01*
X677563Y56770D01*
X674027Y59133D01*
X670098Y60760D01*
X665926Y61590D01*
X661674D01*
X657502Y60760D01*
X653573Y59133D01*
X650037Y56770D01*
X647030Y53763D01*
X644667Y50227D01*
X643040Y46298D01*
X642210Y42126D01*
Y37874D01*
X643040Y33702D01*
X644667Y29773D01*
X647008Y26270D01*
X646904Y25714D01*
X646608Y25000D01*
X50439D01*
X49633Y25982D01*
X50040Y28026D01*
Y31974D01*
X49270Y35845D01*
X47759Y39492D01*
X45566Y42775D01*
X42775Y45566D01*
X39492Y47759D01*
X35845Y49270D01*
X31974Y50040D01*
X30000D01*
Y404960D01*
X31974D01*
X35845Y405730D01*
X39492Y407241D01*
X42775Y409434D01*
X45566Y412225D01*
X47759Y415508D01*
X49270Y419155D01*
X50040Y423026D01*
Y426974D01*
X49270Y430845D01*
X48133Y433591D01*
X48984Y434855D01*
X1324960Y425077D01*
D02*
G37*
%LPC*%
G36*
X771657Y417590D02*
X768343D01*
X765141Y416732D01*
X762270Y415075D01*
X759926Y412730D01*
X758268Y409860D01*
X757410Y406657D01*
Y403343D01*
X758268Y400140D01*
X759926Y397270D01*
X762270Y394925D01*
X765141Y393268D01*
X768343Y392410D01*
X771657D01*
X774860Y393268D01*
X777730Y394925D01*
X780074Y397270D01*
X781732Y400140D01*
X782590Y403343D01*
Y406657D01*
X781732Y409860D01*
X780074Y412730D01*
X777730Y415075D01*
X774860Y416732D01*
X771657Y417590D01*
D02*
G37*
G36*
X734827D02*
X731513D01*
X728310Y416732D01*
X725440Y415075D01*
X723095Y412730D01*
X721438Y409860D01*
X720580Y406657D01*
Y403343D01*
X721438Y400140D01*
X723095Y397270D01*
X725440Y394925D01*
X728310Y393268D01*
X731513Y392410D01*
X734827D01*
X738030Y393268D01*
X740900Y394925D01*
X743244Y397270D01*
X744902Y400140D01*
X745760Y403343D01*
Y406657D01*
X744902Y409860D01*
X743244Y412730D01*
X740900Y415075D01*
X738030Y416732D01*
X734827Y417590D01*
D02*
G37*
G36*
X711470D02*
X686290D01*
Y392410D01*
X711470D01*
Y417590D01*
D02*
G37*
G36*
X1003488Y411745D02*
X1000312D01*
X997243Y410923D01*
X994492Y409334D01*
X992246Y407088D01*
X990657Y404337D01*
X989835Y401268D01*
Y398092D01*
X990657Y395023D01*
X992246Y392272D01*
X994492Y390026D01*
X997243Y388437D01*
X1000312Y387615D01*
X1003488D01*
X1006557Y388437D01*
X1009308Y390026D01*
X1011554Y392272D01*
X1013143Y395023D01*
X1013965Y398092D01*
Y401268D01*
X1013143Y404337D01*
X1011554Y407088D01*
X1009308Y409334D01*
X1006557Y410923D01*
X1003488Y411745D01*
D02*
G37*
G36*
X265960Y405160D02*
X245640D01*
Y384840D01*
X265960D01*
Y405160D01*
D02*
G37*
G36*
X150458D02*
X147782D01*
X145198Y404468D01*
X142882Y403130D01*
X140990Y401238D01*
X139652Y398922D01*
X138960Y396338D01*
Y393662D01*
X139652Y391078D01*
X140990Y388762D01*
X142882Y386870D01*
X145198Y385532D01*
X147782Y384840D01*
X150458D01*
X153042Y385532D01*
X155358Y386870D01*
X157250Y388762D01*
X158588Y391078D01*
X159280Y393662D01*
Y396338D01*
X158588Y398922D01*
X157250Y401238D01*
X155358Y403130D01*
X153042Y404468D01*
X150458Y405160D01*
D02*
G37*
G36*
X579620Y382530D02*
X570100D01*
Y373010D01*
X579620D01*
Y382530D01*
D02*
G37*
G36*
X567560D02*
X558040D01*
Y373010D01*
X567560D01*
Y382530D01*
D02*
G37*
G36*
X81650Y376050D02*
X73530D01*
Y367930D01*
X81650D01*
Y376050D01*
D02*
G37*
G36*
X70990D02*
X62870D01*
Y367930D01*
X70990D01*
Y376050D01*
D02*
G37*
G36*
X446338Y386840D02*
X443662D01*
X441078Y386148D01*
X438762Y384810D01*
X436870Y382918D01*
X435532Y380602D01*
X434840Y378018D01*
Y375342D01*
X435532Y372758D01*
X436870Y370442D01*
X438762Y368550D01*
X441078Y367212D01*
X443662Y366520D01*
X446338D01*
X448922Y367212D01*
X451238Y368550D01*
X453130Y370442D01*
X454468Y372758D01*
X455160Y375342D01*
Y378018D01*
X454468Y380602D01*
X453130Y382918D01*
X451238Y384810D01*
X448922Y386148D01*
X446338Y386840D01*
D02*
G37*
G36*
X396338D02*
X393662D01*
X391078Y386148D01*
X388762Y384810D01*
X386870Y382918D01*
X385532Y380602D01*
X384840Y378018D01*
Y375342D01*
X385532Y372758D01*
X386870Y370442D01*
X388762Y368550D01*
X391078Y367212D01*
X393662Y366520D01*
X396338D01*
X398922Y367212D01*
X401238Y368550D01*
X403130Y370442D01*
X404468Y372758D01*
X405160Y375342D01*
Y378018D01*
X404468Y380602D01*
X403130Y382918D01*
X401238Y384810D01*
X398922Y386148D01*
X396338Y386840D01*
D02*
G37*
G36*
X1211338Y386040D02*
X1208662D01*
X1206078Y385348D01*
X1203762Y384010D01*
X1201870Y382118D01*
X1200532Y379802D01*
X1199840Y377218D01*
Y374542D01*
X1200532Y371958D01*
X1201870Y369642D01*
X1203762Y367750D01*
X1206078Y366412D01*
X1208662Y365720D01*
X1211338D01*
X1213922Y366412D01*
X1216238Y367750D01*
X1218130Y369642D01*
X1219468Y371958D01*
X1220160Y374542D01*
Y377218D01*
X1219468Y379802D01*
X1218130Y382118D01*
X1216238Y384010D01*
X1213922Y385348D01*
X1211338Y386040D01*
D02*
G37*
G36*
X506338D02*
X503662D01*
X501078Y385348D01*
X498762Y384010D01*
X496870Y382118D01*
X495532Y379802D01*
X494840Y377218D01*
Y374542D01*
X495532Y371958D01*
X496870Y369642D01*
X498762Y367750D01*
X501078Y366412D01*
X503662Y365720D01*
X506338D01*
X508922Y366412D01*
X511238Y367750D01*
X513130Y369642D01*
X514468Y371958D01*
X515160Y374542D01*
Y377218D01*
X514468Y379802D01*
X513130Y382118D01*
X511238Y384010D01*
X508922Y385348D01*
X506338Y386040D01*
D02*
G37*
G36*
X621050Y382530D02*
X618209D01*
X615465Y381795D01*
X613005Y380374D01*
X610996Y378365D01*
X609575Y375905D01*
X608840Y373161D01*
Y370320D01*
X609575Y367575D01*
X610996Y365115D01*
X613005Y363106D01*
X615465Y361685D01*
X618209Y360950D01*
X621050D01*
X623795Y361685D01*
X626255Y363106D01*
X628264Y365115D01*
X629685Y367575D01*
X630420Y370320D01*
Y373161D01*
X629685Y375905D01*
X628264Y378365D01*
X626255Y380374D01*
X623795Y381795D01*
X621050Y382530D01*
D02*
G37*
G36*
X579620Y370470D02*
X570100D01*
Y360950D01*
X579620D01*
Y370470D01*
D02*
G37*
G36*
X567560D02*
X558040D01*
Y360950D01*
X567560D01*
Y370470D01*
D02*
G37*
G36*
X98896Y376050D02*
X96424D01*
X94036Y375410D01*
X91894Y374174D01*
X90146Y372426D01*
X88910Y370284D01*
X88270Y367896D01*
Y365424D01*
X88910Y363036D01*
X90146Y360894D01*
X91894Y359146D01*
X94036Y357910D01*
X96424Y357270D01*
X98896D01*
X101284Y357910D01*
X103426Y359146D01*
X105174Y360894D01*
X106410Y363036D01*
X107050Y365424D01*
Y367896D01*
X106410Y370284D01*
X105174Y372426D01*
X103426Y374174D01*
X101284Y375410D01*
X98896Y376050D01*
D02*
G37*
G36*
X81650Y365390D02*
X73530D01*
Y357270D01*
X81650D01*
Y365390D01*
D02*
G37*
G36*
X70990D02*
X62870D01*
Y357270D01*
X70990D01*
Y365390D01*
D02*
G37*
G36*
X347080Y369700D02*
X328300D01*
Y350920D01*
X347080D01*
Y369700D01*
D02*
G37*
G36*
X313526D02*
X311054D01*
X308666Y369060D01*
X306524Y367824D01*
X304776Y366076D01*
X303540Y363934D01*
X302900Y361546D01*
Y359074D01*
X303540Y356686D01*
X304776Y354544D01*
X306524Y352796D01*
X308666Y351560D01*
X311054Y350920D01*
X313526D01*
X315914Y351560D01*
X318056Y352796D01*
X319804Y354544D01*
X321040Y356686D01*
X321680Y359074D01*
Y361546D01*
X321040Y363934D01*
X319804Y366076D01*
X318056Y367824D01*
X315914Y369060D01*
X313526Y369700D01*
D02*
G37*
G36*
X1303140Y371260D02*
X1281560D01*
Y349680D01*
X1303140D01*
Y371260D01*
D02*
G37*
G36*
X1293770Y320460D02*
X1293620D01*
Y310940D01*
X1303140D01*
Y311091D01*
X1302405Y313835D01*
X1300984Y316295D01*
X1298975Y318304D01*
X1296515Y319725D01*
X1293770Y320460D01*
D02*
G37*
G36*
X1291080D02*
X1290930D01*
X1288185Y319725D01*
X1285725Y318304D01*
X1283716Y316295D01*
X1282295Y313835D01*
X1281560Y311091D01*
Y310940D01*
X1291080D01*
Y320460D01*
D02*
G37*
G36*
X201338Y331040D02*
X198662D01*
X196078Y330348D01*
X193762Y329010D01*
X191870Y327118D01*
X190532Y324802D01*
X189840Y322218D01*
Y319542D01*
X190532Y316958D01*
X191870Y314642D01*
X193762Y312750D01*
X196078Y311412D01*
X198662Y310720D01*
X201338D01*
X203922Y311412D01*
X206238Y312750D01*
X208130Y314642D01*
X209468Y316958D01*
X210160Y319542D01*
Y322218D01*
X209468Y324802D01*
X208130Y327118D01*
X206238Y329010D01*
X203922Y330348D01*
X201338Y331040D01*
D02*
G37*
G36*
X69960Y311350D02*
X63040D01*
Y304430D01*
X69960D01*
Y311350D01*
D02*
G37*
G36*
X60500D02*
X53580D01*
Y304430D01*
X60500D01*
Y311350D01*
D02*
G37*
G36*
X1303140Y308400D02*
X1293620D01*
Y298880D01*
X1293770D01*
X1296515Y299615D01*
X1298975Y301036D01*
X1300984Y303045D01*
X1302405Y305505D01*
X1303140Y308249D01*
Y308400D01*
D02*
G37*
G36*
X1291080D02*
X1281560D01*
Y308249D01*
X1282295Y305505D01*
X1283716Y303045D01*
X1285725Y301036D01*
X1288185Y299615D01*
X1290930Y298880D01*
X1291080D01*
Y308400D01*
D02*
G37*
G36*
X142248Y311350D02*
X140092D01*
X138009Y310792D01*
X136141Y309714D01*
X134616Y308189D01*
X133538Y306321D01*
X132980Y304238D01*
Y302082D01*
X133538Y299999D01*
X134616Y298131D01*
X136141Y296606D01*
X138009Y295528D01*
X140092Y294970D01*
X142248D01*
X144331Y295528D01*
X146199Y296606D01*
X147724Y298131D01*
X148802Y299999D01*
X149360Y302082D01*
Y304238D01*
X148802Y306321D01*
X147724Y308189D01*
X146199Y309714D01*
X144331Y310792D01*
X142248Y311350D01*
D02*
G37*
G36*
X69960Y301890D02*
X63040D01*
Y294970D01*
X69960D01*
Y301890D01*
D02*
G37*
G36*
X60500D02*
X53580D01*
Y294970D01*
X60500D01*
Y301890D01*
D02*
G37*
G36*
X347988Y306270D02*
X345832D01*
X343749Y305712D01*
X341881Y304634D01*
X340356Y303109D01*
X339278Y301241D01*
X338720Y299158D01*
Y297002D01*
X339278Y294919D01*
X340356Y293051D01*
X341881Y291526D01*
X343749Y290448D01*
X345832Y289890D01*
X347988D01*
X350071Y290448D01*
X351939Y291526D01*
X353464Y293051D01*
X354542Y294919D01*
X355100Y297002D01*
Y299158D01*
X354542Y301241D01*
X353464Y303109D01*
X351939Y304634D01*
X350071Y305712D01*
X347988Y306270D01*
D02*
G37*
G36*
X275700D02*
X259320D01*
Y289890D01*
X275700D01*
Y306270D01*
D02*
G37*
G36*
X142248Y285950D02*
X140092D01*
X138009Y285392D01*
X136141Y284314D01*
X134616Y282789D01*
X133538Y280921D01*
X132980Y278838D01*
Y276682D01*
X133538Y274599D01*
X134616Y272731D01*
X136141Y271206D01*
X138009Y270128D01*
X140092Y269570D01*
X142248D01*
X144331Y270128D01*
X146199Y271206D01*
X147724Y272731D01*
X148802Y274599D01*
X149360Y276682D01*
Y278838D01*
X148802Y280921D01*
X147724Y282789D01*
X146199Y284314D01*
X144331Y285392D01*
X142248Y285950D01*
D02*
G37*
G36*
X62848D02*
X60692D01*
X58609Y285392D01*
X56741Y284314D01*
X55216Y282789D01*
X54138Y280921D01*
X53580Y278838D01*
Y276682D01*
X54138Y274599D01*
X55216Y272731D01*
X56741Y271206D01*
X58609Y270128D01*
X60692Y269570D01*
X62848D01*
X64931Y270128D01*
X66799Y271206D01*
X68324Y272731D01*
X69402Y274599D01*
X69960Y276682D01*
Y278838D01*
X69402Y280921D01*
X68324Y282789D01*
X66799Y284314D01*
X64931Y285392D01*
X62848Y285950D01*
D02*
G37*
G36*
X347988Y280870D02*
X345832D01*
X343749Y280312D01*
X341881Y279234D01*
X340356Y277709D01*
X339278Y275841D01*
X338720Y273758D01*
Y271602D01*
X339278Y269519D01*
X340356Y267651D01*
X341881Y266126D01*
X343749Y265048D01*
X345832Y264490D01*
X347988D01*
X350071Y265048D01*
X351939Y266126D01*
X353464Y267651D01*
X354542Y269519D01*
X355100Y271602D01*
Y273758D01*
X354542Y275841D01*
X353464Y277709D01*
X351939Y279234D01*
X350071Y280312D01*
X347988Y280870D01*
D02*
G37*
G36*
X268588D02*
X266432D01*
X264349Y280312D01*
X262481Y279234D01*
X260956Y277709D01*
X260324Y276613D01*
X257745D01*
X255778Y276222D01*
X254111Y275108D01*
X209101Y230099D01*
X207987Y228431D01*
X207906Y228023D01*
X204243Y224360D01*
X189840D01*
Y204040D01*
X193153D01*
X193643Y203712D01*
X195610Y203321D01*
X197577Y203712D01*
X198067Y204040D01*
X210160D01*
Y215743D01*
X251378Y256961D01*
X252492Y258628D01*
X252573Y259036D01*
X259873Y266336D01*
X262272D01*
X262481Y266126D01*
X264349Y265048D01*
X266432Y264490D01*
X268588D01*
X270671Y265048D01*
X272539Y266126D01*
X274064Y267651D01*
X275142Y269519D01*
X275700Y271602D01*
Y273758D01*
X275142Y275841D01*
X274064Y277709D01*
X272539Y279234D01*
X270671Y280312D01*
X268588Y280870D01*
D02*
G37*
G36*
X618360Y306970D02*
X575180D01*
Y263790D01*
X618360D01*
Y306970D01*
D02*
G37*
G36*
X455160Y280160D02*
X434840D01*
Y259840D01*
X455160D01*
Y280160D01*
D02*
G37*
G36*
X405160D02*
X384840D01*
Y259840D01*
X405160D01*
Y280160D01*
D02*
G37*
G36*
X1220160Y279360D02*
X1199840D01*
Y259040D01*
X1220160D01*
Y279360D01*
D02*
G37*
G36*
X515160D02*
X494840D01*
Y259040D01*
X515160D01*
Y279360D01*
D02*
G37*
G36*
X1003488Y269505D02*
X1000312D01*
X997243Y268683D01*
X994492Y267094D01*
X992246Y264848D01*
X990657Y262097D01*
X989835Y259028D01*
Y255852D01*
X990657Y252783D01*
X992246Y250032D01*
X994492Y247786D01*
X997243Y246197D01*
X1000312Y245375D01*
X1003488D01*
X1006557Y246197D01*
X1009308Y247786D01*
X1011554Y250032D01*
X1013143Y252783D01*
X1013965Y255852D01*
Y259028D01*
X1013143Y262097D01*
X1011554Y264848D01*
X1009308Y267094D01*
X1006557Y268683D01*
X1003488Y269505D01*
D02*
G37*
G36*
X142248Y260550D02*
X140092D01*
X138009Y259992D01*
X136141Y258914D01*
X134616Y257389D01*
X133538Y255521D01*
X132980Y253438D01*
Y251282D01*
X133538Y249199D01*
X134616Y247331D01*
X136141Y245806D01*
X138009Y244728D01*
X140092Y244170D01*
X142248D01*
X144331Y244728D01*
X146199Y245806D01*
X147724Y247331D01*
X148802Y249199D01*
X149360Y251282D01*
Y253438D01*
X148802Y255521D01*
X147724Y257389D01*
X146199Y258914D01*
X144331Y259992D01*
X142248Y260550D01*
D02*
G37*
G36*
X62848D02*
X60692D01*
X58609Y259992D01*
X56741Y258914D01*
X55216Y257389D01*
X54138Y255521D01*
X53580Y253438D01*
Y251282D01*
X54138Y249199D01*
X55216Y247331D01*
X56741Y245806D01*
X58609Y244728D01*
X60692Y244170D01*
X62848D01*
X64931Y244728D01*
X66799Y245806D01*
X68324Y247331D01*
X69402Y249199D01*
X69960Y251282D01*
Y253438D01*
X69402Y255521D01*
X68324Y257389D01*
X66799Y258914D01*
X64931Y259992D01*
X62848Y260550D01*
D02*
G37*
G36*
X735200Y248596D02*
Y240330D01*
X743466D01*
X742820Y242742D01*
X741564Y244918D01*
X739788Y246694D01*
X737612Y247950D01*
X735200Y248596D01*
D02*
G37*
G36*
X732660Y248596D02*
X730248Y247950D01*
X728072Y246694D01*
X726296Y244918D01*
X725040Y242742D01*
X724394Y240330D01*
X732660D01*
Y248596D01*
D02*
G37*
G36*
X347988Y255470D02*
X345832D01*
X343749Y254912D01*
X341881Y253834D01*
X340356Y252309D01*
X339278Y250441D01*
X338720Y248358D01*
Y246202D01*
X339278Y244119D01*
X340356Y242251D01*
X341881Y240726D01*
X343749Y239648D01*
X345832Y239090D01*
X347988D01*
X350071Y239648D01*
X351939Y240726D01*
X353464Y242251D01*
X354542Y244119D01*
X355100Y246202D01*
Y248358D01*
X354542Y250441D01*
X353464Y252309D01*
X351939Y253834D01*
X350071Y254912D01*
X347988Y255470D01*
D02*
G37*
G36*
X268588D02*
X266432D01*
X264349Y254912D01*
X262481Y253834D01*
X260956Y252309D01*
X259878Y250441D01*
X259320Y248358D01*
Y246202D01*
X259878Y244119D01*
X260956Y242251D01*
X262481Y240726D01*
X264349Y239648D01*
X266432Y239090D01*
X268588D01*
X270671Y239648D01*
X272539Y240726D01*
X274064Y242251D01*
X275142Y244119D01*
X275700Y246202D01*
Y248358D01*
X275142Y250441D01*
X274064Y252309D01*
X272539Y253834D01*
X270671Y254912D01*
X268588Y255470D01*
D02*
G37*
G36*
X732660Y237790D02*
X724394D01*
X725040Y235378D01*
X726296Y233202D01*
X728072Y231426D01*
X730248Y230170D01*
X732660Y229524D01*
Y237790D01*
D02*
G37*
G36*
X743466D02*
X735200D01*
Y229524D01*
X737612Y230170D01*
X739788Y231426D01*
X741564Y233202D01*
X742820Y235378D01*
X743466Y237790D01*
D02*
G37*
G36*
X268780Y230019D02*
Y223150D01*
X275649D01*
X275142Y225041D01*
X274064Y226909D01*
X272539Y228434D01*
X270671Y229512D01*
X268780Y230019D01*
D02*
G37*
G36*
X266240D02*
X264349Y229512D01*
X262481Y228434D01*
X260956Y226909D01*
X259878Y225041D01*
X259371Y223150D01*
X266240D01*
Y230019D01*
D02*
G37*
G36*
X1285966Y241590D02*
X1283494D01*
X1281106Y240950D01*
X1278964Y239714D01*
X1277216Y237966D01*
X1275980Y235824D01*
X1275340Y233436D01*
Y230964D01*
X1275980Y228576D01*
X1277216Y226434D01*
X1278964Y224686D01*
X1281106Y223450D01*
X1283494Y222810D01*
X1285966D01*
X1288354Y223450D01*
X1290496Y224686D01*
X1292244Y226434D01*
X1293480Y228576D01*
X1294120Y230964D01*
Y233436D01*
X1293480Y235824D01*
X1292244Y237966D01*
X1290496Y239714D01*
X1288354Y240950D01*
X1285966Y241590D01*
D02*
G37*
G36*
X142248Y235150D02*
X140092D01*
X138009Y234592D01*
X136141Y233514D01*
X134616Y231989D01*
X133538Y230121D01*
X132980Y228038D01*
Y225882D01*
X133538Y223799D01*
X134616Y221931D01*
X136141Y220406D01*
X138009Y219328D01*
X140092Y218770D01*
X142248D01*
X144331Y219328D01*
X146199Y220406D01*
X147724Y221931D01*
X148802Y223799D01*
X149360Y225882D01*
Y228038D01*
X148802Y230121D01*
X147724Y231989D01*
X146199Y233514D01*
X144331Y234592D01*
X142248Y235150D01*
D02*
G37*
G36*
X62848D02*
X60692D01*
X58609Y234592D01*
X56741Y233514D01*
X55216Y231989D01*
X54138Y230121D01*
X53580Y228038D01*
Y225882D01*
X54138Y223799D01*
X55216Y221931D01*
X56741Y220406D01*
X58609Y219328D01*
X60692Y218770D01*
X62848D01*
X64931Y219328D01*
X66799Y220406D01*
X68324Y221931D01*
X69402Y223799D01*
X69960Y225882D01*
Y228038D01*
X69402Y230121D01*
X68324Y231989D01*
X66799Y233514D01*
X64931Y234592D01*
X62848Y235150D01*
D02*
G37*
G36*
X411418Y235850D02*
X408742D01*
X406158Y235158D01*
X403842Y233820D01*
X401950Y231928D01*
X400612Y229612D01*
X399920Y227028D01*
Y224352D01*
X400612Y221768D01*
X401950Y219452D01*
X403842Y217560D01*
X406158Y216222D01*
X408742Y215530D01*
X411418D01*
X414002Y216222D01*
X416318Y217560D01*
X418210Y219452D01*
X419548Y221768D01*
X420240Y224352D01*
Y227028D01*
X419548Y229612D01*
X418210Y231928D01*
X416318Y233820D01*
X414002Y235158D01*
X411418Y235850D01*
D02*
G37*
G36*
X275649Y220610D02*
X268780D01*
Y213741D01*
X270671Y214248D01*
X272539Y215326D01*
X274064Y216851D01*
X275142Y218719D01*
X275649Y220610D01*
D02*
G37*
G36*
X266240D02*
X259371D01*
X259878Y218719D01*
X260956Y216851D01*
X262481Y215326D01*
X264349Y214248D01*
X266240Y213741D01*
Y220610D01*
D02*
G37*
G36*
X347988Y230070D02*
X345832D01*
X343749Y229512D01*
X341881Y228434D01*
X340356Y226909D01*
X339278Y225041D01*
X338720Y222958D01*
Y220802D01*
X339278Y218719D01*
X340356Y216851D01*
X341881Y215326D01*
X343749Y214248D01*
X345832Y213690D01*
X347988D01*
X350071Y214248D01*
X351939Y215326D01*
X353464Y216851D01*
X354542Y218719D01*
X355100Y220802D01*
Y222958D01*
X354542Y225041D01*
X353464Y226909D01*
X351939Y228434D01*
X350071Y229512D01*
X347988Y230070D01*
D02*
G37*
G36*
X1294120Y216190D02*
X1275340D01*
Y197410D01*
X1294120D01*
Y216190D01*
D02*
G37*
G36*
X398650Y199383D02*
Y192670D01*
X405363D01*
X404872Y194503D01*
X403814Y196337D01*
X402317Y197834D01*
X400483Y198892D01*
X398650Y199383D01*
D02*
G37*
G36*
X396110D02*
X394277Y198892D01*
X392443Y197834D01*
X390946Y196337D01*
X389888Y194503D01*
X389397Y192670D01*
X396110D01*
Y199383D01*
D02*
G37*
G36*
X1211338Y211040D02*
X1208662D01*
X1206078Y210348D01*
X1203762Y209010D01*
X1201870Y207118D01*
X1200532Y204802D01*
X1199840Y202218D01*
Y199542D01*
X1200532Y196958D01*
X1201870Y194642D01*
X1203762Y192750D01*
X1206078Y191412D01*
X1208662Y190720D01*
X1211338D01*
X1213922Y191412D01*
X1216238Y192750D01*
X1218130Y194642D01*
X1219468Y196958D01*
X1220160Y199542D01*
Y202218D01*
X1219468Y204802D01*
X1218130Y207118D01*
X1216238Y209010D01*
X1213922Y210348D01*
X1211338Y211040D01*
D02*
G37*
G36*
X405363Y190130D02*
X398650D01*
Y183417D01*
X400483Y183908D01*
X402317Y184966D01*
X403814Y186463D01*
X404872Y188297D01*
X405363Y190130D01*
D02*
G37*
G36*
X396110D02*
X389397D01*
X389888Y188297D01*
X390946Y186463D01*
X392443Y184966D01*
X394277Y183908D01*
X396110Y183417D01*
Y190130D01*
D02*
G37*
G36*
X66110Y180333D02*
Y173620D01*
X72823D01*
X72332Y175453D01*
X71274Y177287D01*
X69777Y178784D01*
X67943Y179842D01*
X66110Y180333D01*
D02*
G37*
G36*
X63570D02*
X61737Y179842D01*
X59903Y178784D01*
X58406Y177287D01*
X57348Y175453D01*
X56857Y173620D01*
X63570D01*
Y180333D01*
D02*
G37*
G36*
X163500Y179063D02*
Y172350D01*
X170213D01*
X169722Y174183D01*
X168664Y176017D01*
X167167Y177514D01*
X165333Y178572D01*
X163500Y179063D01*
D02*
G37*
G36*
X160960D02*
X159127Y178572D01*
X157293Y177514D01*
X155796Y176017D01*
X154738Y174183D01*
X154247Y172350D01*
X160960D01*
Y179063D01*
D02*
G37*
G36*
X72823Y171080D02*
X66110D01*
Y164367D01*
X67943Y164858D01*
X69777Y165916D01*
X71274Y167413D01*
X72332Y169247D01*
X72823Y171080D01*
D02*
G37*
G36*
X63570D02*
X56857D01*
X57348Y169247D01*
X58406Y167413D01*
X59903Y165916D01*
X61737Y164858D01*
X63570Y164367D01*
Y171080D01*
D02*
G37*
G36*
X97880Y180390D02*
X81800D01*
Y164310D01*
X97880D01*
Y180390D01*
D02*
G37*
G36*
X170213Y169810D02*
X163500D01*
Y163097D01*
X165333Y163588D01*
X167167Y164646D01*
X168664Y166143D01*
X169722Y167977D01*
X170213Y169810D01*
D02*
G37*
G36*
X160960D02*
X154247D01*
X154738Y167977D01*
X155796Y166143D01*
X157293Y164646D01*
X159127Y163588D01*
X160960Y163097D01*
Y169810D01*
D02*
G37*
G36*
X145270Y179120D02*
X129190D01*
Y163040D01*
X145270D01*
Y179120D01*
D02*
G37*
G36*
X525030Y208560D02*
X505950D01*
Y189480D01*
X510142D01*
X510482Y188210D01*
X509432Y187604D01*
X507656Y185828D01*
X506400Y183652D01*
X505750Y181226D01*
Y178714D01*
X506400Y176288D01*
X507656Y174112D01*
X509432Y172336D01*
X511608Y171080D01*
X511625Y171076D01*
X511757Y170158D01*
X511692Y169743D01*
X509632Y168554D01*
X507856Y166778D01*
X506600Y164602D01*
X505954Y162190D01*
X515490D01*
X525026D01*
X524380Y164602D01*
X523124Y166778D01*
X521348Y168554D01*
X519172Y169810D01*
X519155Y169814D01*
X519023Y170732D01*
X519088Y171147D01*
X521148Y172336D01*
X522924Y174112D01*
X524180Y176288D01*
X524830Y178714D01*
Y181226D01*
X524180Y183652D01*
X522924Y185828D01*
X521148Y187604D01*
X520098Y188210D01*
X520438Y189480D01*
X525030D01*
Y208560D01*
D02*
G37*
G36*
X465340D02*
X446260D01*
Y189480D01*
X450452D01*
X450792Y188210D01*
X449742Y187604D01*
X447966Y185828D01*
X446710Y183652D01*
X446060Y181226D01*
Y178714D01*
X446710Y176288D01*
X447966Y174112D01*
X449742Y172336D01*
X451918Y171080D01*
X451935Y171076D01*
X452067Y170158D01*
X452002Y169743D01*
X449942Y168554D01*
X448166Y166778D01*
X446910Y164602D01*
X446264Y162190D01*
X455800D01*
X465336D01*
X464690Y164602D01*
X463434Y166778D01*
X461658Y168554D01*
X459482Y169810D01*
X459465Y169814D01*
X459333Y170732D01*
X459398Y171147D01*
X461458Y172336D01*
X463234Y174112D01*
X464490Y176288D01*
X465140Y178714D01*
Y181226D01*
X464490Y183652D01*
X463234Y185828D01*
X461458Y187604D01*
X460408Y188210D01*
X460748Y189480D01*
X465340D01*
Y208560D01*
D02*
G37*
G36*
X405420Y174440D02*
X389340D01*
Y158360D01*
X405420D01*
Y174440D01*
D02*
G37*
G36*
X1144371Y175415D02*
X1141629D01*
X1138980Y174705D01*
X1136605Y173334D01*
X1134666Y171395D01*
X1133295Y169020D01*
X1132585Y166371D01*
Y163629D01*
X1133295Y160980D01*
X1134666Y158605D01*
X1136605Y156666D01*
X1138980Y155295D01*
X1141629Y154585D01*
X1144371D01*
X1147020Y155295D01*
X1149395Y156666D01*
X1151334Y158605D01*
X1152705Y160980D01*
X1153415Y163629D01*
Y166371D01*
X1152705Y169020D01*
X1151334Y171395D01*
X1149395Y173334D01*
X1147020Y174705D01*
X1144371Y175415D01*
D02*
G37*
G36*
X858371D02*
X855629D01*
X852980Y174705D01*
X850605Y173334D01*
X848666Y171395D01*
X847295Y169020D01*
X846585Y166371D01*
Y163629D01*
X847295Y160980D01*
X848666Y158605D01*
X850605Y156666D01*
X852980Y155295D01*
X855629Y154585D01*
X858371D01*
X861020Y155295D01*
X863395Y156666D01*
X865334Y158605D01*
X866705Y160980D01*
X867415Y163629D01*
Y166371D01*
X866705Y169020D01*
X865334Y171395D01*
X863395Y173334D01*
X861020Y174705D01*
X858371Y175415D01*
D02*
G37*
G36*
X743470Y173600D02*
X724390D01*
Y154520D01*
X743470D01*
Y173600D01*
D02*
G37*
G36*
X1294390Y172090D02*
X1275610D01*
Y153310D01*
X1294390D01*
Y172090D01*
D02*
G37*
G36*
X525026Y159650D02*
X516760D01*
Y151384D01*
X519172Y152030D01*
X521348Y153286D01*
X523124Y155062D01*
X524380Y157238D01*
X525026Y159650D01*
D02*
G37*
G36*
X465336D02*
X457070D01*
Y151384D01*
X459482Y152030D01*
X461658Y153286D01*
X463434Y155062D01*
X464690Y157238D01*
X465336Y159650D01*
D02*
G37*
G36*
X514220D02*
X505954D01*
X506600Y157238D01*
X507856Y155062D01*
X509632Y153286D01*
X511808Y152030D01*
X514220Y151384D01*
Y159650D01*
D02*
G37*
G36*
X454530D02*
X446264D01*
X446910Y157238D01*
X448166Y155062D01*
X449942Y153286D01*
X452118Y152030D01*
X454530Y151384D01*
Y159650D01*
D02*
G37*
G36*
X598896Y154570D02*
X598040D01*
Y134250D01*
X618360D01*
Y135106D01*
X617530Y139278D01*
X615903Y143207D01*
X613540Y146743D01*
X610533Y149750D01*
X606997Y152113D01*
X603068Y153740D01*
X598896Y154570D01*
D02*
G37*
G36*
X595500D02*
X594644D01*
X590472Y153740D01*
X586543Y152113D01*
X583007Y149750D01*
X580000Y146743D01*
X577637Y143207D01*
X576010Y139278D01*
X575180Y135106D01*
Y134250D01*
X595500D01*
Y154570D01*
D02*
G37*
G36*
X1286236Y146690D02*
X1283764D01*
X1281376Y146050D01*
X1279234Y144814D01*
X1277486Y143066D01*
X1276250Y140924D01*
X1275610Y138536D01*
Y136064D01*
X1276250Y133676D01*
X1277486Y131534D01*
X1279234Y129786D01*
X1281376Y128550D01*
X1283764Y127910D01*
X1286236D01*
X1288624Y128550D01*
X1290766Y129786D01*
X1292514Y131534D01*
X1293750Y133676D01*
X1294390Y136064D01*
Y138536D01*
X1293750Y140924D01*
X1292514Y143066D01*
X1290766Y144814D01*
X1288624Y146050D01*
X1286236Y146690D01*
D02*
G37*
G36*
X618360Y131710D02*
X598040D01*
Y111390D01*
X598896D01*
X603068Y112220D01*
X606997Y113847D01*
X610533Y116210D01*
X613540Y119217D01*
X615903Y122753D01*
X617530Y126682D01*
X618360Y130854D01*
Y131710D01*
D02*
G37*
G36*
X595500D02*
X575180D01*
Y130854D01*
X576010Y126682D01*
X577637Y122753D01*
X580000Y119217D01*
X583007Y116210D01*
X586543Y113847D01*
X590472Y112220D01*
X594644Y111390D01*
X595500D01*
Y131710D01*
D02*
G37*
G36*
X332218Y130160D02*
X329542D01*
X326958Y129468D01*
X324642Y128130D01*
X322750Y126238D01*
X321412Y123922D01*
X320720Y121338D01*
Y118662D01*
X321412Y116078D01*
X322750Y113762D01*
X324642Y111870D01*
X326958Y110532D01*
X329542Y109840D01*
X332218D01*
X334802Y110532D01*
X337118Y111870D01*
X339010Y113762D01*
X340348Y116078D01*
X341040Y118662D01*
Y121338D01*
X340348Y123922D01*
X339010Y126238D01*
X337118Y128130D01*
X334802Y129468D01*
X332218Y130160D01*
D02*
G37*
G36*
X234360D02*
X214040D01*
Y109840D01*
X234360D01*
Y130160D01*
D02*
G37*
G36*
X1220160Y104360D02*
X1211270D01*
Y95470D01*
X1220160D01*
Y104360D01*
D02*
G37*
G36*
X1208730D02*
X1199840D01*
Y95470D01*
X1208730D01*
Y104360D01*
D02*
G37*
G36*
X1220160Y92930D02*
X1211270D01*
Y84040D01*
X1220160D01*
Y92930D01*
D02*
G37*
G36*
X1208730D02*
X1199840D01*
Y84040D01*
X1208730D01*
Y92930D01*
D02*
G37*
G36*
X617790Y96590D02*
X574610D01*
Y53410D01*
X617790D01*
Y96590D01*
D02*
G37*
G36*
X445926D02*
X441674D01*
X437502Y95760D01*
X433573Y94133D01*
X430037Y91770D01*
X427030Y88763D01*
X424667Y85227D01*
X423040Y81298D01*
X422210Y77126D01*
Y72874D01*
X423040Y68702D01*
X424667Y64773D01*
X427030Y61237D01*
X430037Y58230D01*
X433573Y55867D01*
X437502Y54240D01*
X441674Y53410D01*
X445926D01*
X450098Y54240D01*
X454027Y55867D01*
X457563Y58230D01*
X460570Y61237D01*
X462933Y64773D01*
X464560Y68702D01*
X465390Y72874D01*
Y77126D01*
X464560Y81298D01*
X462933Y85227D01*
X460570Y88763D01*
X457563Y91770D01*
X454027Y94133D01*
X450098Y95760D01*
X445926Y96590D01*
D02*
G37*
%LPD*%
D18*
X505000Y375880D02*
D03*
X445000Y376680D02*
D03*
X395000D02*
D03*
X1210000Y375880D02*
D03*
X149120Y395000D02*
D03*
X200000Y320880D02*
D03*
X1210000Y200880D02*
D03*
X330880Y120000D02*
D03*
X410080Y225690D02*
D03*
D19*
X505000Y269200D02*
D03*
X445000Y270000D02*
D03*
X395000D02*
D03*
X1210000Y269200D02*
D03*
X200000Y214200D02*
D03*
X1210000Y94200D02*
D03*
D22*
X255800Y395000D02*
D03*
X224200Y120000D02*
D03*
D42*
X195610Y208460D02*
X247745Y260595D01*
X212735Y226465D02*
X257745Y271475D01*
X266305D01*
X267510Y272680D01*
D43*
X1143000Y165000D02*
D03*
X857000D02*
D03*
D44*
X1001900Y257440D02*
D03*
Y399680D02*
D03*
D45*
X770000Y405000D02*
D03*
X733170D02*
D03*
D46*
X698880D02*
D03*
D47*
X1285000Y137300D02*
D03*
X1284730Y232200D02*
D03*
X97660Y366660D02*
D03*
X312290Y360310D02*
D03*
D48*
X1285000Y162700D02*
D03*
X1284730Y206800D02*
D03*
D49*
X455800Y160920D02*
D03*
X455600Y179970D02*
D03*
X515290D02*
D03*
X515490Y160920D02*
D03*
X733930Y239060D02*
D03*
D50*
X455800Y199020D02*
D03*
X515490D02*
D03*
X733930Y164060D02*
D03*
D51*
X1345000Y425000D02*
D03*
Y30000D02*
D03*
X30000D02*
D03*
Y425000D02*
D03*
D52*
X596200Y75000D02*
D03*
X816200Y40000D02*
D03*
D53*
X443800Y75000D02*
D03*
X663800Y40000D02*
D03*
X596770Y132980D02*
D03*
D54*
X568830Y371740D02*
D03*
D55*
X619630D02*
D03*
X1292350Y309670D02*
D03*
D56*
X596770Y285380D02*
D03*
D57*
X397380Y166400D02*
D03*
D58*
Y191400D02*
D03*
X64840Y172350D02*
D03*
X162230Y171080D02*
D03*
D59*
X1292350Y360470D02*
D03*
D60*
X141170Y303160D02*
D03*
Y277760D02*
D03*
Y252360D02*
D03*
Y226960D02*
D03*
X61770D02*
D03*
Y252360D02*
D03*
Y277760D02*
D03*
X346910Y298080D02*
D03*
Y272680D02*
D03*
Y247280D02*
D03*
Y221880D02*
D03*
X267510D02*
D03*
Y247280D02*
D03*
Y272680D02*
D03*
D61*
X61770Y303160D02*
D03*
X267510Y298080D02*
D03*
D62*
X72260Y366660D02*
D03*
X337690Y360310D02*
D03*
D63*
X89840Y172350D02*
D03*
X137230Y171080D02*
D03*
M02*
