G04*
G04 #@! TF.GenerationSoftware,Altium Limited,Altium Designer,23.7.1 (13)*
G04*
G04 Layer_Color=255*
%FSLAX44Y44*%
%MOMM*%
G71*
G04*
G04 #@! TF.SameCoordinates,A07C0687-F844-4A61-819B-523DF58B2253*
G04*
G04*
G04 #@! TF.FilePolarity,Positive*
G04*
G01*
G75*
%ADD18C,1.5240*%
%ADD19R,1.5240X1.5240*%
%ADD22R,1.5240X1.5240*%
%ADD43C,1.5750*%
%ADD44C,1.9050*%
%ADD45C,2.0100*%
%ADD46R,2.0100X2.0100*%
%ADD47C,1.3700*%
%ADD48R,1.3700X1.3700*%
%ADD49C,1.4000*%
%ADD50R,1.4000X1.4000*%
%ADD51C,3.5000*%
%ADD52R,3.8100X3.8100*%
%ADD53C,3.8100*%
%ADD54R,1.6500X1.6500*%
%ADD55C,1.6500*%
%ADD56R,3.8100X3.8100*%
%ADD57R,1.1000X1.1000*%
%ADD58C,1.1000*%
%ADD59R,1.6500X1.6500*%
%ADD60C,1.1300*%
%ADD61R,1.1300X1.1300*%
%ADD62R,1.3700X1.3700*%
%ADD63R,1.1000X1.1000*%
D18*
X505000Y375880D02*
D03*
X445000Y376680D02*
D03*
X395000D02*
D03*
X1210000Y375880D02*
D03*
X149120Y395000D02*
D03*
X200000Y320880D02*
D03*
X1210000Y200880D02*
D03*
X330880Y120000D02*
D03*
X410080Y225690D02*
D03*
D19*
X505000Y269200D02*
D03*
X445000Y270000D02*
D03*
X395000D02*
D03*
X1210000Y269200D02*
D03*
X200000Y214200D02*
D03*
X1210000Y94200D02*
D03*
D22*
X255800Y395000D02*
D03*
X224200Y120000D02*
D03*
D43*
X1143000Y165000D02*
D03*
X857000D02*
D03*
D44*
X1001900Y257440D02*
D03*
Y399680D02*
D03*
D45*
X770000Y405000D02*
D03*
X733170D02*
D03*
D46*
X698880D02*
D03*
D47*
X1285000Y137300D02*
D03*
X1284730Y232200D02*
D03*
X97660Y366660D02*
D03*
X312290Y360310D02*
D03*
D48*
X1285000Y162700D02*
D03*
X1284730Y206800D02*
D03*
D49*
X455800Y160920D02*
D03*
X455600Y179970D02*
D03*
X515290D02*
D03*
X515490Y160920D02*
D03*
X733930Y239060D02*
D03*
D50*
X455800Y199020D02*
D03*
X515490D02*
D03*
X733930Y164060D02*
D03*
D51*
X1345000Y425000D02*
D03*
Y30000D02*
D03*
X30000D02*
D03*
Y425000D02*
D03*
D52*
X596200Y75000D02*
D03*
X816200Y40000D02*
D03*
D53*
X443800Y75000D02*
D03*
X663800Y40000D02*
D03*
X596770Y132980D02*
D03*
D54*
X568830Y371740D02*
D03*
D55*
X619630D02*
D03*
X1292350Y309670D02*
D03*
D56*
X596770Y285380D02*
D03*
D57*
X397380Y166400D02*
D03*
D58*
Y191400D02*
D03*
X64840Y172350D02*
D03*
X162230Y171080D02*
D03*
D59*
X1292350Y360470D02*
D03*
D60*
X141170Y303160D02*
D03*
Y277760D02*
D03*
Y252360D02*
D03*
Y226960D02*
D03*
X61770D02*
D03*
Y252360D02*
D03*
Y277760D02*
D03*
X346910Y298080D02*
D03*
Y272680D02*
D03*
Y247280D02*
D03*
Y221880D02*
D03*
X267510D02*
D03*
Y247280D02*
D03*
Y272680D02*
D03*
D61*
X61770Y303160D02*
D03*
X267510Y298080D02*
D03*
D62*
X72260Y366660D02*
D03*
X337690Y360310D02*
D03*
D63*
X89840Y172350D02*
D03*
X137230Y171080D02*
D03*
M02*
