G04*
G04 #@! TF.GenerationSoftware,Altium Limited,Altium Designer,23.7.1 (13)*
G04*
G04 Layer_Color=32768*
%FSLAX44Y44*%
%MOMM*%
G71*
G04*
G04 #@! TF.SameCoordinates,A07C0687-F844-4A61-819B-523DF58B2253*
G04*
G04*
G04 #@! TF.FilePolarity,Positive*
G04*
G01*
G75*
%ADD12C,0.1524*%
%ADD71C,0.0500*%
G36*
X255038Y405160D02*
X274850D01*
Y384840D01*
X255038D01*
Y376458D01*
X154962D01*
Y384840D01*
X116100D01*
Y405160D01*
X154962D01*
Y413542D01*
X255038D01*
Y405160D01*
D02*
G37*
G36*
X405160Y370838D02*
X413542D01*
Y270762D01*
X405160D01*
Y250950D01*
X384840D01*
Y270762D01*
X376458D01*
Y370838D01*
X384840D01*
Y409700D01*
X405160D01*
Y370838D01*
D02*
G37*
G36*
X210160Y315038D02*
X218542D01*
Y214962D01*
X210160D01*
Y195150D01*
X189840D01*
Y214962D01*
X181458D01*
Y315038D01*
X189840D01*
Y353900D01*
X210160D01*
Y315038D01*
D02*
G37*
G36*
X325038Y130160D02*
X363900D01*
Y109840D01*
X325038D01*
Y101458D01*
X224962D01*
Y109840D01*
X205150D01*
Y130160D01*
X224962D01*
Y138542D01*
X325038D01*
Y130160D01*
D02*
G37*
G36*
X515160Y269962D02*
Y250150D01*
X494840D01*
Y269962D01*
X486458D01*
Y370038D01*
X494840D01*
Y408900D01*
X515160D01*
Y370038D01*
X523542D01*
Y269962D01*
X515160D01*
D02*
G37*
G36*
X455160Y270762D02*
Y250950D01*
X434840D01*
Y270762D01*
X426458D01*
Y370838D01*
X434840D01*
Y409700D01*
X455160D01*
Y370838D01*
X463542D01*
Y270762D01*
X455160D01*
D02*
G37*
G36*
X1220160Y94962D02*
Y75150D01*
X1199840D01*
Y94962D01*
X1191458D01*
Y195038D01*
X1199840D01*
Y233900D01*
X1220160D01*
Y195038D01*
X1228542D01*
Y94962D01*
X1220160D01*
D02*
G37*
G36*
Y269962D02*
Y250150D01*
X1199840D01*
Y269962D01*
X1191458D01*
Y370038D01*
X1199840D01*
Y408900D01*
X1220160D01*
Y370038D01*
X1228542D01*
Y269962D01*
X1220160D01*
D02*
G37*
D12*
X523542D02*
Y370038D01*
X515160D02*
X523542D01*
X486458D02*
X494840D01*
X486458Y269962D02*
Y370038D01*
Y269962D02*
X494840D01*
X515160D02*
X523542D01*
X515160Y231100D02*
Y269962D01*
Y370038D02*
Y408900D01*
X494840D02*
X515160D01*
X494840Y370038D02*
Y408900D01*
Y231100D02*
Y269962D01*
Y231100D02*
X515160D01*
X463542Y270762D02*
Y370838D01*
X455160D02*
X463542D01*
X426458D02*
X434840D01*
X426458Y270762D02*
Y370838D01*
Y270762D02*
X434840D01*
X455160D02*
X463542D01*
X455160Y231900D02*
Y270762D01*
Y370838D02*
Y409700D01*
X434840D02*
X455160D01*
X434840Y370838D02*
Y409700D01*
Y231900D02*
Y270762D01*
Y231900D02*
X455160D01*
X413542Y270762D02*
Y370838D01*
X405160D02*
X413542D01*
X376458D02*
X384840D01*
X376458Y270762D02*
Y370838D01*
Y270762D02*
X384840D01*
X405160D02*
X413542D01*
X405160Y231900D02*
Y270762D01*
Y370838D02*
Y409700D01*
X384840D02*
X405160D01*
X384840Y370838D02*
Y409700D01*
Y231900D02*
Y270762D01*
Y231900D02*
X405160D01*
X1228542Y269962D02*
Y370038D01*
X1220160D02*
X1228542D01*
X1191458D02*
X1199840D01*
X1191458Y269962D02*
Y370038D01*
Y269962D02*
X1199840D01*
X1220160D02*
X1228542D01*
X1220160Y231100D02*
Y269962D01*
Y370038D02*
Y408900D01*
X1199840D02*
X1220160D01*
X1199840Y370038D02*
Y408900D01*
Y231100D02*
Y269962D01*
Y231100D02*
X1220160D01*
X154962Y413542D02*
X255038D01*
X154962Y405160D02*
Y413542D01*
Y376458D02*
Y384840D01*
Y376458D02*
X255038D01*
Y384840D01*
Y405160D02*
Y413542D01*
Y405160D02*
X293900D01*
X116100D02*
X154962D01*
X116100Y384840D02*
Y405160D01*
Y384840D02*
X154962D01*
X255038D02*
X293900D01*
Y405160D01*
X218542Y214962D02*
Y315038D01*
X210160D02*
X218542D01*
X181458D02*
X189840D01*
X181458Y214962D02*
Y315038D01*
Y214962D02*
X189840D01*
X210160D02*
X218542D01*
X210160Y176100D02*
Y214962D01*
Y315038D02*
Y353900D01*
X189840D02*
X210160D01*
X189840Y315038D02*
Y353900D01*
Y176100D02*
Y214962D01*
Y176100D02*
X210160D01*
X1228542Y94962D02*
Y195038D01*
X1220160D02*
X1228542D01*
X1191458D02*
X1199840D01*
X1191458Y94962D02*
Y195038D01*
Y94962D02*
X1199840D01*
X1220160D02*
X1228542D01*
X1220160Y56100D02*
Y94962D01*
Y195038D02*
Y233900D01*
X1199840D02*
X1220160D01*
X1199840Y195038D02*
Y233900D01*
Y56100D02*
Y94962D01*
Y56100D02*
X1220160D01*
X224962Y101458D02*
X325038D01*
Y109840D01*
Y130160D02*
Y138542D01*
X224962D02*
X325038D01*
X224962Y130160D02*
Y138542D01*
Y101458D02*
Y109840D01*
X186100D02*
X224962D01*
X325038D02*
X363900D01*
Y130160D01*
X325038D02*
X363900D01*
X186100D02*
X224962D01*
X186100Y109840D02*
Y130160D01*
D71*
X826430Y201560D02*
G03*
X826430Y201560I-92500J0D01*
G01*
X424880Y178900D02*
G03*
X424880Y178900I-27500J0D01*
G01*
X104840Y172350D02*
G03*
X104840Y172350I-27500J0D01*
G01*
X177230Y171080D02*
G03*
X177230Y171080I-27500J0D01*
G01*
X846625Y215000D02*
X1153375D01*
Y115000D02*
Y215000D01*
X846625Y115000D02*
X1153375D01*
X846625D02*
Y215000D01*
X836840Y243510D02*
X1166960D01*
Y413610D01*
X836840D02*
X1166960D01*
X836840Y243510D02*
Y413610D01*
X679470Y387125D02*
Y436575D01*
Y387125D02*
X786870D01*
Y436575D01*
X679470D02*
X786870D01*
X1312900Y122100D02*
Y177900D01*
X1250700D02*
X1312900D01*
X1250700Y122100D02*
Y177900D01*
Y122100D02*
X1312900D01*
X483150Y145470D02*
Y214470D01*
X441150Y145470D02*
X483150D01*
X441150D02*
Y214470D01*
X483150D01*
X500840D02*
X542840D01*
X500840Y145470D02*
Y214470D01*
Y145470D02*
X542840D01*
Y214470D01*
X540930Y415240D02*
X647530D01*
Y328240D02*
Y415240D01*
X540930Y328240D02*
X647530D01*
X540930D02*
Y415240D01*
X1256830Y191600D02*
Y247400D01*
Y191600D02*
X1319030D01*
Y247400D01*
X1256830D02*
X1319030D01*
X1335850Y281770D02*
Y388370D01*
X1248850Y281770D02*
X1335850D01*
X1248850D02*
Y388370D01*
X1335850D01*
X53620Y214610D02*
Y315510D01*
X149320Y214610D02*
Y315510D01*
X53620Y214610D02*
X149320D01*
X53620Y315510D02*
X149320D01*
X112860Y332360D02*
Y394560D01*
X57060Y332360D02*
X112860D01*
X57060D02*
Y394560D01*
X112860D01*
X297090Y332410D02*
Y394610D01*
X352890D01*
Y332410D02*
Y394610D01*
X297090Y332410D02*
X352890D01*
X259360Y209530D02*
Y310430D01*
X355060Y209530D02*
Y310430D01*
X259360Y209530D02*
X355060D01*
X259360Y310430D02*
X355060D01*
M02*
